<?xml version="1.0" encoding="utf-8"?>
<!-- Generator: Adobe Illustrator 25.2.1, SVG Export Plug-In . SVG Version: 6.00 Build 0)  -->
<svg version="1.1" id="Layer_3" xmlns="http://www.w3.org/2000/svg" xmlns:xlink="http://www.w3.org/1999/xlink" x="0px" y="0px"
	 viewBox="0 0 498.8 512" style="enable-background:new 0 0 498.8 512;" xml:space="preserve">
<style type="text/css">
	.st0{fill:#FFFFFF;}
</style>
<path class="st0" d="M75.3,391.5h389.9l33.7-286.1h-67.4H116.8L103.6,0H0v30.1h77.1l41.4,331.3H75.3c-24.9,0-45.2,20.3-45.2,45.2
	c0,24.9,20.3,45.2,45.2,45.2h2.6C67.5,481.1,89.4,512,120.5,512c31.2,0,53-30.9,42.6-60.2h140.7c-10.4,29.4,11.5,60.2,42.6,60.2
	c31.2,0,53-30.9,42.6-60.2h32.7v-30.1H75.3c-8.3,0-15.1-6.8-15.1-15.1C60.2,398.3,67,391.5,75.3,391.5z M438.4,361.4H148.8
	l-3.8-30.1h296.9L438.4,361.4z M431.4,135.5h33.5l-19.5,165.6H141.3l-20.7-165.6H431.4z M346.3,451.8c8.3,0,15.1,6.8,15.1,15.1
	c0,8.3-6.8,15.1-15.1,15.1c-8.3,0-15-6.8-15-15.1C331.3,458.5,338,451.8,346.3,451.8z M120.5,451.8c8.3,0,15.1,6.8,15.1,15.1
	c0,8.3-6.8,15.1-15.1,15.1c-8.3,0-15.1-6.8-15.1-15.1C105.4,458.5,112.2,451.8,120.5,451.8z"/>
</svg>
