<?xml version="1.0" encoding="utf-8"?>
<!-- Generator: Adobe Illustrator 25.2.1, SVG Export Plug-In . SVG Version: 6.00 Build 0)  -->
<svg version="1.1" xmlns="http://www.w3.org/2000/svg" xmlns:xlink="http://www.w3.org/1999/xlink" x="0px" y="0px"
	 viewBox="0 0 498.8 512" style="enable-background:new 0 0 498.8 512;" xml:space="preserve">
<style type="text/css">
	.st0{fill:#FFFFFF;}
	.st1{display:none;}
	.st2{display:inline;fill:#FFFFFF;}
</style>
<g id="Layer_1" xmlns:svgjs="http://svgjs.com/svgjs">
	<g>
		<g>
			<path class="st0" d="M75.3,391.5h389.9l33.7-286.1h-78.1C413.3,46.1,362.5,0,301.2,0S189.1,46.1,181.6,105.4h-64.8L103.6,0H0
				v30.1h77.1l41.4,331.3H75.3c-24.9,0-45.2,20.3-45.2,45.2c0,24.9,20.3,45.2,45.2,45.2h2.6C67.5,481.1,89.4,512,120.5,512
				c31.2,0,53-30.9,42.6-60.2h140.7c-10.4,29.4,11.5,60.2,42.6,60.2c31.2,0,53-30.9,42.6-60.2h32.7v-30.1H75.3
				c-8.3,0-15.1-6.8-15.1-15.1C60.2,398.3,67,391.5,75.3,391.5L75.3,391.5z M148.8,361.4l-3.8-30.1h296.9l-3.5,30.1H148.8z
				 M301.2,30.1c49.8,0,90.4,40.5,90.4,90.4s-40.5,90.4-90.4,90.4s-90.4-40.5-90.4-90.4S251.4,30.1,301.2,30.1z M181.6,135.5
				c7.4,59.3,58.2,105.4,119.5,105.4s112.1-46.1,119.5-105.4h44.2l-19.5,165.6H141.3l-20.7-165.6H181.6z M135.5,466.8
				c0,8.3-6.8,15.1-15.1,15.1s-15.1-6.8-15.1-15.1c0-8.3,6.8-15.1,15.1-15.1S135.5,458.5,135.5,466.8z M361.4,466.8
				c0,8.3-6.8,15.1-15.1,15.1c-8.3,0-15.1-6.8-15.1-15.1c0-8.3,6.8-15.1,15.1-15.1C354.7,451.8,361.4,458.5,361.4,466.8z"/>
			<path class="st0" d="M341.9,139.9l-25.7-25.7V75.3h-30.1v51.4l34.5,34.5L341.9,139.9z"/>
		</g>
	</g>
</g>
<g id="Layer_3" class="st1">
	<path class="st2" d="M75.3,391.5h389.9l33.7-286.1h-67.4H116.8L103.6,0H0v30.1h77.1l41.4,331.3H75.3c-24.9,0-45.2,20.3-45.2,45.2
		c0,24.9,20.3,45.2,45.2,45.2h2.6C67.5,481.1,89.4,512,120.5,512c31.2,0,53-30.9,42.6-60.2h140.7c-10.4,29.4,11.5,60.2,42.6,60.2
		c31.2,0,53-30.9,42.6-60.2h32.7v-30.1H75.3c-8.3,0-15.1-6.8-15.1-15.1C60.2,398.3,67,391.5,75.3,391.5z M438.4,361.4H148.8
		l-3.8-30.1h296.9L438.4,361.4z M431.4,135.5h33.5l-19.5,165.6H141.3l-20.7-165.6H431.4z M346.3,451.8c8.3,0,15.1,6.8,15.1,15.1
		c0,8.3-6.8,15.1-15.1,15.1c-8.3,0-15-6.8-15-15.1C331.3,458.5,338,451.8,346.3,451.8z M120.5,451.8c8.3,0,15.1,6.8,15.1,15.1
		c0,8.3-6.8,15.1-15.1,15.1c-8.3,0-15.1-6.8-15.1-15.1C105.4,458.5,112.2,451.8,120.5,451.8z"/>
</g>
</svg>
