<?xml version="1.0" encoding="utf-8"?>
<!-- Generator: Adobe Illustrator 25.2.1, SVG Export Plug-In . SVG Version: 6.00 Build 0)  -->
<svg version="1.1" id="Layer_1" xmlns="http://www.w3.org/2000/svg" xmlns:xlink="http://www.w3.org/1999/xlink" x="0px" y="0px"
	 viewBox="0 0 210 210" style="enable-background:new 0 0 210 210;" xml:space="preserve">
<style type="text/css">
	.st0{fill:#222222;}
</style>
<g id="XMLID_2_">
	<path id="XMLID_4_" class="st0" d="M75,0H15C6.7,0,0,6.7,0,15v60c0,8.3,6.7,15,15,15h60c8.3,0,15-6.7,15-15V15C90,6.7,83.3,0,75,0z
		"/>
	<path id="XMLID_6_" class="st0" d="M75,120H15c-8.3,0-15,6.7-15,15v60c0,8.3,6.7,15,15,15h60c8.3,0,15-6.7,15-15v-60
		C90,126.7,83.3,120,75,120z"/>
	<path id="XMLID_8_" class="st0" d="M195,0h-60c-8.3,0-15,6.7-15,15v60c0,8.3,6.7,15,15,15h60c8.3,0,15-6.7,15-15V15
		C210,6.7,203.3,0,195,0z"/>
	<path id="XMLID_10_" class="st0" d="M195,120h-60c-8.3,0-15,6.7-15,15v60c0,8.3,6.7,15,15,15h60c8.3,0,15-6.7,15-15v-60
		C210,126.7,203.3,120,195,120z"/>
</g>
</svg>
