<?xml version="1.0" encoding="utf-8"?>
<!-- Generator: Adobe Illustrator 25.2.1, SVG Export Plug-In . SVG Version: 6.00 Build 0)  -->
<svg version="1.1" id="Layer_1" xmlns:svgjs="http://svgjs.com/svgjs"
	 xmlns="http://www.w3.org/2000/svg" xmlns:xlink="http://www.w3.org/1999/xlink" x="0px" y="0px" viewBox="0 0 512 512"
	 style="enable-background:new 0 0 512 512;" xml:space="preserve">
<style type="text/css">
	.st0{fill:#7F7F7F;}
</style>
<path class="st0" d="M255.5,3.5c14.3,0,25.9,11.6,25.9,25.9c0,6.9-2.7,13.4-7.6,18.3L67.9,253.5l205.9,205.8
	c10.1,10.1,10.1,26.5,0,36.6c-10.1,10.1-26.5,10.1-36.6,0L13.1,271.8C3,261.7,3,245.3,13.1,235.2l0,0L237.2,11.1
	C242.1,6.2,248.6,3.5,255.5,3.5L255.5,3.5z M461.3,11.1L237.2,235.2c-10.1,10.1-10.1,26.5,0,36.6l0,0l224.1,224.1
	c10.1,10.1,26.5,10.1,36.6,0c10.1-10.1,10.1-26.5,0-36.6L292.1,253.5L497.9,47.7c10.1-10.1,10.1-26.5,0-36.6S471.4,1,461.3,11.1
	L461.3,11.1L461.3,11.1z"/>
</svg>
