<?xml version="1.0" encoding="utf-8"?>
<!-- Generator: Adobe Illustrator 25.2.1, SVG Export Plug-In . SVG Version: 6.00 Build 0)  -->
<svg version="1.1" id="Layer_1" xmlns:svgjs="http://svgjs.com/svgjs"
	 xmlns="http://www.w3.org/2000/svg" xmlns:xlink="http://www.w3.org/1999/xlink" x="0px" y="0px" viewBox="0 0 512 512"
	 style="enable-background:new 0 0 512 512;" xml:space="preserve">
<style type="text/css">
	.st0{fill:#FFFFFF;}
</style>
<g>
	<path class="st0" d="M25.5,263.9l244.9,244.9c2.1,2.1,4.9,3.3,7.9,3.3h200.3c6.1,0,11.1-5,11.2-11.1c0-3-1.2-5.8-3.3-7.9l-237-237
		l237-237c4.4-4.3,4.4-11.4,0-15.7c-2.1-2.1-4.9-3.3-7.9-3.3H278.3c-3,0-5.8,1.2-7.9,3.3L25.5,248.1
		C21.2,252.5,21.1,259.5,25.5,263.9C25.5,263.9,25.5,263.9,25.5,263.9z"/>
</g>
</svg>
