<?xml version="1.0" encoding="utf-8"?>
<!-- Generator: Adobe Illustrator 25.2.1, SVG Export Plug-In . SVG Version: 6.00 Build 0)  -->
<svg version="1.1" id="Layer_1" xmlns:svgjs="http://svgjs.com/svgjs"
	 xmlns="http://www.w3.org/2000/svg" xmlns:xlink="http://www.w3.org/1999/xlink" x="0px" y="0px" viewBox="0 0 512 512"
	 style="enable-background:new 0 0 512 512;" xml:space="preserve">
<style type="text/css">
	.st0{fill:none;}
	.st1{fill:#A0A0A0;}
</style>
<path class="st0" d="M437,75C337-25,174.9-25,75,75C-25,175-25,337.1,75,437c100,100,262,100,362,0C537,337.1,537,175,437,75z
	 M406.8,406.8c-83.3,83.3-218.4,83.3-301.7,0s-83.3-218.4,0-301.7s218.4-83.3,301.7,0S490.2,323.5,406.8,406.8z"/>
<g>
	<path class="st1" d="M369.6,324.9h-12c-3.3,0-6-2.7-6-6s2.7-6,6-6h29.9c6.6,0,12-5.4,12-12s-5.4-12-12-12h-11.8v-12
		c0-6.6-5.4-12-12-12s-12,5.4-12,12v12.5c-13.7,2.7-24,14.8-24,29.3c0,16.5,13.4,29.9,29.9,29.9h12c3.3,0,6,2.7,6,6s-2.7,6-6,6
		h-29.9c-6.6,0-12,5.4-12,12c0,6.6,5.4,12,12,12h12.1v12c0,6.6,5.4,12,12,12s12-5.4,12-12V384c13.6-2.8,23.8-14.9,23.8-29.2
		C399.5,338.3,386.1,324.9,369.6,324.9z"/>
	<path class="st1" d="M234.8,121.7l-58.1,0.2c-7.5,0-14.6,4.2-18.2,10.8l-30.4,55l100.7-0.2L234.8,121.7z"/>
	<path class="st1" d="M359.8,187.2l-30.7-55c-3.7-6.6-10.6-10.8-18.3-10.8l-58.1,0.2l6.1,65.7L359.8,187.2z"/>
	<path class="st1" d="M363.6,241.2c-18.8,0.1-34.1,14.5-35.6,32.9c-14.7,9.7-24.1,26.4-24.1,44.8c0,11.1,3.3,21.4,9.1,29.9
		c-3,3.5-5.4,7.4-6.9,11.8l-162.2,0.5c-0.1,0-0.1,0-0.1,0c-10.3,0-18.8-8.5-18.8-18.9l-0.5-136.6l110.5-0.2H253l110.5-0.4
		L363.6,241.2z"/>
</g>
</svg>
