<?xml version="1.0" encoding="utf-8"?>
<!-- Generator: Adobe Illustrator 25.2.1, SVG Export Plug-In . SVG Version: 6.00 Build 0)  -->
<svg version="1.1" id="Layer_1" xmlns:svgjs="http://svgjs.com/svgjs"
	 xmlns="http://www.w3.org/2000/svg" xmlns:xlink="http://www.w3.org/1999/xlink" x="0px" y="0px" viewBox="0 0 512 512"
	 style="enable-background:new 0 0 512 512;" xml:space="preserve">
<style type="text/css">
	.st0{fill:#222222;}
</style>
<g>
	<path class="st0" d="M256,0C158.2,0,78.6,79.6,78.6,177.4c0,123,177.6,333,177.6,333s177.2-216.1,177.2-333
		C433.4,79.6,353.8,0,256,0z M309.5,229.4c-14.8,14.8-34.1,22.1-53.5,22.1s-38.8-7.4-53.5-22.1c-29.5-29.5-29.5-77.5,0-107.1
		c14.3-14.3,33.3-22.2,53.5-22.2s39.2,7.9,53.5,22.2C339.1,151.8,339.1,199.9,309.5,229.4z"/>
</g>
</svg>
