<?xml version="1.0" encoding="utf-8"?>
<!-- Generator: Adobe Illustrator 25.2.1, SVG Export Plug-In . SVG Version: 6.00 Build 0)  -->
<svg version="1.1" id="Solid" xmlns="http://www.w3.org/2000/svg" xmlns:xlink="http://www.w3.org/1999/xlink" x="0px" y="0px"
	 viewBox="0 0 512 512" style="enable-background:new 0 0 512 512;" xml:space="preserve">
<path d="M256,24c13.3,0,24,10.7,24,24c0,6.4-2.5,12.5-7,17l-191,191l191,191c9.4,9.4,9.4,24.6,0,33.9c-9.4,9.4-24.6,9.4-33.9,0
	L31,273c-9.4-9.4-9.4-24.6,0-33.9c0,0,0,0,0,0L239,31C243.5,26.5,249.6,24,256,24L256,24z M447,31L239,239c-9.4,9.4-9.4,24.6,0,33.9
	c0,0,0,0,0,0l208,208c9.4,9.4,24.6,9.4,33.9,0c9.4-9.4,9.4-24.6,0-33.9l-191-191L481,65c9.4-9.4,9.4-24.6,0-33.9S456.4,21.7,447,31
	L447,31L447,31z"/>
</svg>
