<?xml version="1.0" encoding="utf-8"?>
<!-- Generator: Adobe Illustrator 25.2.1, SVG Export Plug-In . SVG Version: 6.00 Build 0)  -->
<svg version="1.1" id="Layer_1" xmlns:svgjs="http://svgjs.com/svgjs"
	 xmlns="http://www.w3.org/2000/svg" xmlns:xlink="http://www.w3.org/1999/xlink" x="0px" y="0px" viewBox="0 0 512 512"
	 style="enable-background:new 0 0 512 512;" xml:space="preserve">
<style type="text/css">
	.st0{fill:none;}
</style>
<path class="st0" d="M437,75C337-25,174.9-25,75,75C-25,175-25,337.1,75,437c100,100,262,100,362,0C537,337.1,537,175,437,75z
	 M406.8,406.8c-83.3,83.3-218.4,83.3-301.7,0s-83.3-218.4,0-301.7s218.4-83.3,301.7,0S490.2,323.5,406.8,406.8z"/>
<g>
	<g>
		<path d="M384.1,162.9c-5.2-5.2-13.5-5.2-18.7,0L207.3,321.1l-60.8-60.8c-5.2-5.2-13.5-5.2-18.7,0c-5.2,5.2-5.2,13.5,0,18.7
			l70.1,70.1c5.2,5.2,13.5,5.2,18.7,0l167.5-167.5C389.3,176.4,389.3,168.1,384.1,162.9z"/>
	</g>
</g>
</svg>
