<?xml version="1.0" encoding="utf-8"?>
<!-- Generator: Adobe Illustrator 25.2.1, SVG Export Plug-In . SVG Version: 6.00 Build 0)  -->
<svg version="1.1" id="Layer_1" xmlns:svgjs="http://svgjs.com/svgjs"
	 xmlns="http://www.w3.org/2000/svg" xmlns:xlink="http://www.w3.org/1999/xlink" x="0px" y="0px" viewBox="0 0 512 512"
	 style="enable-background:new 0 0 512 512;" xml:space="preserve">
<style type="text/css">
	.st0{fill:#17A2B8;}
</style>
<g>
	<g>
		<g>
			<path class="st0" d="M61.4,4.6c-33,0-59.9,26.9-59.9,59.9s26.8,59.9,59.9,59.9s59.9-26.9,59.9-59.9S94.5,4.6,61.4,4.6z"/>
			<path class="st0" d="M255.2,4.6c-33,0-59.9,26.9-59.9,59.9s26.9,59.9,59.9,59.9s59.9-26.9,59.9-59.9S288.2,4.6,255.2,4.6z"/>
			<path class="st0" d="M452.1,124.3c33,0,59.9-26.9,59.9-59.9S485.2,4.6,452.1,4.6s-59.9,26.9-59.9,59.9S419.1,124.3,452.1,124.3z"
				/>
			<path class="st0" d="M59.9,316.2c33,0,59.9-26.9,59.9-59.9s-26.9-59.9-59.9-59.9S0,223.3,0,256.3S26.9,316.2,59.9,316.2z"/>
			<path class="st0" d="M253.7,316.2c33,0,59.9-26.9,59.9-59.9s-26.8-59.9-59.9-59.9c-33,0-59.9,26.9-59.9,59.9
				C193.8,289.3,220.6,316.2,253.7,316.2z"/>
			<path class="st0" d="M450.6,316.2c33,0,59.9-26.9,59.9-59.9s-26.9-59.9-59.9-59.9s-59.9,26.9-59.9,59.9S417.6,316.2,450.6,316.2z
				"/>
			<path class="st0" d="M61.3,387.7c-33,0-59.9,26.9-59.9,59.9s26.9,59.9,59.9,59.9s59.9-26.8,59.9-59.9S94.3,387.7,61.3,387.7z"/>
			<path class="st0" d="M255,387.7c-33,0-59.9,26.9-59.9,59.9s26.9,59.9,59.9,59.9s59.9-26.8,59.9-59.9S288,387.7,255,387.7z"/>
			<path class="st0" d="M451.9,387.7c-33,0-59.9,26.9-59.9,59.9s26.9,59.9,59.9,59.9s59.9-26.8,59.9-59.9S484.9,387.7,451.9,387.7z"
				/>
		</g>
	</g>
</g>
</svg>
