<?xml version="1.0" encoding="utf-8"?>
<!-- Generator: Adobe Illustrator 25.2.1, SVG Export Plug-In . SVG Version: 6.00 Build 0)  -->
<svg version="1.1" id="Layer_1" xmlns:svgjs="http://svgjs.com/svgjs"
	 xmlns="http://www.w3.org/2000/svg" xmlns:xlink="http://www.w3.org/1999/xlink" x="0px" y="0px" viewBox="0 0 512 512"
	 style="enable-background:new 0 0 512 512;" xml:space="preserve">
<style type="text/css">
	.st0{fill:#2E2E2E;}
</style>
<g>
	<g>
		<g>
			<path class="st0" d="M92.6,44.9c-27.7,0-50.3,22.6-50.3,50.3s22.5,50.3,50.3,50.3s50.3-22.6,50.3-50.3S120.4,44.9,92.6,44.9z"/>
			<path class="st0" d="M255.3,44.9c-27.7,0-50.3,22.6-50.3,50.3s22.6,50.3,50.3,50.3s50.3-22.6,50.3-50.3S283,44.9,255.3,44.9z"/>
			<path class="st0" d="M420.7,145.4c27.7,0,50.3-22.6,50.3-50.3s-22.5-50.2-50.3-50.2s-50.3,22.6-50.3,50.3S393,145.4,420.7,145.4z
				"/>
			<path class="st0" d="M91.3,306.6c27.7,0,50.3-22.6,50.3-50.3S119,206,91.3,206S41,228.5,41,256.3S63.6,306.6,91.3,306.6z"/>
			<path class="st0" d="M254.1,306.6c27.7,0,50.3-22.6,50.3-50.3S281.9,206,254.1,206c-27.7,0-50.3,22.6-50.3,50.3
				C203.8,284,226.3,306.6,254.1,306.6z"/>
			<path class="st0" d="M419.4,306.6c27.7,0,50.3-22.6,50.3-50.3S447.1,206,419.4,206s-50.3,22.6-50.3,50.3S391.7,306.6,419.4,306.6
				z"/>
			<path class="st0" d="M92.5,366.6c-27.7,0-50.3,22.6-50.3,50.3s22.6,50.3,50.3,50.3s50.3-22.5,50.3-50.3
				C142.8,389.1,120.2,366.6,92.5,366.6z"/>
			<path class="st0" d="M255.2,366.6c-27.7,0-50.3,22.6-50.3,50.3s22.6,50.3,50.3,50.3s50.3-22.5,50.3-50.3
				C305.5,389.1,282.9,366.6,255.2,366.6z"/>
			<path class="st0" d="M420.5,366.6c-27.7,0-50.3,22.6-50.3,50.3s22.6,50.3,50.3,50.3s50.3-22.5,50.3-50.3
				C470.8,389.1,448.2,366.6,420.5,366.6z"/>
		</g>
	</g>
</g>
</svg>
