<?xml version="1.0" encoding="utf-8"?>
<!-- Generator: Adobe Illustrator 25.2.1, SVG Export Plug-In . SVG Version: 6.00 Build 0)  -->
<svg version="1.1" id="Layer_1" xmlns="http://www.w3.org/2000/svg" xmlns:xlink="http://www.w3.org/1999/xlink" x="0px" y="0px"
	 viewBox="0 0 492 492" style="enable-background:new 0 0 492 492;" xml:space="preserve">
<style type="text/css">
	.st0{fill:#AC9967;}
</style>
<path class="st0" d="M14.2,163.3L201.9,351l21.8,21.8c5.4,5.4,12.3,8.4,19.3,9.1c1,0.1,2.2,0.1,3.2,0.1c0.3,0,0.7,0,1,0
	c7.6-0.3,15.2-3.2,21.1-9.1l21.8-22l165.8-165.6l21.8-22c6.2-6.2,9.3-14.2,9.3-22.3c0-7.9-3.1-15.8-9.2-22c-6.2-6-14.1-9.1-22.1-9.1
	s-16,3.1-22.1,9.1l-22,22L246,307L80.2,141.1l-21.8-21.8c-6.2-6-14.1-9.1-22.1-9.1s-16,3.1-22.1,9.1c-6,6-9.1,13.9-9.1,21.8l0,0
	C5,149.3,7.9,157.3,14.2,163.3z"/>
</svg>
