<?xml version="1.0" encoding="utf-8"?>
<!-- Generator: Adobe Illustrator 25.2.1, SVG Export Plug-In . SVG Version: 6.00 Build 0)  -->
<svg version="1.1" id="Layer_1" xmlns="http://www.w3.org/2000/svg" xmlns:xlink="http://www.w3.org/1999/xlink" x="0px" y="0px"
	 viewBox="0 0 492 492" style="enable-background:new 0 0 492 492;" xml:space="preserve">
<style type="text/css">
	.st0{fill:#222222;}
</style>
<path class="st0" d="M246.2,372c-0.7,0-1.7,0-2.2-0.1c-5-0.5-9.7-2.7-13.2-6.2L21.1,156.1c-3.9-3.8-6.1-9.1-6-14.9l0-0.1
	c0-5.5,2.2-10.7,6.2-14.7c4-4,9.4-6.2,15-6.2c5.6,0,10.9,2.2,15.1,6.2l21.7,21.7l172.9,173L418.5,148l22-22c4-4,9.4-6.2,15-6.2
	c5.5,0,10.9,2.2,15.1,6.2c4,4.1,6.2,9.4,6.2,14.9c0,5.8-2.2,11.2-6.3,15.2l-21.8,22L283,343.8l-21.8,22c-3.7,3.7-8.7,5.9-14.2,6.1
	H246.2z"/>
</svg>
