<?xml version="1.0" encoding="utf-8"?>
<!-- Generator: Adobe Illustrator 25.2.1, SVG Export Plug-In . SVG Version: 6.00 Build 0)  -->
<svg version="1.1" id="Capa_1" xmlns="http://www.w3.org/2000/svg" xmlns:xlink="http://www.w3.org/1999/xlink" x="0px" y="0px"
	 viewBox="0 0 512 512" style="enable-background:new 0 0 512 512;" xml:space="preserve">
<style type="text/css">
	.st0{fill:#222222;}
</style>
<g id="XMLID_2019_">
	<g id="XMLID_1056_">
		<path id="XMLID_1322_" class="st0" d="M509.1,166.9L458,115.9V10c0-5.5-4.5-10-10-10H300.7c-5.5,0-10,4.5-10,10s4.5,10,10,10H438
			v203.9L255.6,406.3L74,224.8V20h136.7c5.5,0,10-4.5,10-10s-4.5-10-10-10H64c-5.5,0-10,4.5-10,10v105.9L2.9,166.9
			C1.1,168.8,0,171.3,0,174v288c0,27.6,22.4,50,50,50h412c27.6,0,50-22.4,50-50V174C512,171.3,510.9,168.8,509.1,166.9z M492,462
			c0,4.6-1.1,9-2.9,12.9L352.1,338L492,198.1V462z M458,144.1l29.9,29.9L458,203.9V144.1z M22.9,474.9C21.1,471,20,466.6,20,462V199
			l139.4,139.4L22.9,474.9z M54,204.8l-30.3-30.3L54,144.1V204.8z M50,492c-4.6,0-9-1.1-12.9-2.9l136.5-136.5l74.9,74.9
			c1.9,1.9,4.4,2.9,7.1,2.9c2.7,0,5.2-1.1,7.1-2.9l75.4-75.4l136.9,136.9c-3.9,1.9-8.3,2.9-12.9,2.9L50,492L50,492z"/>
		<path id="XMLID_1377_" class="st0" d="M255.7,20c2.6,0,5.2-1.1,7.1-2.9c1.9-1.9,2.9-4.4,2.9-7.1s-1.1-5.2-2.9-7.1S258.3,0,255.7,0
			c-2.6,0-5.2,1.1-7.1,2.9c-1.9,1.9-2.9,4.4-2.9,7.1s1.1,5.2,2.9,7.1S253,20,255.7,20z"/>
		<path id="XMLID_1555_" class="st0" d="M161.4,121.2c-13.6,24.7-17.1,53.1-10,80c6.1,23.3,19.4,43.5,38.3,58.2
			c18.2,14.2,41,22.4,64,23c0.1,0,0.2,0,0.3,0c5.4,0,9.8-4.3,10-9.7c0.2-5.5-4.2-10.1-9.7-10.3c-39.2-1.1-73.5-28.4-83.5-66.4
			c-12-45.8,13.9-92.8,59-107.2c22.9-7.3,47.2-5.1,68.4,6c21.2,11.2,36.7,29.9,43.6,52.8c4.4,16.7,3,32.2-4.8,51.8
			c-2.2,5.6-9.1,18.6-25.2,18.6c-2.5,0-5.1-1.2-7.2-3.3c-2.9-2.9-4.5-6.9-4.5-11.1V121c0-5.5-4.5-10-10-10c-5.5,0-10,4.5-10,10v3.2
			c-7.8-6.5-17.5-10.2-28.4-10.2c-25.3,0-51.4,21.9-51.4,58.5c0,16.1,5.1,31.3,14.4,42.6c9.4,11.5,22.5,18,35.9,18
			c12.6,0,23.9-5.5,32.5-14.8c1.7,3.9,4.2,7.5,7.2,10.6c5.9,5.9,13.5,9.2,21.4,9.2c23.1,0,37.7-16.1,43.7-31.2
			c9.4-23.6,11.1-43.5,5.5-64.5c0-0.1-0.1-0.2-0.1-0.3c-8.5-28.1-27.5-51.2-53.5-64.9c-26-13.7-55.8-16.3-83.8-7.4
			C197.1,78.3,175,96.5,161.4,121.2L161.4,121.2z M250.7,213.2c-16.7,0-30.3-18.2-30.3-40.6c0-24.1,16-38.5,31.4-38.5
			c16.6,0,28.2,15.7,28.2,38.2C280,194.8,266.8,213.2,250.7,213.2L250.7,213.2z"/>
	</g>
</g>
</svg>
