<?xml version="1.0" encoding="utf-8"?>
<!-- Generator: Adobe Illustrator 25.2.1, SVG Export Plug-In . SVG Version: 6.00 Build 0)  -->
<svg version="1.1" id="Layer_1" xmlns:svgjs="http://svgjs.com/svgjs"
	 xmlns="http://www.w3.org/2000/svg" xmlns:xlink="http://www.w3.org/1999/xlink" x="0px" y="0px" viewBox="0 0 512 512"
	 style="enable-background:new 0 0 512 512;" xml:space="preserve">
<style type="text/css">
	.st0{fill:#222222;}
</style>
<g>
	<path class="st0" d="M17,86h49.3c5,22.3,25,39,48.8,39c23.8,0,43.8-16.7,48.8-39H495c6.1,0,11-4.9,11-11c0-6.1-4.9-11-11-11H163.9
		c-5-22.3-25-39-48.8-39c-23.8,0-43.8,16.7-48.8,39H17c-6.1,0-11,4.9-11,11C6,81,10.9,86,17,86z M87.1,75c0-3.9,0.8-7.6,2.2-11
		c4.3-10,14.2-17,25.8-17s21.5,7,25.8,17c1.5,3.4,2.2,7.1,2.2,11c0,3.9-0.8,7.6-2.2,11c-4.3,10-14.2,17-25.8,17s-21.5-7-25.8-17
		C87.9,82.6,87.1,78.8,87.1,75z"/>
	<path class="st0" d="M495,245h-74.9c-5-22.3-25-39-48.8-39c-23.8,0-43.8,16.7-48.8,39H17c-6.1,0-11,4.9-11,11s4.9,11,11,11h305.6
		c5,22.3,25,39,48.8,39c23.8,0,43.8-16.7,48.8-39H495c6.1,0,11-4.9,11-11S501.1,245,495,245z M399.4,256c0,3.9-0.8,7.6-2.2,11
		c-4.3,10-14.2,17-25.8,17c-11.5,0-21.5-7-25.8-17c-1.5-3.4-2.2-7.1-2.2-11s0.8-7.6,2.2-11c4.3-10,14.2-17,25.8-17
		c11.5,0,21.5,7,25.8,17C398.6,248.4,399.4,252.1,399.4,256z"/>
	<path class="st0" d="M495,426H241.9c-5-22.3-25-39-48.8-39c-23.8,0-43.8,16.7-48.8,39H17c-6.1,0-11,4.9-11,11c0,6.1,4.9,11,11,11
		h127.4c5,22.3,25,39,48.8,39c23.8,0,43.8-16.7,48.8-39H495c6.1,0,11-4.9,11-11C506,431,501.1,426,495,426z M221.2,437
		c0,3.9-0.8,7.6-2.2,11c-4.3,10-14.2,17-25.8,17c-11.6,0-21.5-7-25.8-17c-1.5-3.4-2.2-7.1-2.2-11c0-3.9,0.8-7.6,2.2-11
		c4.3-10,14.2-17,25.8-17c11.5,0,21.5,7,25.8,17C220.4,429.4,221.2,433.2,221.2,437z"/>
</g>
</svg>
