<?xml version="1.0" encoding="utf-8"?>
<!-- Generator: Adobe Illustrator 25.2.1, SVG Export Plug-In . SVG Version: 6.00 Build 0)  -->
<svg version="1.1" id="Layer_1" xmlns="http://www.w3.org/2000/svg" xmlns:xlink="http://www.w3.org/1999/xlink" x="0px" y="0px"
	 viewBox="0 0 356.6 49.2" style="enable-background:new 0 0 356.6 49.2;" xml:space="preserve">
<style type="text/css">
	.st0{fill:#62D7CE;}
</style>
<g>
	<polygon class="st0" points="24.3,4 31,17.6 45.9,19.7 35.1,30.3 37.6,45.2 24.3,38.1 10.9,45.2 13.5,30.3 2.7,19.7 17.6,17.6 	"/>
	<polygon class="st0" points="101.3,4 108,17.6 122.9,19.7 112.1,30.3 114.7,45.2 101.3,38.1 87.9,45.2 90.5,30.3 79.7,19.7 
		94.6,17.6 	"/>
	<polygon class="st0" points="178.3,4 185,17.6 199.9,19.7 189.1,30.3 191.7,45.2 178.3,38.1 164.9,45.2 167.5,30.3 156.7,19.7 
		171.6,17.6 	"/>
	<polygon class="st0" points="255.3,4 262,17.6 276.9,19.7 266.1,30.3 268.7,45.2 255.3,38.1 241.9,45.2 244.5,30.3 233.7,19.7 
		248.6,17.6 	"/>
	<polygon class="st0" points="332.3,4 339,17.6 353.9,19.7 343.1,30.3 345.7,45.2 332.3,38.1 318.9,45.2 321.5,30.3 310.7,19.7 
		325.6,17.6 	"/>
</g>
</svg>
