<?xml version="1.0" encoding="utf-8"?>
<!-- Generator: Adobe Illustrator 25.2.1, SVG Export Plug-In . SVG Version: 6.00 Build 0)  -->
<svg version="1.1" id="Solid" xmlns="http://www.w3.org/2000/svg" xmlns:xlink="http://www.w3.org/1999/xlink" x="0px" y="0px"
	 viewBox="0 0 512 512" style="enable-background:new 0 0 512 512;" xml:space="preserve">
<style type="text/css">
	.st0{fill:#FFFFFF;}
</style>
<path class="st0" d="M256,488c-13.3,0-24-10.7-24-24c0-6.4,2.5-12.5,7-17l191-191L239,65c-9.4-9.4-9.4-24.6,0-33.9
	c9.4-9.4,24.6-9.4,33.9,0l208,208c9.4,9.4,9.4,24.6,0,33.9c0,0,0,0,0,0L273,481C268.5,485.5,262.4,488,256,488L256,488z M65,481
	l208-208c9.4-9.4,9.4-24.6,0-33.9c0,0,0,0,0,0L65,31c-9.4-9.4-24.6-9.4-33.9,0S21.7,55.6,31,65l191,191L31,447
	c-9.4,9.4-9.4,24.6,0,33.9S55.6,490.3,65,481L65,481L65,481z"/>
</svg>
