<?xml version="1.0" encoding="utf-8"?>
<!-- Generator: Adobe Illustrator 25.2.1, SVG Export Plug-In . SVG Version: 6.00 Build 0)  -->
<svg version="1.1" id="Layer_1" xmlns="http://www.w3.org/2000/svg" xmlns:xlink="http://www.w3.org/1999/xlink" x="0px" y="0px"
	 viewBox="0 0 512 512" style="enable-background:new 0 0 512 512;" xml:space="preserve">
<style type="text/css">
	.st0{fill:#222222;}
</style>
<g id="Outline">
	<path class="st0" d="M72,328c-13.3,0-24,10.7-24,24s10.7,24,24,24s24-10.7,24-24C96,338.8,85.2,328,72,328z M72,360
		c-4.4,0-8-3.6-8-8s3.6-8,8-8s8,3.6,8,8C80,356.4,76.4,360,72,360z"/>
	<path class="st0" d="M376,328c-13.3,0-24,10.7-24,24s10.7,24,24,24s24-10.7,24-24C400,338.8,389.2,328,376,328z M376,360
		c-4.4,0-8-3.6-8-8s3.6-8,8-8s8,3.6,8,8C384,356.4,380.4,360,376,360z"/>
	<path class="st0" d="M432,352c0-30.9-25.1-56-56-56c-0.3,0-0.6,0-1,0c-30.4,0.5-55,26-55,56.8v26.9c-21.9-6-53.9-11.7-96-11.7
		s-74.1,5.7-96,11.7V352c0-30.9-25.1-56-56-56c-0.7,0-1.4,0-2.2,0c-29.2,1.2-52.6,24.6-53.8,53.8c-1.1,28.6,19.6,53.5,48,57.6V440
		c0,17.7,14.3,32,32,32v24c0,4.4,3.6,8,8,8h24c3,0,5.8-1.7,7.2-4.4l13.8-27.6h150.1l13.8,27.6c1.4,2.7,4.1,4.4,7.2,4.4h24
		c4.4,0,8-3.6,8-8v-24c17.7,0,32-14.3,32-32v-32.6C411.5,403.4,432,379.8,432,352z M123.1,488H112v-16h19.1L123.1,488z M336,488
		h-11.1l-8-16H336V488z M376,392c-4.4,0-8,3.6-8,8v40c0,8.8-7.2,16-16,16H96c-8.8,0-16-7.2-16-16v-40c0-4.4-3.6-8-8-8
		c-22.1,0-40-17.9-40-40c0-0.5,0-1,0-1.6c0.9-20.8,17.6-37.5,38.4-38.4c22.1-0.9,40.7,16.3,41.5,38.4c0,0.5,0,1,0,1.6v32.6
		c-12.6,4.4-19.2,8-19.9,8.4l7.8,14c0.4-0.2,42.3-23,124.1-23s123.7,22.8,124.1,23l7.8-13.9c-0.7-0.4-7.3-4-19.9-8.4v-31.8
		c0-22.1,17.6-40.4,39.3-40.8c22.1-0.4,40.3,17.2,40.7,39.3c0.4,22.1-17.2,40.3-39.3,40.7C376.5,392,376.2,392,376,392z"/>
	<path class="st0" d="M80,240c0-8.8,7.2-16,16-16h256c8.8,0,16,7.2,16,16v40h16v-40c0-17.7-14.3-32-32-32H96c-17.7,0-32,14.3-32,32
		v40h16V240z"/>
	<path class="st0" d="M176,256h16v16h-16V256z"/>
	<path class="st0" d="M216,296h16v16h-16V296z"/>
	<path class="st0" d="M136,296h16v16h-16V296z"/>
	<path class="st0" d="M176,336h16v16h-16V336z"/>
	<path class="st0" d="M256,256h16v16h-16V256z"/>
	<path class="st0" d="M296,296h16v16h-16V296z"/>
	<path class="st0" d="M256,336h16v16h-16V336z"/>
	<path class="st0" d="M464,8H240c-17.7,0-32,14.3-32,32v8h16v-8c0-8.8,7.2-16,16-16h104v168h16V24h104c8.8,0,16,7.2,16,16v400
		c0,8.8-7.2,16-16,16h-72v16h19.1l13.8,27.6c1.4,2.7,4.1,4.4,7.2,4.4h24c4.4,0,8-3.6,8-8v-24c17.7,0,32-14.3,32-32V40
		C496,22.3,481.7,8,464,8z M448,488h-11.1l-8-16H448V488z"/>
	<path class="st0" d="M72,176h72v16h16v-16h72c4.4,0,8-3.6,8-8c0-0.2,0-0.4,0-0.7l-8-96c-0.3-4.1-3.8-7.3-8-7.3h-64V48h-16v16H80
		c-4.2,0-7.6,3.2-8,7.3l-8,96c-0.4,4.4,2.9,8.3,7.3,8.6C71.6,176,71.8,176,72,176z M87.4,80h129.3l6.7,80H80.7L87.4,80z"/>
</g>
</svg>
