<?xml version="1.0" encoding="utf-8"?>
<!-- Generator: Adobe Illustrator 25.2.1, SVG Export Plug-In . SVG Version: 6.00 Build 0)  -->
<svg version="1.1" id="Capa_1" xmlns="http://www.w3.org/2000/svg" xmlns:xlink="http://www.w3.org/1999/xlink" x="0px" y="0px"
	 viewBox="0 0 495.2 495.2" style="enable-background:new 0 0 495.2 495.2;" xml:space="preserve">
<style type="text/css">
	.st0{fill:#E3494F;}
	.st1{fill:#FFFFFF;}
</style>
<circle class="st0" cx="247.6" cy="247.6" r="296.5"/>
<g>
	<g>
		<circle class="st1" cx="192.8" cy="125.1" r="48"/>
		<circle class="st1" cx="315.8" cy="125.1" r="45.5"/>
		<path class="st1" d="M301.8,271.2V290h-218v-18.8c0-40.9,33.2-74.1,74.1-74.1h69.9C268.7,197.1,301.8,230.3,301.8,271.2z"/>
		<path class="st1" d="M411.3,263.2V280h-91.1l0.6-14.6c1.3-31.1-17.2-58.2-43.8-68.1c1.9-0.2,3.9-0.3,5.9-0.3h62.4
			C381.8,197.1,411.3,226.7,411.3,263.2z"/>
	</g>
	<g>
		<rect x="191.3" y="351.8" class="st1" width="117" height="31"/>
		<polygon class="st1" points="200.8,316.5 200.8,418.1 150,367.3 		"/>
		<polygon class="st1" points="294.4,316.5 294.3,418.1 345.2,367.3 		"/>
	</g>
</g>
</svg>
