<?xml version="1.0" encoding="utf-8"?>
<!-- Generator: Adobe Illustrator 25.2.1, SVG Export Plug-In . SVG Version: 6.00 Build 0)  -->
<svg version="1.1" id="Layer_1" xmlns:svgjs="http://svgjs.com/svgjs"
	 xmlns="http://www.w3.org/2000/svg" xmlns:xlink="http://www.w3.org/1999/xlink" x="0px" y="0px" viewBox="0 0 512 512"
	 style="enable-background:new 0 0 512 512;" xml:space="preserve">
<style type="text/css">
	.st0{fill:#222222;}
</style>
<g>
	<g>
		<g>
			<path class="st0" d="M411.8,389.6c-30.7,0-55.7,25-55.7,55.7s25,55.7,55.7,55.7s55.7-25,55.7-55.7S442.5,389.6,411.8,389.6z
				 M411.8,478.6c-18.4,0-33.4-15-33.4-33.4s15-33.4,33.4-33.4s33.4,15,33.4,33.4S430.2,478.6,411.8,478.6z"/>
		</g>
	</g>
	<g>
		<g>
			<path class="st0" d="M189.2,389.6c-30.7,0-55.7,25-55.7,55.7s25,55.7,55.7,55.7s55.7-25,55.7-55.7S219.9,389.6,189.2,389.6z
				 M189.2,478.6c-18.4,0-33.4-15-33.4-33.4s15-33.4,33.4-33.4s33.4,15,33.4,33.4S207.6,478.6,189.2,478.6z"/>
		</g>
	</g>
	<g>
		<g>
			<path class="st0" d="M456.3,345H199.4c-26.4,0-49.4-18.8-54.6-44.7l-56-280.2c-1-5.2-5.6-8.9-10.9-8.9H11.1C5,11.1,0,16.1,0,22.3
				s5,11.1,11.1,11.1h57.7L123,304.7c7.3,36.3,39.4,62.6,76.4,62.6h256.9c6.1,0,11.1-5,11.1-11.1C467.5,350,462.5,345,456.3,345z"/>
		</g>
	</g>
	<g>
		<g>
			<path class="st0" d="M509.2,81.7c-2.1-2.4-5.1-3.8-8.3-3.8H100.2C94,77.9,89,82.9,89,89s5,11.1,11.1,11.1h388.1l-15.8,126.6
				c-2.1,16.7-16.3,29.3-33.1,29.3H133.6c-6.1,0-11.1,5-11.1,11.1s5,11.1,11.1,11.1h305.7c28,0,51.8-20.9,55.2-48.8l17.4-139.1
				C512.3,87.3,511.3,84.1,509.2,81.7z"/>
		</g>
	</g>
</g>
</svg>
