<?xml version="1.0" encoding="utf-8"?>
<!-- Generator: Adobe Illustrator 25.2.1, SVG Export Plug-In . SVG Version: 6.00 Build 0)  -->
<svg version="1.1" id="Capa_1" xmlns="http://www.w3.org/2000/svg" xmlns:xlink="http://www.w3.org/1999/xlink" x="0px" y="0px"
	 viewBox="0 0 513.3 513.3" style="enable-background:new 0 0 513.3 513.3;" xml:space="preserve">
<style type="text/css">
	.st0{fill:#222222;}
</style>
<g>
	<g>
		<g>
			<path class="st0" d="M256.7,257.3c-135.3,0-245.3,110.1-245.3,245.3c0,5.9,4.8,10.7,10.7,10.7s10.7-4.8,10.7-10.7
				c0-123.5,100.5-224,224-224s224,100.5,224,224c0,5.9,4.8,10.7,10.7,10.7s10.7-4.8,10.7-10.7C502,367.4,391.9,257.3,256.7,257.3z"
				/>
		</g>
	</g>
	<g>
		<g>
			<path class="st0" d="M256.7,0C192,0,139.3,52.6,139.3,117.3S192,234.7,256.7,234.7S374,182,374,117.3S321.3,0,256.7,0z
				 M256.7,213.3c-52.9,0-96-43.1-96-96s43.1-96,96-96s96,43.1,96,96S309.6,213.3,256.7,213.3z"/>
		</g>
	</g>
</g>
</svg>
