<?xml version="1.0" encoding="utf-8"?>
<!-- Generator: Adobe Illustrator 25.2.1, SVG Export Plug-In . SVG Version: 6.00 Build 0)  -->
<svg version="1.1" id="Layer_4" xmlns="http://www.w3.org/2000/svg" xmlns:xlink="http://www.w3.org/1999/xlink" x="0px" y="0px"
	 viewBox="0 0 512 512" style="enable-background:new 0 0 512 512;" xml:space="preserve">
<style type="text/css">
	.st0{fill:#222222;}
</style>
<path class="st0" d="M415.8,512c-11,0-20-9-20-20v-20h20c31.9,0,40-10.8,40-10.8V492c0,11-9,20-20,20H415.8z"/>
<path class="st0" d="M76.2,512c-11,0-20-9-20-20v-30.8c0,0,8.1,10.8,40,10.8h20v20c0,11-9,20-20,20H76.2z"/>
<path class="st0" d="M512,302.2c0.1-25.5-20.5-46.2-46-46.2c-19.3,0-36.6,12-43.4,30.1l-21.9,49.1c-1.6-1-67.9-21.8-143.5-21.8
	s-144.4,20.9-146.1,22l-20.8-46.1c-7.1-24.4-32.7-38.5-57.1-31.4C8.8,265-5.3,290.5,1.8,315c4.5,15.4,16.7,27.4,32.2,31.6l8.5,73.5
	c9,31.2,53.7,32,53.7,32h319.6c0,0,44.6-0.8,53.7-32l8.5-73.5C498.1,341.1,512,323,512,302.2z"/>
<path class="st0" d="M46.2,232c30.4,0.2,57.2,19.8,66.6,48.7l10.1,22.5c19.6-7,89.9-13.8,134.3-13.8c43.2,0,112.5,6.3,131.7,13.3
	l11.5-25.8c10.5-27,36.4-44.8,65.3-44.9c2.1,0,4.1,0.4,6.2,0.6c0-0.1,0-0.3,0-0.4c0-53.1-43-96.1-96.1-96.1H136.1
	C83,136.1,40,179.2,40,232.3c0,0.1,0,0.3,0,0.4C42.1,232.5,44.1,232,46.2,232z"/>
<rect x="83.5" class="st0" width="345" height="109.7"/>
</svg>
