<?xml version="1.0" encoding="utf-8"?>
<!-- Generator: Adobe Illustrator 25.2.1, SVG Export Plug-In . SVG Version: 6.00 Build 0)  -->
<svg version="1.1" id="Layer_1" xmlns="http://www.w3.org/2000/svg" xmlns:xlink="http://www.w3.org/1999/xlink" x="0px" y="0px"
	 viewBox="0 0 512 512" style="enable-background:new 0 0 512 512;" xml:space="preserve">
<style type="text/css">
	.st0{fill:#222222;}
</style>
<path class="st0" d="M354.6,81.9l-103.9-60c-4.9-2.8-10.2-4.6-15.8-5.4c4,9.3,6.1,19.4,6.1,29.5v322.6l130.1-225.3
	C383.4,121.8,376.1,94.3,354.6,81.9z"/>
<rect y="181" class="st0" width="211" height="120"/>
<path class="st0" d="M166,0H45C20.2,0,0,20.2,0,45v106h211V45C211,20.2,190.8,0,166,0z"/>
<path class="st0" d="M106,391c-8.3,0-15,6.7-15,15s6.7,15,15,15s15-6.7,15-15S114.3,391,106,391z"/>
<path class="st0" d="M0,331v136c0,24.8,20.2,45,45,45h121c24.8,0,45-20.2,45-45V331H0z M106,451c-24.9,0-45-20.1-45-45
	s20.1-45,45-45s45,20.1,45,45l0,0C151,430.8,130.8,451,106,451z"/>
<path class="st0" d="M486.7,255.4l-59.9-103.8c-4.8-8.3-12.1-14.8-20.9-18.6c-1.4,8.9-4.4,17.5-8.8,25.3L241,428.6v20.7L470.2,317
	C491.8,304.5,499.1,277,486.7,255.4z"/>
<path class="st0" d="M506.7,325.3c-5.7,7.1-12.6,13.1-20.5,17.6L238.1,486.6c-2.5,9.2-6.7,17.8-12.4,25.4H467c24.8,0,45-20.2,45-45
	V346C511.9,338.8,510.1,331.7,506.7,325.3z"/>
</svg>
