<?xml version="1.0" encoding="utf-8"?>
<!-- Generator: Adobe Illustrator 25.2.1, SVG Export Plug-In . SVG Version: 6.00 Build 0)  -->
<svg version="1.1" id="Layer_3" xmlns="http://www.w3.org/2000/svg" xmlns:xlink="http://www.w3.org/1999/xlink" x="0px" y="0px"
	 viewBox="0 0 383.1 510.8" style="enable-background:new 0 0 383.1 510.8;" xml:space="preserve">
<style type="text/css">
	.st0{fill:#222222;}
</style>
<path class="st0" d="M367.1,447H124.7c-4.8-13.5-15.5-24.2-29-29V79.8c0-4.2-1.7-8.3-4.7-11.3L27.2,4.7C20.6-1.1,10.5-0.4,4.7,6.3
	c-5.2,6-5.2,14.9,0,21l59.2,59.2V418c-24.9,8.8-38,36-29.2,60.9c8.8,24.9,36,38,60.9,29.2c13.7-4.8,24.4-15.6,29.2-29.2h242.4
	c8.8-0.6,15.5-8.2,14.9-17C381.5,453.8,375.1,447.5,367.1,447L367.1,447z M79.8,478.9c-8.8,0-16-7.2-16-16s7.2-16,16-16
	s16,7.2,16,16S88.6,478.9,79.8,478.9z"/>
<path class="st0" d="M335.2,255.4h-63.9v63.9h-63.9v-63.9h-63.9c-8.8,0-16,7.2-16,16v127.9c6,4.5,11.3,9.8,15.7,15.7h191.8
	c8.8,0,16-7.2,16-16V271.4C351.2,262.6,344,255.4,335.2,255.4z"/>
<path class="st0" d="M271.4,127.7h-47.9v31.9h-31.9v-31.9h-47.9c-8.8,0-16,7.2-16,16v79.8h159.7v-79.8
	C287.3,134.9,280.2,127.7,271.4,127.7z"/>
<rect x="175.3" y="255.4" class="st0" width="136.2" height="79.8"/>
<rect x="156.3" y="127.7" class="st0" width="92.1" height="38.8"/>
</svg>
