<?xml version="1.0" encoding="utf-8"?>
<!-- Generator: Adobe Illustrator 25.2.1, SVG Export Plug-In . SVG Version: 6.00 Build 0)  -->
<svg version="1.1" id="line_Icons" xmlns="http://www.w3.org/2000/svg" xmlns:xlink="http://www.w3.org/1999/xlink" x="0px" y="0px"
	 viewBox="0 0 512 512" style="enable-background:new 0 0 512 512;" xml:space="preserve">
<style type="text/css">
	.st0{fill:#222222;}
	.st1{fill:none;stroke:#222222;stroke-width:14;stroke-linecap:round;stroke-miterlimit:10;}
</style>
<path class="st0" d="M307.7,498.2H204.3c-9.3,0-16.9-7.6-16.9-16.9v-25.8c0-47.8-22.6-99.2-63.5-144.7
	c-65.8-73-59.9-185.5,13.1-251.3S322.4-0.4,388.2,72.6c24.8,27.5,40.3,62,44.6,98.7c6,52.2-11.4,104.3-47.4,142.5
	c-38.6,40.8-60.7,92.4-60.7,141.5v25.8C324.6,490.6,317.1,498.2,307.7,498.2z M255.7,27.7c-40.3-0.1-79.2,14.8-109.1,41.8
	c-67.5,60.5-73.2,164.2-12.8,231.7c0.1,0.1,0.2,0.2,0.3,0.4c43.3,48,67.1,102.6,67.1,153.9v25.8c0,1.7,1.4,3.1,3.1,3.1h103.4
	c1.7,0,3.1-1.4,3.1-3.1v-25.8c0-52.7,23.5-107.7,64.5-151.1c33.2-35.2,49.2-83.3,43.7-131.5c-8.9-75.7-68.6-135.4-144.4-144.2
	C268.4,28,262,27.7,255.7,27.7L255.7,27.7z"/>
<path class="st0" d="M269.8,286.4h-27.6c-6.4,0-11.9-4.2-13.3-10.3l-3.5-15c-5.9-2.3-11.5-5.4-16.7-9.2l-15.6,4.7
	c-6.2,1.8-12.7-0.6-15.9-6l-13.8-22.7c-3.3-5.5-2.2-12.3,2.6-16.6l11.8-10.4c-0.4-3-0.5-6.1-0.5-9c0-2.9,0.2-6,0.5-9L166,172.6
	c-4.8-4.3-5.9-11.1-2.7-16.6l13.9-22.8c3.1-5.3,9.6-7.7,15.9-5.9l15.6,4.7c5.2-3.8,10.8-6.9,16.7-9.2l3.5-15
	c1.4-6.1,6.9-10.3,13.3-10.3h27.6c6.4,0,11.9,4.2,13.3,10.3l3.5,15c5.9,2.3,11.5,5.4,16.7,9.2l15.6-4.7c6.2-1.8,12.7,0.6,15.9,6
	l13.8,22.7c3.3,5.5,2.2,12.3-2.6,16.6L334.2,183c0.4,3,0.5,6.1,0.5,9c0,2.9-0.2,6-0.5,9l11.8,10.3c0,0,0,0,0,0
	c4.8,4.3,5.8,11.1,2.6,16.6l-13.9,22.8c-3.1,5.3-9.6,7.7-15.9,5.9l-15.6-4.7c-5.2,3.8-10.8,6.9-16.7,9.2l-3.5,15
	C281.7,282.2,276.2,286.4,269.8,286.4z M209.8,240.2c1.2,0,2.4,0.4,3.4,1.2c5.8,4.5,12,8,18.7,10.3c1.8,0.6,3.1,2.1,3.6,4l4.2,17.9
	c0.2,1,1.3,1.8,2.5,1.8h27.6c1.2,0,2.2-0.7,2.5-1.7l4.2-17.9c0.4-1.8,1.8-3.3,3.6-4c6.7-2.3,13-5.8,18.7-10.3c1.4-1.1,3.3-1.5,5-0.9
	l18.3,5.5c1.2,0.4,2.6,0,3.1-1l13.9-22.8c0.5-0.8,0.3-1.8-0.5-2.5l-14-12.3c-1.4-1.3-2.1-3.2-1.8-5c0.5-3.5,0.8-7,0.8-10.4
	s-0.3-6.8-0.8-10.4c-0.3-1.9,0.4-3.8,1.8-5l14.1-12.3c0.7-0.7,0.9-1.7,0.4-2.6L325.3,139c-0.6-1-1.9-1.4-3.2-1l-18.3,5.5
	c-1.7,0.5-3.6,0.2-5-0.9c-5.8-4.5-12-8-18.7-10.3c-1.8-0.6-3.1-2.1-3.6-4l-4.2-17.9c-0.3-1-1.3-1.8-2.5-1.8h-27.6
	c-1.2,0-2.2,0.7-2.5,1.7l-4.2,17.9c-0.4,1.8-1.8,3.3-3.6,4c-6.7,2.4-13,5.8-18.7,10.4c-1.4,1.1-3.3,1.5-5,0.9l-18.3-5.5
	c-1.2-0.4-2.6,0-3.1,1l-13.9,22.8c-0.5,0.8-0.3,1.8,0.5,2.6l14,12.2c1.4,1.3,2.1,3.2,1.8,5c-0.5,3.5-0.8,7-0.8,10.4
	c0,3.3,0.3,6.8,0.8,10.4c0.3,1.9-0.4,3.8-1.8,5l-14.1,12.3c-0.7,0.7-0.9,1.7-0.4,2.6l13.8,22.7c0.6,1,1.9,1.4,3.2,1l18.3-5.5
	C208.7,240.3,209.2,240.2,209.8,240.2L209.8,240.2z"/>
<line class="st1" x1="229.5" y1="398.7" x2="326.1" y2="398.7"/>
<line class="st1" x1="219.3" y1="445" x2="315.8" y2="445"/>
</svg>
