<?xml version="1.0" encoding="utf-8"?>
<!-- Generator: Adobe Illustrator 25.2.1, SVG Export Plug-In . SVG Version: 6.00 Build 0)  -->
<svg version="1.1" id="Layer_1" xmlns:svgjs="http://svgjs.com/svgjs"
	 xmlns="http://www.w3.org/2000/svg" xmlns:xlink="http://www.w3.org/1999/xlink" x="0px" y="0px" viewBox="0 0 512 512"
	 style="enable-background:new 0 0 512 512;" xml:space="preserve">
<style type="text/css">
	.st0{fill:#17A2B8;}
</style>
<g>
	<g>
		<g>
			<path class="st0" d="M256,142.9c-36.1,0-65.4,29.4-65.4,65.4s29.4,65.4,65.4,65.4s65.4-29.4,65.4-65.4S292.1,142.9,256,142.9z"/>
		</g>
	</g>
	<g>
		<g>
			<path class="st0" d="M409.1,63.4C368.2,22.5,313.8,0,256,0S143.8,22.5,102.9,63.4s-63.4,95.3-63.4,153.1
				c0,117,110.6,214.3,170.1,266.6c8.3,7.3,15.4,13.5,21.1,18.8c7.1,6.7,16.3,10,25.4,10c9.1,0,18.3-3.3,25.4-10
				c5.7-5.3,12.8-11.6,21.1-18.8c59.4-52.3,170.1-149.6,170.1-266.6C472.5,158.7,450,104.3,409.1,63.4z M256,303.8
				c-52.6,0-95.4-42.8-95.4-95.4S203.4,113,256,113s95.4,42.8,95.4,95.4S308.6,303.8,256,303.8z"/>
		</g>
	</g>
</g>
</svg>
