<svg width="689" height="192" viewBox="0 0 689 192" fill="none" xmlns="http://www.w3.org/2000/svg">
<g clip-path="url(#clip0_136_16)">
<path d="M620.1 14.2002C611 15.5002 611.7 8.0002 608.6 2.6002C616.8 2.6002 624.2 2.5002 631.6 2.6002C639.9 2.7002 648.4 1.8002 656.5 3.2002C684.1 8.1002 695.4 37.4002 684.4 61.3002C677.3 76.8002 665.2 84.5002 648 84.2002C638.9 84.0002 629.8 84.2002 620.2 84.2002C620.2 72.1002 620.2 60.5002 620.2 49.0002C620.1 37.5002 620.1 26.1002 620.1 14.2002ZM631.8 72.6002C637.7 72.6002 643 72.6002 648.2 72.6002C663.6 72.6002 674.2 64.0002 676.5 48.8002C678.7 34.3002 672.4 18.5002 657.6 15.2002C649.4 13.4002 640.6 14.1002 631.8 13.7002C631.8 33.9002 631.8 52.9002 631.8 72.6002Z" fill="#34495E"/>
<path d="M309.1 85.9C284.2 86 265.2 67.1 265.2 42.1C265.2 18.9 284.5 0.299981 308.9 -1.93845e-05C333.2 -0.300019 353 19.3 353 43.4C353 66.9 333.5 85.8 309.1 85.9ZM341.5 43C341.6 25.2 327.7 11.8 309 11.7C290.5 11.6 276.3 25.3 276.2 43.4C276.1 60.9 290.9 74.5 310.2 74.6C327.2 74.6 341.4 60.3 341.5 43Z" fill="#34495E"/>
<path d="M533.8 83.8999C533.8 56.8999 533.8 29.9999 533.8 2.8999C552.8 2.8999 571.5 2.8999 590.5 2.8999C590.5 6.4999 590.5 9.9999 590.5 13.9999C575.5 13.9999 560.6 13.9999 545.3 13.9999C545.3 22.5999 545.3 30.5999 545.3 37.6999C556.3 37.0999 567.1 36.5999 578.3 35.9999C578.3 40.3999 578.3 43.7999 578.3 48.2999C571.3 48.2999 564.3 48.2999 557.4 48.2999C555.7 48.2999 554.1 48.2999 552.4 48.5999C545.7 49.7999 544.8 50.7999 544.9 57.6999C544.9 62.1999 545 66.6999 545.1 71.1999C545.1 71.4999 545.3 71.7999 545.7 72.5999C562 72.5999 578.5 72.5999 595.4 72.5999C595.4 76.6999 595.4 80.1999 595.4 83.9999C574.9 83.8999 554.5 83.8999 533.8 83.8999Z" fill="#34495E"/>
<path d="M248.4 12.8998C246 15.6998 243.8 18.0998 241.3 20.8998C234.2 15.3998 226.7 11.8998 217.9 11.7998C212.4 11.6998 207.4 12.5998 203.1 16.4998C199.6 19.6998 197.8 23.4998 199.2 28.0998C200.6 32.6998 204.7 34.1998 208.9 34.5998C216.5 35.3998 224.2 35.5998 231.7 36.5998C243.2 37.9998 249.3 43.1998 251.6 52.4998C254.1 62.9998 250.5 73.2998 241.3 79.0998C224.5 89.7998 197.6 89.1998 182.6 69.3998C185.2 66.9998 187.8 64.5998 190.6 61.8998C196.7 68.7998 203.7 73.5998 212.9 74.2998C221.3 74.9998 229.2 73.7998 235.9 68.3998C243.3 62.4998 241.6 51.4998 232.7 48.4998C228.5 47.0998 223.9 46.9998 219.5 46.4998C213.4 45.7998 207.2 45.8998 201.3 44.5998C183 40.5998 182 19.8998 192.8 9.39979C202.3 0.0997925 213.9 -1.00021 226.2 1.19979C234.7 2.59979 241.9 6.49979 248.4 12.8998Z" fill="#34495E"/>
<path d="M436.5 2.89997C447.8 1.79997 447.7 1.89997 451.8 11.8C459.1 29.6 466.4 47.4 473.7 65.2C474.4 66.8 475.1 68.4 476.3 71.2C478.2 66.7 479.7 63.3 481.1 59.8C488.1 42.8 495.3 25.8 502.1 8.69997C503.9 3.99997 506.1 1.49997 511.4 2.49997C513 2.79997 514.7 2.49997 517.2 2.49997C516.5 4.49997 516 5.99997 515.4 7.39997C505.4 31.3 495.2 55.1 485.4 79.1C483.7 83.3 481.5 85 477.4 84.1C474.4 83.5 470.3 86.2 468.6 82C457.8 56.1 447.2 30.2 436.5 4.19997C436.3 3.99997 436.5 3.59997 436.5 2.89997Z" fill="#34495E"/>
<path d="M41.2002 61.2C44.0002 68.6 48.3002 73.5 57.3002 72.4C57.3002 76.3 57.3002 79.9 57.3002 83.4C49.5002 85.5 42.2002 83.1 37.8002 76.6C35.3002 72.9 32.8002 69.1 30.8002 65.1C28.8002 61.2 26.1002 59.9 22.0002 60.9C20.4002 61.3 18.7002 61.1 17.1002 61.5C12.9002 62.5 10.0002 64.4 10.6002 69.7C11.1002 74.3 10.7002 78.9 10.7002 83.9C7.0002 83.9 3.7002 83.9 0.200195 83.9C0.200195 65.3 0.200195 46.7 0.200195 27.8C13.6002 27.8 26.9002 27.4 40.1002 28C47.0002 28.3 52.3002 34.3 53.5002 40.9C55.0002 49.2 52.4002 55 45.3002 59C43.9002 59.7 42.6002 60.4 41.2002 61.2ZM11.1002 52.2C15.5002 51.5 19.5002 50.7 23.6002 50.3C27.7002 49.9 31.9002 50 36.1002 49.8C39.8002 49.6 42.7002 48.3 42.7002 44C42.7002 39.8 39.6002 38.7 36.3002 38.6C31.7002 38.3 27.0002 38.4 22.3002 38.4C9.30019 38.4 9.3002 38.4 10.9002 51.7C10.8002 51.8 11.0002 51.9 11.1002 52.2Z" fill="#34495E"/>
<path d="M80.9004 27.8999C95.6004 27.8999 109.9 27.8999 124.7 27.8999C124.7 31.2999 124.7 34.5999 124.7 38.2999C113.7 38.2999 102.9 38.2999 91.7004 38.2999C91.7004 43.0999 91.7004 47.4999 91.7004 51.1999C99.9004 50.4999 108.2 49.7999 117 49.0999C117 53.2999 117 56.4999 117 60.6999C111.6 60.6999 106.3 60.3999 101.1 60.7999C91.5004 61.4999 90.4004 62.9999 91.7004 73.1999C103.2 73.1999 114.7 73.1999 126.7 73.1999C126.7 77.0999 126.7 80.2999 126.7 83.8999C111.6 83.8999 96.4004 83.8999 80.9004 83.8999C80.9004 65.1999 80.9004 46.6999 80.9004 27.8999Z" fill="#34495E"/>
<path d="M383.7 72.6C399.1 72.6 413.7 72.6 428.8 72.6C428.8 76.5 428.8 80 428.8 83.9C410.2 83.9 391.7 83.9 372.7 83.9C372.7 57.1 372.7 30.3 372.7 3C376.2 3 379.7 3 383.7 3C383.7 26.1 383.7 49 383.7 72.6Z" fill="#34495E"/>
<path d="M160.5 111.2C157.4 111.2 154.8 111.2 151.8 111.2C151.8 74.9001 151.8 38.9001 151.8 2.20013C153.5 2.10013 155.3 2.10013 157 1.90013C160.1 1.60013 161 3.00013 161 6.00013C160.9 40.0001 161 73.9001 160.9 107.9C160.9 108.9 160.6 109.8 160.5 111.2Z" fill="#34495E"/>
</g>
<path d="M80.7181 184.368C79.6141 184.368 78.6221 184.176 77.7421 183.792C76.8781 183.392 76.1981 182.848 75.7021 182.16C75.2061 181.456 74.9501 180.648 74.9341 179.736H77.2621C77.3421 180.52 77.6621 181.184 78.2221 181.728C78.7981 182.256 79.6301 182.52 80.7181 182.52C81.7581 182.52 82.5741 182.264 83.1661 181.752C83.7741 181.224 84.0781 180.552 84.0781 179.736C84.0781 179.096 83.9021 178.576 83.5501 178.176C83.1981 177.776 82.7581 177.472 82.2301 177.264C81.7021 177.056 80.9901 176.832 80.0941 176.592C78.9901 176.304 78.1021 176.016 77.4301 175.728C76.7741 175.44 76.2061 174.992 75.7261 174.384C75.2621 173.76 75.0301 172.928 75.0301 171.888C75.0301 170.976 75.2621 170.168 75.7261 169.464C76.1901 168.76 76.8381 168.216 77.6701 167.832C78.5181 167.448 79.4861 167.256 80.5741 167.256C82.1421 167.256 83.4221 167.648 84.4141 168.432C85.4221 169.216 85.9901 170.256 86.1181 171.552H83.7181C83.6381 170.912 83.3021 170.352 82.7101 169.872C82.1181 169.376 81.3341 169.128 80.3581 169.128C79.4461 169.128 78.7021 169.368 78.1261 169.848C77.5501 170.312 77.2621 170.968 77.2621 171.816C77.2621 172.424 77.4301 172.92 77.7661 173.304C78.1181 173.688 78.5421 173.984 79.0381 174.192C79.5501 174.384 80.2621 174.608 81.1741 174.864C82.2781 175.168 83.1661 175.472 83.8381 175.776C84.5101 176.064 85.0861 176.52 85.5661 177.144C86.0461 177.752 86.2861 178.584 86.2861 179.64C86.2861 180.456 86.0701 181.224 85.6381 181.944C85.2061 182.664 84.5661 183.248 83.7181 183.696C82.8701 184.144 81.8701 184.368 80.7181 184.368ZM118.756 167.472V169.248H114.196V184.2H112.012V169.248H107.428V167.472H118.756ZM150.292 180.48H142.996L141.652 184.2H139.348L145.396 167.568H147.916L153.94 184.2H151.636L150.292 180.48ZM149.668 178.704L146.644 170.256L143.62 178.704H149.668ZM188.208 172.32C187.744 171.344 187.072 170.592 186.192 170.064C185.312 169.52 184.288 169.248 183.12 169.248C181.952 169.248 180.896 169.52 179.952 170.064C179.024 170.592 178.288 171.36 177.744 172.368C177.216 173.36 176.952 174.512 176.952 175.824C176.952 177.136 177.216 178.288 177.744 179.28C178.288 180.272 179.024 181.04 179.952 181.584C180.896 182.112 181.952 182.376 183.12 182.376C184.752 182.376 186.096 181.888 187.152 180.912C188.208 179.936 188.824 178.616 189 176.952H182.328V175.176H191.328V176.856C191.2 178.232 190.768 179.496 190.032 180.648C189.296 181.784 188.328 182.688 187.128 183.36C185.928 184.016 184.592 184.344 183.12 184.344C181.568 184.344 180.152 183.984 178.872 183.264C177.592 182.528 176.576 181.512 175.824 180.216C175.088 178.92 174.72 177.456 174.72 175.824C174.72 174.192 175.088 172.728 175.824 171.432C176.576 170.12 177.592 169.104 178.872 168.384C180.152 167.648 181.568 167.28 183.12 167.28C184.896 167.28 186.464 167.72 187.824 168.6C189.2 169.48 190.2 170.72 190.824 172.32H188.208ZM215.36 167.472V184.2H213.176V167.472H215.36ZM251.194 184.2H249.01L240.226 170.88V184.2H238.042V167.448H240.226L249.01 180.744V167.448H251.194V184.2ZM286.549 172.32C286.085 171.344 285.413 170.592 284.533 170.064C283.653 169.52 282.629 169.248 281.461 169.248C280.293 169.248 279.237 169.52 278.293 170.064C277.365 170.592 276.629 171.36 276.085 172.368C275.557 173.36 275.293 174.512 275.293 175.824C275.293 177.136 275.557 178.288 276.085 179.28C276.629 180.272 277.365 181.04 278.293 181.584C279.237 182.112 280.293 182.376 281.461 182.376C283.093 182.376 284.437 181.888 285.493 180.912C286.549 179.936 287.165 178.616 287.341 176.952H280.669V175.176H289.669V176.856C289.541 178.232 289.109 179.496 288.373 180.648C287.637 181.784 286.669 182.688 285.469 183.36C284.269 184.016 282.933 184.344 281.461 184.344C279.909 184.344 278.493 183.984 277.213 183.264C275.933 182.528 274.917 181.512 274.165 180.216C273.429 178.92 273.061 177.456 273.061 175.824C273.061 174.192 273.429 172.728 274.165 171.432C274.917 170.12 275.933 169.104 277.213 168.384C278.493 167.648 279.909 167.28 281.461 167.28C283.237 167.28 284.805 167.72 286.165 168.6C287.541 169.48 288.541 170.72 289.165 172.32H286.549ZM342.179 184.368C341.075 184.368 340.083 184.176 339.203 183.792C338.339 183.392 337.659 182.848 337.163 182.16C336.667 181.456 336.411 180.648 336.395 179.736H338.723C338.803 180.52 339.123 181.184 339.683 181.728C340.259 182.256 341.091 182.52 342.179 182.52C343.219 182.52 344.035 182.264 344.627 181.752C345.235 181.224 345.539 180.552 345.539 179.736C345.539 179.096 345.363 178.576 345.011 178.176C344.659 177.776 344.219 177.472 343.691 177.264C343.163 177.056 342.451 176.832 341.555 176.592C340.451 176.304 339.563 176.016 338.891 175.728C338.235 175.44 337.667 174.992 337.187 174.384C336.723 173.76 336.491 172.928 336.491 171.888C336.491 170.976 336.723 170.168 337.187 169.464C337.651 168.76 338.299 168.216 339.131 167.832C339.979 167.448 340.947 167.256 342.035 167.256C343.603 167.256 344.883 167.648 345.875 168.432C346.883 169.216 347.451 170.256 347.579 171.552H345.179C345.099 170.912 344.763 170.352 344.171 169.872C343.579 169.376 342.795 169.128 341.819 169.128C340.907 169.128 340.163 169.368 339.587 169.848C339.011 170.312 338.723 170.968 338.723 171.816C338.723 172.424 338.891 172.92 339.227 173.304C339.579 173.688 340.003 173.984 340.499 174.192C341.011 174.384 341.723 174.608 342.635 174.864C343.739 175.168 344.627 175.472 345.299 175.776C345.971 176.064 346.547 176.52 347.027 177.144C347.507 177.752 347.747 178.584 347.747 179.64C347.747 180.456 347.531 181.224 347.099 181.944C346.667 182.664 346.027 183.248 345.179 183.696C344.331 184.144 343.331 184.368 342.179 184.368ZM377.505 184.368C375.953 184.368 374.537 184.008 373.257 183.288C371.977 182.552 370.961 181.536 370.209 180.24C369.473 178.928 369.105 177.456 369.105 175.824C369.105 174.192 369.473 172.728 370.209 171.432C370.961 170.12 371.977 169.104 373.257 168.384C374.537 167.648 375.953 167.28 377.505 167.28C379.073 167.28 380.497 167.648 381.777 168.384C383.057 169.104 384.065 170.112 384.801 171.408C385.537 172.704 385.905 174.176 385.905 175.824C385.905 177.472 385.537 178.944 384.801 180.24C384.065 181.536 383.057 182.552 381.777 183.288C380.497 184.008 379.073 184.368 377.505 184.368ZM377.505 182.472C378.673 182.472 379.721 182.2 380.649 181.656C381.593 181.112 382.329 180.336 382.857 179.328C383.401 178.32 383.673 177.152 383.673 175.824C383.673 174.48 383.401 173.312 382.857 172.32C382.329 171.312 381.601 170.536 380.673 169.992C379.745 169.448 378.689 169.176 377.505 169.176C376.321 169.176 375.265 169.448 374.337 169.992C373.409 170.536 372.673 171.312 372.129 172.32C371.601 173.312 371.337 174.48 371.337 175.824C371.337 177.152 371.601 178.32 372.129 179.328C372.673 180.336 373.409 181.112 374.337 181.656C375.281 182.2 376.337 182.472 377.505 182.472ZM409.932 182.424H415.788V184.2H407.748V167.472H409.932V182.424ZM439.204 167.472V178.056C439.204 179.544 439.564 180.648 440.284 181.368C441.02 182.088 442.036 182.448 443.332 182.448C444.612 182.448 445.612 182.088 446.332 181.368C447.068 180.648 447.436 179.544 447.436 178.056V167.472H449.62V178.032C449.62 179.424 449.34 180.6 448.78 181.56C448.22 182.504 447.46 183.208 446.5 183.672C445.556 184.136 444.492 184.368 443.308 184.368C442.124 184.368 441.052 184.136 440.092 183.672C439.148 183.208 438.396 182.504 437.836 181.56C437.292 180.6 437.02 179.424 437.02 178.032V167.472H439.204ZM482.519 167.472V169.248H477.959V184.2H475.775V169.248H471.191V167.472H482.519ZM506.352 167.472V184.2H504.168V167.472H506.352ZM536.618 184.368C535.066 184.368 533.65 184.008 532.37 183.288C531.09 182.552 530.074 181.536 529.322 180.24C528.586 178.928 528.218 177.456 528.218 175.824C528.218 174.192 528.586 172.728 529.322 171.432C530.074 170.12 531.09 169.104 532.37 168.384C533.65 167.648 535.066 167.28 536.618 167.28C538.186 167.28 539.61 167.648 540.89 168.384C542.17 169.104 543.178 170.112 543.914 171.408C544.65 172.704 545.018 174.176 545.018 175.824C545.018 177.472 544.65 178.944 543.914 180.24C543.178 181.536 542.17 182.552 540.89 183.288C539.61 184.008 538.186 184.368 536.618 184.368ZM536.618 182.472C537.786 182.472 538.834 182.2 539.762 181.656C540.706 181.112 541.442 180.336 541.97 179.328C542.514 178.32 542.786 177.152 542.786 175.824C542.786 174.48 542.514 173.312 541.97 172.32C541.442 171.312 540.714 170.536 539.786 169.992C538.858 169.448 537.802 169.176 536.618 169.176C535.434 169.176 534.378 169.448 533.45 169.992C532.522 170.536 531.786 171.312 531.242 172.32C530.714 173.312 530.45 174.48 530.45 175.824C530.45 177.152 530.714 178.32 531.242 179.328C531.786 180.336 532.522 181.112 533.45 181.656C534.394 182.2 535.45 182.472 536.618 182.472ZM580.013 184.2H577.829L569.045 170.88V184.2H566.861V167.448H569.045L577.829 180.744V167.448H580.013V184.2ZM608 184.368C606.896 184.368 605.904 184.176 605.024 183.792C604.16 183.392 603.48 182.848 602.984 182.16C602.488 181.456 602.232 180.648 602.216 179.736H604.544C604.624 180.52 604.944 181.184 605.504 181.728C606.08 182.256 606.912 182.52 608 182.52C609.04 182.52 609.856 182.264 610.448 181.752C611.056 181.224 611.36 180.552 611.36 179.736C611.36 179.096 611.184 178.576 610.832 178.176C610.48 177.776 610.04 177.472 609.512 177.264C608.984 177.056 608.272 176.832 607.376 176.592C606.272 176.304 605.384 176.016 604.712 175.728C604.056 175.44 603.488 174.992 603.008 174.384C602.544 173.76 602.312 172.928 602.312 171.888C602.312 170.976 602.544 170.168 603.008 169.464C603.472 168.76 604.12 168.216 604.952 167.832C605.8 167.448 606.768 167.256 607.856 167.256C609.424 167.256 610.704 167.648 611.696 168.432C612.704 169.216 613.272 170.256 613.4 171.552H611C610.92 170.912 610.584 170.352 609.992 169.872C609.4 169.376 608.616 169.128 607.64 169.128C606.728 169.128 605.984 169.368 605.408 169.848C604.832 170.312 604.544 170.968 604.544 171.816C604.544 172.424 604.712 172.92 605.048 173.304C605.4 173.688 605.824 173.984 606.32 174.192C606.832 174.384 607.544 174.608 608.456 174.864C609.56 175.168 610.448 175.472 611.12 175.776C611.792 176.064 612.368 176.52 612.848 177.144C613.328 177.752 613.568 178.584 613.568 179.64C613.568 180.456 613.352 181.224 612.92 181.944C612.488 182.664 611.848 183.248 611 183.696C610.152 184.144 609.152 184.368 608 184.368Z" fill="#AACFD0"/>
<defs>
<clipPath id="clip0_136_16">
<rect width="688.5" height="111.2" fill="white"/>
</clipPath>
</defs>
</svg>
