<?xml version="1.0" encoding="utf-8"?>
<!-- Generator: Adobe Illustrator 25.2.1, SVG Export Plug-In . SVG Version: 6.00 Build 0)  -->
<svg version="1.1" id="Layer_1" xmlns="http://www.w3.org/2000/svg" xmlns:xlink="http://www.w3.org/1999/xlink" x="0px" y="0px"
	 viewBox="0 0 151.2 29.3" style="enable-background:new 0 0 151.2 29.3;" xml:space="preserve">
<style type="text/css">
	.st0{fill:#606060;}
	.st1{fill:#2BD6CE;}
</style>
<g>
	<path class="st0" d="M1.9,16.4c-0.6,0-1.1-0.1-1.7-0.3C0,16-0.1,15.9-0.1,15.5c0-0.5,0-0.9,0.1-1.2v-0.2c0-0.2,0-0.3,0.2-0.3
		c0.1,0,0.1,0,0.2,0c0,0,0,0.1,0,0.2c0,0.2,0,0.4,0,0.5c0.2,0.8,0.9,1.3,1.7,1.3c0.1,0,0.2,0,0.3,0s0.1,0,0.2,0
		c0.9,0,1.7-0.7,1.7-1.6c0-0.1,0-0.1,0-0.2c0-0.9-0.3-1.4-1.6-2.4l-0.6-0.5C0.5,10,0.3,9,0.3,8.2c0-1.5,1.2-2.5,3-2.5l0,0
		c0.5,0,0.9,0,1.3,0.1c0.1,0,0.3,0.1,0.4,0.1l0,0c0.1,0,0.2,0,0.2,0.2v1.4c0,0.2,0,0.4-0.2,0.4S4.8,7.8,4.8,7.7
		c0-0.2-0.1-0.4-0.2-0.6c0-0.2-0.4-0.7-1.6-0.7c-0.1,0-0.1,0-0.2,0C2,6.4,1.4,6.9,1.3,7.7v0.1C1.3,8.6,1.7,9,3,10l0.4,0.3
		c1.7,1.3,2.1,2.2,2.1,3.2c0,0.9-0.5,1.8-1.2,2.3c-0.6,0.4-1.3,0.6-2,0.6C2.2,16.4,1.9,16.4,1.9,16.4z"/>
	<path class="st0" d="M0.2,16C0,15.9,0,15.9,0,15.5c0-0.7,0.1-1.2,0.1-1.4s0-0.2,0.1-0.2s0.1,0,0.1,0.1c0,0.2,0,0.3,0,0.5
		c0.3,0.9,1.2,1.5,2.1,1.3c1,0.1,1.9-0.6,2-1.7c0-0.1,0-0.1,0-0.2c0-0.9-0.4-1.5-1.6-2.4L2.2,11C0.7,9.9,0.4,9,0.4,8.1
		c0-1.4,1.1-2.4,2.9-2.4c0.4,0,0.9,0,1.3,0.1C4.7,6,4.8,6,5,6c0.1,0,0.1,0,0.1,0.1s0,0.5,0,1.4c0,0.2,0,0.3-0.1,0.3s-0.1,0-0.1-0.1
		c0-0.2-0.1-0.4-0.2-0.7C4.6,6.8,4.3,6.3,3,6.3C2.1,6.2,1.3,6.8,1.3,7.7v0.1C1.3,8.6,1.7,9,3,10.1l0.4,0.3c1.7,1.2,2.1,2.1,2.1,3.2
		c0,0.9-0.5,1.7-1.2,2.2c-0.6,0.4-1.4,0.6-2.1,0.6C1.4,16.4,0.8,16.2,0.2,16z"/>
	<path class="st0" d="M10.1,16.2c-0.2,0-0.3,0-0.3-0.2v-0.1l0.1-0.1c0.2,0,0.2,0,0.3,0s0.1,0,0.2,0c0.2,0,0.3-0.3,0.3-0.7
		c0.1-0.6,0.1-1.6,0.1-2.9V6.6h-2C8,6.7,7.7,6.8,7.5,7C7.4,7.2,7.3,7.3,7.2,7.4c0,0.1-0.1,0.2-0.2,0.2L6.9,7.5
		c0-0.1,0.3-1.4,0.3-1.5c0.1-0.2,0.1-0.3,0.2-0.3C7.7,5.8,7.8,5.9,8,5.9h6.5c0.3,0,0.6,0,0.8-0.1c0.1,0,0.2,0,0.3,0h0.1
		c0.1,0,0.1,0.1,0.1,0.2v1.5c0,0.1,0,0.2-0.2,0.2s-0.2-0.1-0.2-0.3V7.3c0-0.2,0-0.6-1.6-0.7h-1.7L12,12.2c0,1.3,0,2.3,0.1,2.9
		c0,0.4,0.2,0.6,0.5,0.7c0.1,0,0.2,0,0.3,0s0.3,0,0.3,0c0.1,0,0.2,0,0.2,0.2c0,0.2-0.2,0.2-0.3,0.2H10.1z"/>
	<path class="st0" d="M12.1,12.2c0,1.3,0,2.4,0.1,2.9c0,0.4,0.1,0.7,0.6,0.7c0.2,0,0.4,0,0.6,0c0.1,0,0.1,0,0.1,0.1
		c0,0.1-0.1,0.1-0.2,0.1c-0.8,0-1.7,0-1.7,0s-0.9,0-1.4,0C10,16,10,16,10,15.9s0-0.1,0.1-0.1s0.3,0,0.4,0c0.3-0.1,0.4-0.4,0.4-0.7
		c0.1-0.6,0.1-1.6,0.1-2.9V6.6H8.8C8,6.6,7.6,6.7,7.4,7C7.3,7.1,7.2,7.3,7.2,7.4S7.1,7.5,7.1,7.5s0,0,0-0.1S7.3,6.2,7.3,6
		s0.1-0.2,0.1-0.2C7.6,5.9,7.8,6,8,6c0.4,0,1,0,1.1,0h5.3c0.3,0,0.7,0,1-0.1c0.2,0,0.3-0.1,0.4-0.1s0.1,0.1,0.1,0.2
		c0,0.4,0,1.3,0,1.5s0,0.2-0.1,0.2s-0.1,0-0.1-0.2V7.3c0-0.4-0.4-0.7-1.7-0.7h-1.8L12.1,12.2z"/>
	<path class="st0" d="M23.5,16.2c-0.3,0-0.5,0-0.5-0.2c0-0.1,0-0.1,0.1-0.2c0.1,0,0.1-0.1,0-0.3l-1.3-3.3h-3.1L18,14.7
		c-0.1,0.3-0.2,0.6-0.2,0.9c0,0.2,0.3,0.3,0.5,0.3h0.1c0.1,0,0.2,0,0.2,0.2c0,0.1,0,0.2-0.3,0.2h-2.7c-0.2,0-0.3,0-0.3-0.2
		c0-0.1,0.1-0.2,0.1-0.2h0.5c0.6-0.1,0.8-0.5,1.1-1.2l3.1-8.4c0.2-0.4,0.2-0.6,0.4-0.6c0.1,0,0.2,0.1,0.4,0.5L21.2,7
		c0.7,1.7,2.3,5.7,3,7.4c0.5,1.1,0.8,1.4,1.2,1.4c0.2,0.1,0.3,0.1,0.5,0.1l0,0c0.1,0,0.2,0,0.2,0.2c0,0.1-0.1,0.2-0.4,0.2h-2.2
		C23.5,16.3,23.5,16.2,23.5,16.2z M20.3,7.9C20.2,7.9,20.2,8,20.3,7.9L19,11.6h2.7L20.3,7.9C20.3,8,20.3,7.9,20.3,7.9z"/>
	<path class="st0" d="M20.2,6.3c0.2-0.4,0.2-0.5,0.3-0.5s0.1,0.1,0.3,0.5s2.4,6,3.3,8.1c0.5,1.2,0.9,1.4,1.2,1.5
		c0.2,0.1,0.4,0.1,0.6,0.1c0.1,0,0.1,0,0.1,0.1s-0.1,0.1-0.3,0.1s-1.2,0-2.2,0c-0.3,0-0.4,0-0.4-0.1s0-0.1,0.1-0.1s0.2-0.1,0.1-0.4
		L22,12.2c0-0.1-0.1-0.1-0.1-0.1h-3c-0.1,0-0.1,0-0.1,0.1L18,14.6c-0.1,0.3-0.2,0.6-0.2,0.9c0,0.3,0.3,0.4,0.5,0.4h0.1
		c0.1,0,0.1,0,0.1,0.1s-0.1,0.1-0.2,0.1c-0.3,0-0.9,0-1.1,0s-0.9,0-1.6,0c-0.2,0-0.3,0-0.3-0.1s0.1-0.1,0.1-0.1h0.4
		c0.7-0.1,0.9-0.6,1.2-1.3L20.2,6.3z M21.6,11.7c0.1,0,0.1,0,0.1-0.1L20.4,8c-0.1-0.2-0.1-0.2-0.2,0L19,11.6c0,0.1,0,0.1,0,0.1
		L21.6,11.7z"/>
	<path class="st0" d="M32.4,16.4c-1.6,0-3.1-0.5-4.4-1.5c-1.1-1-1.7-2.4-1.7-3.9c-0.1-1.8,0.8-3.5,2.4-4.5c1-0.6,2.2-0.9,3.4-0.9
		c0.1,0,0.2,0,0.4,0c0.7,0,1.4,0.1,2.1,0.2C35,6,35.4,6.1,35.7,6.1S36,6.2,36,6.3c-0.1,0.6-0.1,1.3-0.1,1.9c0,0.2,0,0.4-0.2,0.4
		s-0.2-0.1-0.2-0.2c0-0.4-0.1-0.7-0.3-0.9C34.9,7,33.7,6.4,32,6.4c-0.1,0-0.2,0-0.3,0c-1,0-1.9,0.3-2.7,0.9
		c-0.9,0.9-1.4,2.1-1.4,3.3c0,1.4,0.5,2.7,1.5,3.7c1,0.9,2.2,1.4,3.5,1.4h0.2c0.5,0,1-0.1,1.4-0.3c0.2-0.1,0.2-0.2,0.2-0.4v-2.3
		c0-1.1-0.1-1.2-0.6-1.3c-0.1,0-0.1,0-0.2,0s-0.2,0-0.2,0l0,0c-0.1,0-0.2-0.1-0.2-0.2c0-0.2,0.2-0.2,0.3-0.2h3c0.1,0,0.3,0,0.3,0.2
		c0,0.1-0.1,0.2-0.1,0.2c-0.1,0-0.2,0-0.2,0s-0.1,0-0.2,0c-0.3,0-0.4,0.2-0.5,0.7c0,0.3,0,0.6,0,0.9c0,0.2,0,0.3,0,0.5V15
		c0,0.6,0,0.7-0.2,0.8c-0.9,0.4-1.9,0.6-2.9,0.6C32.6,16.4,32.5,16.4,32.4,16.4z"/>
	<path class="st0" d="M34.6,12.7c0-1.1-0.1-1.2-0.6-1.4c-0.2,0-0.3,0-0.5,0c0,0-0.1,0-0.1-0.1s0.1-0.1,0.2-0.1c0.6,0,1.5,0,1.6,0
		s1,0,1.4,0c0.2,0,0.2,0,0.2,0.1s-0.1,0.1-0.1,0.1c-0.1,0-0.2,0-0.3,0c-0.4,0.1-0.5,0.3-0.5,0.8s0,0.8,0,1.4V15c0,0.6,0,0.6-0.2,0.7
		c-0.9,0.4-2,0.6-3,0.6c-1.7,0.1-3.3-0.4-4.6-1.4c-1.1-1-1.7-2.4-1.7-3.8c-0.1-1.8,0.8-3.5,2.4-4.4c1.1-0.6,2.4-0.9,3.7-0.8
		c0.7,0,1.4,0.1,2.1,0.2c0.4,0.1,0.8,0.1,1.1,0.1c0.1,0,0.2,0.1,0.2,0.1c-0.1,0.6-0.1,1.3-0.1,1.9c0,0.2,0,0.3-0.1,0.3
		s-0.1-0.1-0.1-0.2c0-0.3-0.1-0.6-0.3-0.9C35,6.9,33.8,6.3,32,6.3c-1.1-0.1-2.1,0.3-3,0.9c-1,0.9-1.5,2.1-1.4,3.4
		c0,1.4,0.5,2.7,1.5,3.7c1,0.9,2.3,1.4,3.7,1.4c0.5,0,1.1-0.1,1.6-0.3c0.2-0.1,0.3-0.3,0.3-0.5L34.6,12.7z"/>
	<path class="st0" d="M39.3,16.2c-0.2,0-0.3,0-0.3-0.2v-0.1l0.1-0.1c0.2,0,0.2,0,0.3,0s0.1,0,0.2,0c0.2,0,0.3-0.3,0.3-0.7
		c0.1-0.6,0.1-1.6,0.1-2.9V7c0-0.3-0.1-0.6-0.4-0.7c-0.1,0-0.3-0.1-0.4-0.1c-0.2,0-0.2,0-0.2-0.1c0-0.2,0.2-0.2,0.3-0.2h2.8
		c0.1,0,0.3,0,0.3,0.2c0,0.1-0.1,0.2-0.1,0.2h-0.2h-0.2c-0.3,0.1-0.4,0.2-0.5,0.7c0,0.3,0,0.5,0,1c0,0.4,0,1,0,1.9v2.4
		c0,1.3,0,2.3,0.1,2.9c0,0.4,0.2,0.6,0.5,0.7c0.1,0,0.2,0,0.3,0s0.3,0,0.3,0c0.1,0,0.2,0,0.2,0.2c0,0.2-0.2,0.2-0.3,0.2L39.3,16.2
		L39.3,16.2z"/>
	<path class="st0" d="M41.2,12.2c0,1.3,0,2.4,0.1,2.9c0,0.4,0.1,0.7,0.5,0.7c0.2,0,0.4,0,0.6,0c0.1,0,0.1,0,0.1,0.1
		c0,0.1-0.1,0.1-0.2,0.1c-0.8,0-1.7,0-1.7,0s-1,0-1.4,0C39,16,39,16,39,15.9s0-0.1,0.1-0.1s0.3,0,0.4,0c0.3-0.1,0.3-0.4,0.4-0.7
		c0.1-0.6,0.1-1.6,0.1-2.9V9.9c0-2.1,0-2.5,0-2.9s-0.2-0.7-0.5-0.8c-0.1,0-0.3-0.1-0.4-0.1c0,0-0.1,0-0.1-0.1s0.1,0,0.3,0
		c0.5,0,1.3,0,1.4,0s1,0,1.4,0c0.2,0,0.2,0,0.2,0.1s-0.1,0.1-0.1,0.1c-0.1,0-0.2,0-0.3,0c-0.4,0.1-0.5,0.3-0.5,0.8s0,0.8,0,2.9
		L41.2,12.2z"/>
	<path class="st0" d="M54.8,16.3c-0.2,0-0.3-0.1-1-0.8c-0.2-0.2-2.2-2.2-3.7-3.7s-3-3.1-3.5-3.7l0.1,6.2c0,1.1,0.2,1.4,0.5,1.5
		c0.2,0.1,0.4,0.1,0.7,0.1l0,0c0.1,0,0.2,0,0.2,0.2s-0.2,0.2-0.3,0.2H45c-0.1,0-0.3,0-0.3-0.2V16l0.1-0.1c0,0,0,0,0.1,0
		c0.3,0,0.4,0,0.6-0.1c0.3-0.1,0.4-0.4,0.4-1.6V6.5c0-0.6,0-0.7,0.2-0.7c0.1,0,0.3,0.2,0.4,0.3l0.1,0.1l4.5,4.6
		c0.7,0.7,1.5,1.5,2.1,2.2c0.5,0.5,0.9,0.9,1.1,1.2L54,7.5c0-0.9-0.1-1.1-0.5-1.2c-0.2,0-0.4-0.1-0.7-0.1l0,0c-0.1,0-0.2,0-0.2-0.2
		s0.2-0.2,0.4-0.2h2.7c0.2,0,0.3,0,0.3,0.2s-0.1,0.2-0.2,0.2c-0.1,0-0.2,0-0.2,0s-0.1,0-0.2,0C55,6.3,55,6.5,55,7.4v7.9
		C55,16.2,55,16.3,54.8,16.3z"/>
	<path class="st0" d="M46.6,14.3c0,1.1,0.2,1.4,0.5,1.6c0.2,0.1,0.5,0.1,0.7,0.1c0.1,0,0.1,0,0.1,0.1s-0.1,0.1-0.2,0.1
		c-0.8,0-1.4,0-1.5,0s-0.7,0-1.3,0c-0.1,0-0.2,0-0.2-0.1s0-0.1,0.1-0.1c0.2,0,0.4,0,0.6-0.1c0.3-0.1,0.4-0.5,0.4-1.7V6.5
		c0-0.5,0-0.7,0.2-0.7s0.3,0.3,0.5,0.4l4.5,4.6c1.4,1.4,2.9,3.1,3.4,3.5l-0.2-6.8c0-0.9-0.1-1.2-0.5-1.3c-0.2,0-0.5-0.1-0.7-0.1
		c-0.1,0-0.1,0-0.1-0.1s0,0,0.1,0c0.6,0,1.3,0,1.5,0s0.6,0,1.2,0c0.2,0,0.2,0,0.2,0.1s-0.1,0.1-0.2,0.1c-0.1,0-0.2,0-0.3,0
		c-0.5,0.1-0.5,0.4-0.5,1.2v7.9c0,0.9,0,1-0.1,1s-0.3-0.1-1-0.9c-0.2-0.1-2.2-2.1-3.7-3.6c-1.6-1.7-3.2-3.4-3.7-3.8L46.6,14.3z"/>
	<path class="st0" d="M63.7,16.4c-1.6,0-3.1-0.5-4.3-1.5c-1.1-1-1.7-2.4-1.7-3.9c-0.1-1.8,0.8-3.5,2.4-4.5c1-0.6,2.2-0.9,3.4-0.9
		c0.1,0,0.2,0,0.4,0c0.7,0,1.4,0.1,2.1,0.2c0.4,0.1,0.7,0.1,1.1,0.1c0.2,0,0.2,0.1,0.2,0.2c-0.1,0.6-0.1,1.3-0.1,1.9
		c0,0.2,0,0.4-0.2,0.4s-0.2-0.1-0.2-0.2c0-0.4-0.1-0.7-0.3-0.9c-0.4-0.5-1.5-1.1-3.2-1.1c-0.1,0-0.2,0-0.3,0c-1,0-1.9,0.3-2.7,0.9
		c-0.9,0.8-1.4,2.1-1.4,3.3c0,1.4,0.5,2.7,1.5,3.7c1,0.9,2.2,1.4,3.5,1.4h0.2c0.5,0,1-0.1,1.4-0.3c0.2-0.1,0.3-0.2,0.3-0.4v-2.3
		c0-1.1-0.1-1.2-0.6-1.3c-0.1,0-0.1,0-0.2,0s-0.2,0-0.2,0l0,0c-0.1,0-0.2,0-0.2-0.2s0.2-0.2,0.3-0.2h3c0.2,0,0.3,0,0.3,0.2v0.1
		l-0.1,0.1c-0.1,0-0.2,0-0.3,0s-0.1,0-0.2,0c-0.3,0-0.4,0.2-0.5,0.7c0,0.3,0,0.6,0,0.9c0,0.2,0,0.3,0,0.5V15c0,0.6,0,0.7-0.2,0.8
		C66,16.2,65,16.4,64,16.4C64.1,16.4,63.8,16.4,63.7,16.4z"/>
	<path class="st0" d="M66,12.7c0-1.1-0.1-1.2-0.6-1.4c-0.2,0-0.3,0-0.5,0c-0.1,0-0.1,0-0.1-0.1s0.1-0.1,0.2-0.1c0.6,0,1.5,0,1.6,0
		s1,0,1.4,0c0.2,0,0.2,0,0.2,0.1s0,0.1-0.1,0.1s-0.2,0-0.3,0c-0.4,0.1-0.5,0.3-0.5,0.8s0,0.8,0,1.4V15c0,0.6,0,0.6-0.2,0.7
		c-0.9,0.4-2,0.6-3,0.6c-1.7,0.1-3.3-0.4-4.6-1.4c-1.1-1-1.7-2.4-1.7-3.8c-0.1-1.8,0.8-3.5,2.3-4.4c1.1-0.6,2.4-0.9,3.7-0.8
		c0.7,0,1.4,0.1,2.1,0.2c0.4,0.1,0.7,0.1,1.1,0.1c0.1,0,0.2,0.1,0.2,0.1c-0.1,0.6-0.1,1.3-0.1,1.9c0,0.2,0,0.3-0.1,0.3
		s-0.1-0.1-0.1-0.2c0-0.3-0.1-0.6-0.3-0.9c-0.3-0.5-1.5-1.1-3.3-1.1c-1.1-0.1-2.1,0.3-3,0.9c-1,0.9-1.5,2.1-1.4,3.4
		c0,1.4,0.5,2.7,1.5,3.7c1,0.9,2.3,1.5,3.7,1.4c0.5,0,1.1-0.1,1.6-0.3c0.2-0.1,0.3-0.2,0.3-0.4V12.7z"/>
</g>
<g>
	<path class="st0" d="M98.2,16.4c-0.1,0-0.2,0-0.3,0c0,0,0,0-0.1,0c-0.6,0-1.3,0-1.9-0.1l-1.2-0.1h-1.4c-0.2,0-0.3,0-0.3-0.2v-0.1
		l0.1-0.1c0.2,0,0.2,0,0.3,0s0.1,0,0.2,0c0.2,0,0.3-0.3,0.3-0.7c0.1-0.6,0.1-1.6,0.1-2.9V7c0-0.4-0.1-0.6-0.5-0.7
		c-0.1,0-0.1,0-0.2,0s-0.2,0-0.2,0c-0.1,0-0.2,0-0.2-0.2s0.2-0.2,0.3-0.2h4.1c1.8,0,3.7,0.2,5.1,1.6c0.9,0.9,1.4,2.2,1.4,3.5
		c0,1.4-0.5,2.8-1.5,3.8C101.1,15.8,99.7,16.4,98.2,16.4z M96.4,6.6c-0.3,0-0.6,0-0.8,0.1c-0.1,0-0.1,0.1-0.1,0.2v7.4
		c0,0.3,0,0.7,0.1,1c0.2,0.2,0.7,0.5,2.3,0.5l0,0c1.3,0,2.4-0.4,3.3-1.2c0.8-0.9,1.1-2,1.1-3.2S101.9,9,101,8.1
		c-1.1-1-2.5-1.5-3.9-1.5C96.8,6.5,96.6,6.5,96.4,6.6L96.4,6.6z"/>
	<path class="st0" d="M94.2,9.9c0-2.1,0-2.5,0-2.9S94,6.3,93.6,6.2c-0.2,0-0.3,0-0.5,0c-0.1,0-0.1,0-0.1-0.1S93,6,93.2,6
		c0.6,0,1.5,0,1.6,0s1.1,0,1.9,0c1.4,0,4-0.1,5.6,1.5c0.9,0.9,1.4,2.1,1.4,3.4c0,1.4-0.5,2.8-1.5,3.8c-1.1,1.1-2.7,1.6-4.2,1.5
		c-0.6,0-1.3,0-1.9-0.1L94.9,16h-0.6c-0.3,0-0.6,0-0.8,0s-0.2,0-0.2-0.1s0-0.1,0.1-0.1s0.3,0,0.4,0c0.3-0.1,0.3-0.4,0.4-0.7
		c0.1-0.6,0.1-1.6,0.1-2.9L94.2,9.9z M95.3,11.3c0,1.4,0,2.6,0,2.9c0,0.3,0,0.7,0.2,1c0.2,0.2,0.7,0.5,2.4,0.5
		c1.2,0,2.4-0.4,3.3-1.2c0.8-0.9,1.2-2,1.1-3.2c0-1.2-0.5-2.4-1.3-3.3c-1.2-1.1-2.9-1.7-4.6-1.5c-0.3,0-0.6,0-0.9,0.1
		c-0.1,0-0.2,0.2-0.2,0.3c0,0.5,0,1.8,0,2.9V11.3z"/>
	<path class="st0" d="M106.2,16.3c-0.2,0-0.3,0-0.3-0.2V16h0.1c0.2,0,0.2,0,0.3,0s0.1,0,0.2,0c0.2,0,0.3-0.3,0.3-0.7
		c0.1-0.6,0.1-1.6,0.1-2.9l-0.1-2.5V7c0-0.4-0.1-0.6-0.6-0.7c-0.1,0-0.1,0-0.2,0s-0.2,0-0.2,0c-0.1,0-0.2,0-0.2-0.2s0.2-0.2,0.3-0.2
		h4.8c0.2,0,0.4,0,0.6-0.1c0.1,0,0.2-0.1,0.2-0.1l0,0h0.1v0.1c0,0.1,0,0.2,0,0.2c0,0.1-0.1,0.2-0.1,0.4c0,0.5,0,0.8-0.1,0.9
		c0,0.1,0,0.1,0,0.1v0.1h-0.1c-0.2,0-0.2-0.2-0.2-0.2c0-0.2,0-0.3-0.1-0.5s-0.2-0.3-0.9-0.4h-1.9v3.8l2.3,0.1c0.3,0,0.4-0.1,0.6-0.2
		c0.1-0.1,0.2-0.2,0.3-0.2c0.1,0,0.1,0.1,0.1,0.2c0,0.1,0,0.1,0,0.2c0,0.1-0.1,0.3-0.1,0.5v0.9c0,0.1,0,0.3-0.2,0.3
		s-0.2-0.1-0.2-0.2c0-0.1,0-0.3-0.1-0.4c0-0.2-0.2-0.4-0.7-0.4l0,0c-0.2,0-0.7,0-1.2,0c-0.4,0-0.7,0-0.8,0v1.2v2.3
		c0,0.8,0.1,1,1.6,1c0.1,0,0.1,0,0.2,0c0.4,0,0.8-0.1,1.1-0.2c0.3-0.1,0.5-0.4,0.6-0.9c0-0.1,0-0.3,0.2-0.3l0,0h0.1
		c0,0.1,0,0.1,0,0.2c0,0.5-0.1,0.9-0.2,1.4c-0.1,0.4-0.3,0.4-0.8,0.4h-4.8L106.2,16.3L106.2,16.3z"/>
	<path class="st0" d="M106.9,9.9c0-2.1,0-2.5,0-2.9s-0.1-0.7-0.6-0.8c-0.2,0-0.3,0-0.5,0c-0.1,0-0.1,0-0.1-0.1s0.1-0.1,0.2-0.1
		c0.3,0,0.7,0,1,0h0.6h3.2c0.2,0,0.4,0,0.6-0.1c0.1,0,0.1-0.1,0.2-0.1s0.1,0,0.1,0.1s-0.1,0.2-0.1,0.6c0,0.1,0,0.7-0.1,0.9
		s0,0.2-0.1,0.2s-0.1-0.1-0.1-0.2c0-0.2,0-0.3-0.1-0.5s-0.2-0.4-1-0.4c-0.2,0-1.8,0-1.9,0s-0.1,0-0.1,0.1v3.7c0,0.1,0,0.1,0.1,0.1
		s1.9,0,2.2,0c0.2,0,0.5,0,0.7-0.2c0.1-0.1,0.2-0.2,0.2-0.2s0.1,0,0.1,0.1s-0.1,0.3-0.1,0.8c0,0.3,0,0.8,0,0.9s0,0.2-0.1,0.2
		s-0.2,0.1-0.2,0s0-0.3-0.1-0.4c0-0.2-0.2-0.4-0.7-0.5c-0.4,0-1.8-0.1-2-0.1c0,0-0.1,0-0.1,0.1l0,0v1.2c0,0.5,0,2,0,2.3
		c0,0.9,0.2,1.1,1.6,1.1c0.5,0,0.9,0,1.3-0.1s0.5-0.4,0.6-1c0-0.1,0-0.2,0.1-0.2s0.1,0.1,0.1,0.2c0,0.4-0.1,0.9-0.2,1.3
		s-0.2,0.4-0.8,0.4c-1.1,0-1.8,0-2.4,0h-1.1H107c-0.3,0-0.6,0-0.8,0s-0.2,0-0.2-0.1s0-0.1,0.1-0.1s0.3,0,0.4,0
		c0.3-0.1,0.3-0.4,0.4-0.7c0.1-0.6,0.1-1.6,0.1-2.9L106.9,9.9z"/>
	<path class="st0" d="M116.3,16.4c-0.7,0-1.3-0.1-1.8-0.4c-0.2-0.1-0.3-0.2-0.3-0.6c0-0.5,0-0.9,0.1-1.2V14c0-0.2,0-0.3,0.2-0.3
		c0.1,0,0.1,0,0.2,0l0,0v0.1c0,0.2,0,0.4,0,0.5c0.2,0.8,0.9,1.3,1.7,1.3c0.1,0,0.2,0,0.2,0c0.1,0,0.1,0,0.2,0c0.9,0,1.7-0.7,1.7-1.6
		v-0.1c0-0.9-0.3-1.4-1.6-2.4l-0.6-0.5c-1.5-1.2-1.8-2.1-1.8-3c0-1.5,1.2-2.5,3-2.5l0,0c0.5,0,0.9,0,1.3,0.1c0.2,0,0.3,0.1,0.5,0.1
		l0,0c0.1,0,0.2,0,0.2,0.2V6c0,0.2-0.1,0.6-0.1,1.3c0,0.2,0,0.4-0.2,0.4S119,7.6,119,7.5c0-0.2-0.1-0.5-0.2-0.7s-0.6-0.7-1.7-0.7
		c-0.1,0-0.1,0-0.2,0c-0.8,0-1.4,0.6-1.5,1.3c0,0.1,0,0.1,0,0.2c0,0.7,0.3,1.2,1.7,2.2l0.4,0.3c1.7,1.3,2,2.1,2,3.2
		c0,0.9-0.5,1.8-1.2,2.3c-0.6,0.4-1.3,0.6-2,0.6C116.5,16.4,116.3,16.4,116.3,16.4z"/>
	<path class="st0" d="M114.5,16c-0.2-0.1-0.2-0.1-0.2-0.5c0-0.7,0.1-1.2,0.1-1.4s0-0.2,0.1-0.2s0.1,0,0.1,0.1c0,0.2,0,0.3,0.1,0.5
		c0.3,0.9,1.1,1.5,2.1,1.4c1,0.1,1.9-0.6,2-1.7v-0.1c0-0.9-0.4-1.5-1.6-2.4l-0.6-0.5c-1.5-1.2-1.8-2-1.8-2.9c0-1.4,1.1-2.4,2.9-2.4
		c0.4,0,0.9,0,1.3,0.1c0.2,0,0.3,0.1,0.5,0.1c0.1,0,0.1,0,0.1,0.1s-0.1,0.5-0.1,1.4c0,0.2,0,0.3-0.1,0.3s-0.1-0.1-0.1-0.2
		c0-0.2-0.1-0.5-0.2-0.7s-0.5-0.7-1.8-0.7c-0.9-0.1-1.6,0.5-1.7,1.4c0,0.1,0,0.1,0,0.2c0,0.8,0.4,1.2,1.7,2.3l0.4,0.3
		c1.7,1.2,2,2.1,2,3.2c0,0.9-0.5,1.7-1.2,2.2c-0.6,0.4-1.4,0.6-2.1,0.6C115.7,16.4,115.1,16.2,114.5,16z"/>
	<path class="st0" d="M122.6,16.2c-0.1,0-0.3,0-0.3-0.2v-0.1l0.1-0.1c0.2,0,0.2,0,0.3,0s0.1,0,0.2,0c0.2,0,0.3-0.3,0.3-0.7
		c0.1-0.6,0.1-1.6,0.1-2.9V7c0-0.3-0.1-0.6-0.4-0.7c-0.1,0-0.3-0.1-0.4-0.1l0,0c-0.1,0-0.2,0-0.2-0.2s0.2-0.2,0.3-0.2h2.8
		c0.1,0,0.3,0,0.3,0.2v0.1l-0.1,0.1h-0.3h-0.2c-0.3,0.1-0.4,0.2-0.5,0.7c0,0.3,0,0.5,0,1c0,0.4,0,1,0,1.9l-0.1,2.4
		c0,1.3,0,2.3,0.1,2.9c0,0.4,0.2,0.6,0.5,0.7c0.1,0,0.2,0,0.3,0s0.3,0,0.3,0c0.1,0,0.2,0,0.2,0.2c0,0.2-0.2,0.2-0.3,0.2H122.6z"/>
	<path class="st0" d="M124.6,12.2c0,1.3,0,2.4,0.1,2.9c0,0.4,0.1,0.7,0.6,0.7c0.2,0,0.4,0,0.6,0c0.1,0,0.1,0,0.1,0.1
		c0,0.1-0.1,0.1-0.2,0.1c-0.8,0-1.7,0-1.7,0s-1,0-1.4,0c-0.2,0-0.2,0-0.2-0.1s0-0.1,0.1-0.1s0.3,0,0.4,0c0.3-0.1,0.3-0.4,0.4-0.7
		c0.1-0.6,0.1-1.6,0.1-2.9V9.9c0-2.1,0-2.5,0-2.9s-0.2-0.7-0.5-0.8c-0.1,0-0.3-0.1-0.4-0.1s-0.1,0-0.1-0.1s0.1-0.1,0.2-0.1
		c0.5,0,1.3,0,1.4,0s1,0,1.4,0c0.2,0,0.2,0,0.2,0.1s0,0.1-0.1,0.1s-0.2,0-0.3,0c-0.4,0.1-0.5,0.3-0.5,0.8s0,0.8,0,2.9L124.6,12.2z"
		/>
	<path class="st0" d="M133.8,16.4c-1.6,0-3.1-0.5-4.3-1.5c-1.1-1-1.7-2.4-1.7-3.9c-0.1-1.8,0.8-3.5,2.4-4.5c1-0.6,2.2-0.9,3.4-0.9
		c0.1,0,0.2,0,0.4,0c0.7,0,1.4,0.1,2.1,0.2c0.4,0.1,0.7,0.1,1.1,0.1c0.2,0,0.2,0.1,0.2,0.2c-0.1,0.6-0.1,1.3-0.1,1.9
		c0,0.2,0,0.4-0.2,0.4l0,0H137V8.3c0-0.4-0.1-0.7-0.3-0.9c-0.4-0.5-1.5-1.1-3.2-1.1c-0.1,0-0.2,0-0.3,0c-1,0-1.9,0.3-2.7,0.9
		c-0.9,0.8-1.5,2.1-1.4,3.4c0,1.4,0.5,2.7,1.5,3.7c1,0.9,2.2,1.4,3.6,1.4h0.2c0.5,0,1-0.1,1.5-0.3c0.2-0.1,0.2-0.2,0.2-0.4v-2.3
		c0-1.1-0.1-1.2-0.6-1.3c-0.1,0-0.1,0-0.2,0c-0.1,0-0.2,0-0.2,0l0,0c-0.1,0-0.2,0-0.2-0.2s0.2-0.2,0.3-0.2h3c0.1,0,0.3,0,0.3,0.2
		v0.1l-0.1,0.1c-0.1,0-0.2,0-0.3,0s-0.1,0-0.2,0c-0.3,0-0.4,0.2-0.5,0.7c0,0.3,0,0.6,0,0.9c0,0.2,0,0.3,0,0.5V15
		c0,0.6,0,0.7-0.2,0.8c-0.9,0.4-1.9,0.6-2.9,0.6C134.2,16.4,133.9,16.4,133.8,16.4z"/>
	<path class="st0" d="M136.1,12.7c0-1.1-0.1-1.2-0.6-1.4c-0.2,0-0.3,0-0.5,0c-0.1,0-0.1,0-0.1-0.1s0.1-0.1,0.2-0.1
		c0.6,0,1.5,0,1.6,0s1,0,1.4,0c0.1,0,0.2,0,0.2,0.1s0,0.1-0.1,0.1s-0.2,0-0.4,0c-0.4,0.1-0.5,0.3-0.5,0.8s0,0.8,0,1.4V15
		c0,0.6,0,0.6-0.2,0.7c-0.9,0.4-2,0.6-3,0.6c-1.7,0.1-3.3-0.4-4.6-1.4c-1.1-1-1.7-2.4-1.7-3.8c-0.1-1.8,0.8-3.5,2.3-4.4
		c1.1-0.6,2.4-0.9,3.7-0.8c0.7,0,1.4,0.1,2.1,0.2c0.4,0.1,0.7,0.1,1.1,0.1c0.1,0,0.2,0.1,0.2,0.1c-0.1,0.6-0.1,1.3-0.1,1.9
		c0,0.2,0,0.3-0.1,0.3s0-0.1,0-0.3c0-0.3-0.1-0.6-0.3-0.9c-0.4-0.5-1.5-1.1-3.3-1.1c-1.1-0.1-2.1,0.3-3,0.9c-1,0.9-1.5,2.1-1.4,3.4
		c0,1.4,0.5,2.7,1.5,3.7c1,0.9,2.3,1.5,3.7,1.4c0.5,0,1.1-0.1,1.6-0.3c0.2-0.1,0.3-0.3,0.3-0.5L136.1,12.7L136.1,12.7z"/>
	<path class="st0" d="M150,16.3c-0.2,0-0.3-0.1-1.1-0.9c-0.2-0.1-2.2-2.1-3.7-3.6s-3-3.1-3.5-3.7l0.1,6.2c0,1.1,0.2,1.4,0.5,1.5
		c0.2,0.1,0.4,0.1,0.7,0.1l0,0c0.1,0,0.2,0,0.2,0.2s-0.2,0.2-0.3,0.2h-2.8c-0.1,0-0.3,0-0.3-0.2V16l0.1-0.1c0,0,0,0,0.1,0
		c0.2,0,0.4,0,0.6-0.1c0.3-0.1,0.4-0.4,0.4-1.6V6.5c0-0.6,0-0.7,0.2-0.7c0.1,0,0.3,0.2,0.4,0.3l0.1,0.1l4.5,4.6
		c0.7,0.7,1.5,1.5,2.1,2.2c0.5,0.5,0.9,0.9,1.1,1.2l-0.2-6.6c0-0.8-0.1-1.1-0.5-1.2c-0.2,0-0.4-0.1-0.7-0.1c-0.1,0-0.2,0-0.2-0.2
		s0.2-0.2,0.4-0.2h2.7c0.2,0,0.3,0,0.3,0.2s-0.1,0.2-0.2,0.2c-0.1,0-0.2,0-0.2,0s-0.1,0-0.2,0c-0.4,0.1-0.5,0.3-0.5,1.1v7.9
		C150.2,16.2,150.2,16.3,150,16.3z"/>
	<path class="st0" d="M141.9,14.3c0,1.1,0.2,1.4,0.5,1.6c0.2,0.1,0.5,0.1,0.7,0.1c0.1,0,0.1,0,0.1,0.1s-0.1,0.1-0.3,0.1
		c-0.8,0-1.4,0-1.5,0s-0.7,0-1.4,0c-0.1,0-0.2,0-0.2-0.1s0-0.1,0.1-0.1c0.2,0,0.4,0,0.6-0.1c0.4-0.1,0.4-0.5,0.4-1.7V6.5
		c0-0.5,0-0.7,0.1-0.7s0.4,0.3,0.5,0.4l4.5,4.6c1.4,1.4,2.9,3.1,3.4,3.5l-0.2-6.8c0-0.9-0.1-1.2-0.5-1.3c-0.2,0-0.5-0.1-0.7-0.1
		c-0.1,0-0.1,0-0.1-0.1s0.1-0.1,0.3-0.1c0.6,0,1.3,0,1.5,0s0.6,0,1.2,0c0.1,0,0.2,0,0.2,0.1S151,6.1,151,6.1c-0.1,0-0.2,0-0.3,0
		c-0.5,0.1-0.5,0.4-0.5,1.2v7.9c0,0.9,0,1-0.1,1s-0.3-0.1-1-0.9c-0.1-0.1-2.2-2.1-3.7-3.6c-1.6-1.7-3.2-3.4-3.7-3.8L141.9,14.3z"/>
</g>
<path class="st1" d="M78.1,16.5c-2.5,0-4.6-2-4.8-4.5v-0.1c0.1-2.1,1.3-4.1,3.2-5.1c-0.6-0.8-1-1.8-1-2.9C75.7,1.7,77.6,0,79.9,0
	c0.1,0,0.2,0,0.2,0h0.2c0.8,0,1.6,0.2,2.4,0.5c0.2,0.1,0.4,0.4,0.3,0.6c0,0.6-0.1,2.1-0.2,2.4s-0.1,0.4-0.3,0.4
	c-0.2,0-0.2-0.2-0.2-0.5c0-0.6-0.2-1.3-0.6-1.7c-0.5-0.6-1.3-0.9-2-0.9h-0.1c-1.3,0-2.4,1-2.5,2.4c0,0.1,0,0.2,0,0.3
	C77,5,78,6.3,80.2,8.8c0.7,0.8,3.1,3.1,3.9,3.7c0.6-1,1-2.2,1-3.4c0-0.4-0.1-0.7-0.4-0.9c-0.2-0.2-0.6-0.3-0.9-0.3l0,0
	c-0.2,0-0.3,0-0.3-0.2s0.2-0.2,0.3-0.2c0.9,0,1.7,0.1,2.6,0.1l0,0c0.3,0,0.4,0.2,0.4,0.5c-0.2,1.8-0.9,3.6-2,5
	c0.9,0.7,1.8,1.4,2.8,1.9c0.7,0.5,1.6,0.7,2.5,0.8l0,0c0.2,0,0.3,0,0.3,0.2c0,0.2-0.3,0.2-0.4,0.2h-2c-1.6,0-2-0.1-4.4-2
	c-1.2,1.5-3.1,2.3-5.1,2.3C78.3,16.5,78.2,16.5,78.1,16.5z M76.8,7.4c-1.2,0.7-1.8,2-1.8,3.4c-0.1,1.1,0.3,2.2,1,3s1.8,1.3,2.9,1.4
	c0.1,0,0.3,0,0.3,0c1.4,0,2.7-0.5,3.7-1.5c-1.2-1.1-3.2-3-3.7-3.5C78.3,9.4,77.5,8.4,76.8,7.4z"/>
<path class="st1" d="M73.3,11.8c0.1-2.1,1.3-4.1,3.2-5.1c-0.6-0.8-1-1.8-1-2.9c0.2-2.3,2.2-4,4.5-3.9c0.9,0,1.7,0.1,2.5,0.5
	c0.2,0.1,0.3,0.3,0.3,0.5c0,0.6-0.1,2.1-0.2,2.4s-0.1,0.4-0.2,0.4s-0.1-0.1-0.1-0.4c0-0.7-0.2-1.3-0.7-1.8c-0.5-0.6-1.3-0.9-2.1-0.9
	c-1.4-0.1-2.6,1-2.7,2.4c0,0.1,0,0.2,0,0.3c0,1.6,1.1,3,3.3,5.4c0.7,0.8,3.3,3.2,3.9,3.8c0.7-1,1.1-2.2,1.1-3.5c0-0.4-0.1-0.7-0.4-1
	c-0.3-0.2-0.6-0.4-1-0.3c-0.1,0-0.2,0-0.2-0.2s0.2-0.1,0.3-0.1c0.8,0,1.7,0.1,2.5,0.1c0.3,0,0.4,0.2,0.4,0.4c-0.2,1.8-0.9,3.6-2.1,5
	c0.9,0.7,1.8,1.4,2.9,2c0.8,0.5,1.6,0.7,2.5,0.8c0.2,0,0.3,0,0.3,0.1S90.1,16,89.9,16h-2c-1.5,0-2-0.1-4.3-2
	c-1.3,1.5-3.2,2.3-5.2,2.3C75.8,16.5,73.5,14.5,73.3,11.8C73.3,11.9,73.3,11.9,73.3,11.8z M83,13.8c-1.2-1-3.2-3-3.8-3.5
	c-0.9-0.9-1.7-1.9-2.5-3c-1.2,0.8-1.9,2.1-1.9,3.5c-0.1,2.3,1.6,4.4,4,4.5c0.1,0,0.1,0,0.2,0C80.6,15.4,82,14.8,83,13.8L83,13.8z"/>
<path class="st1" d="M43.3,29.3c-0.1,0-0.2-0.1-0.7-0.6c-0.1-0.1-1.2-1.2-2.2-2.3c-0.8-0.9-1.7-1.8-2-2.2l0.1,3.8
	c0,0.7,0.1,0.9,0.3,0.9c0.1,0,0.1,0,0.2,0c0.1,0,0.1,0,0.2,0h0.1l0.1,0.1c0,0.1-0.1,0.1-0.2,0.1h-1.7c-0.1,0-0.2,0-0.2-0.1l0,0h0.1
	c0.1,0,0.1,0,0.2,0s0.1,0,0.2,0c0.2,0,0.2-0.2,0.2-1v-4.8c0-0.3,0-0.5,0.2-0.5c0.1,0,0.2,0.1,0.3,0.2l0.3,0.3
	c0.4,0.4,1.4,1.5,2.5,2.7c0.5,0.5,1,1.1,1.4,1.5c0.2,0.2,0.4,0.4,0.5,0.5l-0.1-4.1c0-0.6-0.1-0.7-0.3-0.7c-0.1,0-0.1,0-0.2,0
	c-0.1,0-0.1,0-0.2,0h-0.1L42,23c0-0.1,0.1-0.1,0.2-0.1h1.6c0.2,0,0.2,0.1,0.2,0.2l-0.2,0.1h-0.1c-0.3,0.1-0.3,0.2-0.3,0.7v4.9
	C43.5,29.3,43.5,29.3,43.3,29.3z"/>
<path class="st1" d="M43.9,22.9h-0.7h-0.9c-0.1,0-0.2,0-0.2,0.1s0,0,0.1,0s0.3,0,0.4,0c0.3,0.1,0.3,0.2,0.3,0.8l0.1,4.3
	c-0.3-0.3-1.2-1.3-2-2.2c-1.3-1.4-2.5-2.7-2.6-2.9s-0.2-0.3-0.3-0.3S38,22.9,38,23.2V28c0,0.8,0,1-0.2,1c-0.1,0-0.2,0-0.3,0h-0.1
	c0,0,0,0.1,0.1,0.1c0.4,0,0.7,0,0.8,0s0.4,0,0.9,0c0.1,0,0.1,0,0.1-0.1s0,0-0.1,0s-0.3,0-0.4,0c-0.2-0.1-0.3-0.3-0.3-1l-0.1-4
	c0.3,0.3,1.2,1.3,2.2,2.4s2.1,2.2,2.2,2.3c0.4,0.4,0.5,0.5,0.6,0.5s0.1,0,0.1-0.6v-4.9c0-0.5,0-0.7,0.3-0.7
	C43.9,23,43.9,23,43.9,22.9c0.2,0.1,0.2,0.1,0.2,0.1S44,22.9,43.9,22.9z"/>
<path class="st1" d="M50.6,29.1c-0.1,0-0.2,0-0.2-0.1v-0.1h0.1h0.1h0.1c0.1,0,0.2,0,0.2-0.4v-3.3c0-0.6,0-0.9,0-1.2
	c0-0.3,0-0.5,0-0.6c0-0.3-0.1-0.4-0.3-0.4h-0.1h-0.2l-0.1-0.1c0-0.1,0.1-0.1,0.2-0.1h2.8c0.1,0,0.1,0,0.2,0c0.1,0,0.1,0,0.2,0h0.2
	v0.1v0.2c0,0.1,0,0.2,0,0.3v0.1c0,0.3,0,0.4,0,0.5h-0.2c-0.1,0-0.1-0.1-0.1-0.2s0-0.2,0-0.3c0-0.1-0.1-0.2-0.5-0.2h-1.1v2.2H52h0.7
	c0.2,0,0.3,0,0.4,0c0.2,0,0.3,0,0.3-0.1c0.1-0.1,0.2-0.1,0.2-0.1h0.1v0.1c0,0.1,0,0.1,0,0.2s0,0.2,0,0.3v0.5c0,0.1,0,0.2-0.1,0.2
	h-0.1l-0.1-0.1c0-0.1,0-0.2,0-0.3c0-0.1-0.2-0.2-0.4-0.2h-1.2v0.8v1.4c0.1,0.5,0.1,0.6,0.9,0.6h0.1c0.2,0,0.4,0,0.6-0.1
	c0.2-0.1,0.3-0.2,0.3-0.5c0-0.1,0.1-0.2,0.1-0.2H54c0,0.3-0.1,0.5-0.1,0.8c-0.1,0.3-0.2,0.3-0.5,0.3C53.4,29.1,50.6,29.1,50.6,29.1z
	"/>
<path class="st1" d="M53.9,28.1c0,0-0.1,0-0.1,0.1c-0.1,0.3-0.2,0.5-0.4,0.6c-0.3,0.1-0.5,0.1-0.8,0.1c-0.8,0-0.9-0.1-1-0.7
	c0-0.2,0-1.1,0-1.4V26c0,0,0-0.1,0.1-0.1l0,0c0.1,0,1,0,1.2,0s0.4,0.2,0.4,0.3c0,0.1,0,0.2,0,0.3c0,0,0,0.1,0.1,0.1s0.1-0.1,0.1-0.2
	s0-0.4,0-0.5s0.1-0.4,0.1-0.5s0-0.1,0-0.1s-0.1,0-0.1,0.1s-0.2,0.1-0.4,0.1s-1.2,0-1.3,0s0,0,0-0.1v-2.2v-0.1c0,0,1,0,1.1,0
	c0.5,0,0.5,0.1,0.6,0.3c0,0.1,0,0.2,0,0.3c0,0.1,0,0.1,0.1,0.1s0,0,0.1-0.1s0-0.5,0-0.5c0-0.2,0.1-0.3,0.1-0.4s0-0.1,0-0.1h-0.1
	c-0.1,0-0.2,0-0.3,0h-2.8c-0.1,0-0.1,0-0.1,0.1s0,0,0.1,0s0.2,0,0.3,0c0.3,0.1,0.3,0.2,0.4,0.5s0,0.5,0,1.8v1.5c0,0.8,0,1.5,0,1.8
	s-0.1,0.4-0.2,0.5c-0.1,0-0.2,0-0.2,0h-0.1c0,0,0,0.1,0.1,0.1h0.5h0.3h0.7h1.4c0.3,0,0.4,0,0.4-0.2C54,28.5,54,28.3,53.9,28.1
	C54,28.1,54,28.1,53.9,28.1z"/>
<path class="st1" d="M61.6,29.2c-0.1,0-0.2,0-0.2-0.1V29h0.1h0.1h0.1c0.1,0,0.1,0,0.1-0.4v-5.2h-1.2c-0.5,0-0.7,0.1-0.8,0.2
	s-0.1,0.2-0.1,0.2c0,0.1-0.1,0.1-0.1,0.1h-0.1v-0.1c0-0.1,0.1-0.4,0.2-0.8v-0.1c0-0.1,0.1-0.2,0.1-0.2c0.2,0,0.3,0,0.4,0.1
	c0.1,0,0.2,0,0.3,0s0.2,0,0.3,0H64c0.1,0,0.2,0,0.3,0s0.2,0,0.3,0h0.3v0.1c0,0,0,0.1-0.1,0.1v0.8c0,0.1,0,0.1,0,0.2l0,0h-0.1
	c-0.1,0-0.1-0.1-0.1-0.2c0-0.2,0-0.5-0.9-0.5h-0.9v3.4v0.8c0,0.4,0,0.8,0,1c0,0.3,0.1,0.4,0.2,0.4c0.1,0,0.1,0,0.2,0s0.3,0,0.3,0
	l0.1,0.1c0,0.1-0.1,0.1-0.2,0.1L61.6,29.2L61.6,29.2z"/>
<path class="st1" d="M65,22.8h-0.2c-0.2,0-0.4,0-0.6,0H61c-0.2,0-0.4,0-0.7,0c-0.1,0-0.3-0.1-0.4-0.1c0,0-0.1,0.1-0.1,0.2
	s-0.2,0.8-0.2,0.9s0,0.1,0,0.1s0,0,0.1-0.1c0-0.1,0.1-0.2,0.1-0.2c0.1-0.2,0.3-0.3,0.8-0.3H62v3.5c0,0.8,0,1.5,0,1.8s0,0.5-0.2,0.5
	c-0.1,0-0.2,0-0.2,0h-0.1c0,0,0,0.1,0.1,0.1h0.8c0,0,0.6,0,1,0c0.1,0,0.1,0,0.1-0.1s0,0-0.1,0s-0.3,0-0.4,0c-0.2,0-0.3-0.2-0.3-0.5
	s0-1,0-1.8v-3.5h1c0.8,0,1,0.2,1,0.5v0.1c0,0.1,0,0.1,0.1,0.1s0.1,0,0.1-0.1S64.9,23.2,65,22.8C65,22.9,65,22.8,65,22.8z"/>
<path class="st1" d="M76.7,29.4c-0.1,0-0.2-0.1-0.3-0.5l-1.6-4.4c-0.4,1-1.4,3.7-1.7,4.4c-0.1,0.3-0.2,0.5-0.3,0.5
	c-0.1,0-0.2-0.1-0.4-0.7l-1.5-4.9c-0.1-0.4-0.2-0.5-0.4-0.6c0,0-0.1,0-0.2,0s-0.1,0-0.2,0H70V23c0-0.1,0.1-0.1,0.2-0.1h1.9
	c0.1,0,0.2,0,0.2,0.1v0.1h-0.2c-0.1,0-0.1,0-0.2,0s-0.1,0-0.2,0l-0.1,0.1c0,0.2,0.1,0.5,0.2,0.8c0.1,0.4,0.6,2.1,0.9,3.2l0.2,0.6
	l1.8-4.5c0.1-0.4,0.2-0.4,0.3-0.4c0.1,0,0.2,0.1,0.3,0.4l1.6,4.5c0.1-0.3,0.2-0.7,0.4-1.2c0.3-1,0.7-2.2,0.9-2.9
	c0.1-0.2,0.1-0.3,0.1-0.5c0-0.1,0-0.2-0.4-0.2h-0.1h-0.1c0-0.1,0.1-0.1,0.2-0.1h1.5c0.1,0,0.1,0.1,0.1,0.2s-0.1,0.1-0.2,0.1
	s-0.1,0-0.1,0h-0.1c-0.2,0.1-0.3,0.4-0.5,0.8c-0.2,0.6-0.5,1.6-0.9,2.6c-0.3,0.8-0.5,1.6-0.7,2C76.9,29.3,76.8,29.4,76.7,29.4z"/>
<path class="st1" d="M79.4,22.9h-0.7h-0.8c-0.1,0-0.1,0-0.1,0.1s0,0,0.1,0c0.4,0,0.5,0.1,0.5,0.2c0,0.2,0,0.4-0.1,0.5
	c-0.3,1.1-1.1,3.5-1.3,4.2l0,0l-1.7-4.7c-0.1-0.3-0.2-0.4-0.2-0.4s-0.1,0-0.2,0.4L73,28l0,0c-0.1-0.4-1-3.5-1.1-4
	c-0.1-0.3-0.1-0.5-0.2-0.8c0-0.1,0-0.2,0.1-0.2s0.2,0,0.3,0h0.1c0,0,0-0.1-0.2-0.1h-0.9h-1c-0.1,0-0.1,0-0.1,0.1s0,0,0.1,0
	s0.3,0,0.4,0c0.2,0.1,0.3,0.2,0.4,0.6l1.5,4.9c0.2,0.6,0.2,0.7,0.3,0.7s0.2-0.1,0.3-0.4c0.3-0.8,1.4-3.8,1.7-4.6l0,0l1.6,4.6
	c0.1,0.3,0.2,0.4,0.2,0.4s0.1-0.1,0.3-0.7c0.3-0.9,1.2-3.6,1.5-4.6c0.2-0.5,0.3-0.8,0.5-0.9c0.1,0,0.2,0,0.3,0c0,0,0.1,0,0.1-0.1
	S79.5,22.9,79.4,22.9z"/>
<path class="st1" d="M87.8,29.3c-1.8-0.1-3.1-1.6-3-3.3c0-1.8,1.5-3.3,3.3-3.3c0.1,0,0.2,0,0.3,0h0.1c0.8,0,1.6,0.4,2.1,1
	c0.6,0.6,0.9,1.4,0.8,2.2v0.2c0,1.8-1.5,3.3-3.3,3.3h-0.2L87.8,29.3z M88,23.1c-1.1,0-2.4,0.5-2.4,2.7c0,1.8,1.1,3.1,2.6,3.1h0.1V29
	c0.2-0.1,2.1-0.1,2.1-2.9C90.5,24.3,89.5,23.1,88,23.1z"/>
<path class="st1" d="M88.1,22.8c-1.8,0-3.2,1.4-3.3,3.2c0,0,0,0,0,0.1c-0.1,1.7,1.2,3.2,3,3.3c0.1,0,0.2,0,0.3,0
	c1.8,0,3.3-1.4,3.3-3.2c0-0.1,0-0.1,0-0.2c0.1-1.7-1.2-3-2.9-3.1C88.3,22.8,88.2,22.8,88.1,22.8z M88.3,29c-1.5,0-2.7-1.2-2.7-3.2
	s1-2.7,2.4-2.7s2.5,1.1,2.5,3.1C90.6,28.5,89,29,88.3,29L88.3,29z"/>
<path class="st1" d="M102.6,29.2c-0.3,0-0.5-0.1-0.8-0.2c-0.5-0.3-0.9-0.8-1.2-1.3l-0.9-1.2h-1.1v0.2c0,0.3,0,0.6,0,0.8
	c0,0.4,0,0.8,0,0.9c0,0.3,0.1,0.4,0.3,0.4c0.1,0,0.1,0,0.2,0s0.3,0,0.3,0l0.1,0.1c0,0.1-0.1,0.1-0.2,0.1h-1.8c-0.1,0-0.2,0-0.2-0.1
	V29l0.1-0.1h0.1h0.1c0.2,0,0.2-0.3,0.2-0.4c0-0.6,0.1-1.2,0-1.8v-1.5c0-0.6,0-0.9,0-1.2c0-0.3,0-0.5,0-0.6c0-0.3-0.1-0.4-0.3-0.4
	h-0.1h-0.2l0,0c0-0.1,0.1-0.1,0.2-0.1h1.9c0.1,0,0.1,0,0.2,0c0.5,0,1,0.1,1.4,0.4s0.6,0.7,0.6,1.2c0,0.8-0.4,1.5-1,1.9
	c0.7,0.9,1.2,1.6,1.7,2.1c0.2,0.3,0.6,0.5,1,0.6h0.1c0.1,0,0.2,0,0.2,0l0.1,0.1c0,0.2-0.1,0.2-0.3,0.2h-0.6
	C102.8,29.2,102.7,29.2,102.6,29.2z M99.6,26.3L99.6,26.3c0.3-0.1,0.4-0.1,0.6-0.2c0.3-0.3,0.5-0.8,0.5-1.2c0-1-0.5-1.6-1.4-1.6l0,0
	c-0.2,0-0.4,0-0.5,0v2.8C99,26.1,99.3,26.2,99.6,26.3L99.6,26.3L99.6,26.3z"/>
<path class="st1" d="M103.5,29.1c-0.1,0-0.2,0-0.3,0c-0.4-0.1-0.7-0.3-1-0.6c-0.5-0.5-1.1-1.2-1.7-2.1c0.6-0.5,1-1.2,1-1.9
	c0-0.4-0.2-0.9-0.6-1.1c-0.5-0.3-1-0.4-1.5-0.4h-1h-0.9c-0.1,0-0.1,0-0.1,0.1s0,0,0.1,0s0.2,0,0.3,0c0.3,0.1,0.3,0.2,0.4,0.5
	s0,0.5,0,1.8v1.5c0,0.6,0,1.2-0.1,1.8c0,0.2-0.1,0.4-0.2,0.5c-0.1,0-0.2,0-0.2,0h-0.1c0,0,0,0.1,0.1,0.1h0.8c0,0,0.6,0,1,0
	c0.1,0,0.1,0,0.1-0.1s0,0-0.1,0s-0.2,0-0.4,0c-0.2,0-0.3-0.2-0.3-0.5s0-1,0-1.8v-0.2c0,0,0-0.1,0.1-0.1h1h0.1l0.9,1.2
	c0.3,0.5,0.7,0.9,1.2,1.2c0.3,0.1,0.6,0.2,0.9,0.2h0.6C103.5,29.2,103.6,29.2,103.5,29.1C103.6,29.1,103.5,29.1,103.5,29.1z
	 M99.6,26.3c-0.3,0-0.6,0-0.9-0.1l-0.1-0.1v-2.7c0,0,0-0.1,0.1-0.1c0.2,0,0.4-0.1,0.6,0c0.9,0,1.4,0.6,1.4,1.7c0,0.5-0.1,1-0.5,1.3
	C100.1,26.2,99.8,26.3,99.6,26.3z"/>
<path class="st1" d="M113.5,29.3c-0.4-0.1-0.8-0.2-1-0.5c-0.4-0.3-1.9-1.9-2.4-2.6v1.4c0,0.4,0,0.8,0,1c0,0.3,0.1,0.4,0.2,0.4h0.4
	l0.1,0.1c0,0.1-0.1,0.1-0.2,0.1h-1.8c-0.1,0-0.2,0-0.2-0.1V29h0.1h0.1h0.1c0.1,0,0.2,0,0.2-0.4v-3.3c0-0.6,0-0.9,0-1.2
	c0-0.3,0-0.5,0-0.6c0-0.3-0.1-0.4-0.3-0.4h-0.1h-0.2l-0.1-0.1c0-0.1,0.1-0.1,0.2-0.1h1.7c0.1,0,0.2,0,0.2,0.1v0.1h-0.1h-0.2
	c-0.1,0-0.2,0.1-0.2,0.4v2.1c0.2-0.2,1.7-1.7,1.8-1.9c0.2-0.2,0.4-0.4,0.4-0.5s0-0.1-0.1-0.1H112V23c0-0.1,0.1-0.1,0.2-0.1h1.4
	c0.1,0,0.2,0,0.2,0.1s-0.1,0.1-0.2,0.1s-0.3,0-0.4,0.1c-0.3,0.2-0.6,0.4-0.9,0.7c-0.2,0.2-1.7,1.6-1.8,1.8c0.2,0.2,1.9,1.9,2.3,2.2
	c0.3,0.4,0.8,0.7,1.2,0.9c0.1,0,0.3,0.1,0.4,0.1h0.1c0.1,0,0.2,0,0.2,0.1s-0.1,0.1-0.3,0.1H114c-0.1,0-0.2,0-0.3,0
	C113.7,29.3,113.6,29.3,113.5,29.3z"/>
<path class="st1" d="M114.5,29.1c-0.2,0-0.4,0-0.5-0.1c-0.5-0.2-0.9-0.6-1.2-1c-0.3-0.3-2.1-2.1-2.3-2.4c0.2-0.2,1.6-1.6,1.8-1.8
	c0.3-0.3,0.6-0.5,0.9-0.7c0.1-0.1,0.3-0.1,0.5-0.1c0.1,0,0.1,0,0.1,0s0-0.1-0.1-0.1h-0.8h-0.6c-0.1,0-0.1,0-0.1,0.1s0,0,0.1,0.1
	c0.1,0,0.1,0.1,0.1,0.2s-0.2,0.4-0.4,0.6s-1.8,1.9-1.9,2l0,0v-0.5c0-1.3,0-1.5,0-1.8s0.1-0.4,0.3-0.5h0.2h0.1c0,0,0-0.1-0.1-0.1
	h-0.8h-0.9c-0.1,0-0.1,0-0.1,0.1s0,0,0.1,0s0.2,0,0.3,0c0.3,0.1,0.3,0.2,0.4,0.5s0,0.5,0,1.8v1.5c0,0.8,0,1.5,0,1.8S109.1,29,109,29
	s-0.2,0-0.2,0c-0.1,0-0.1,0-0.1,0s0,0.1,0.1,0.1h0.8c0.1,0,0.6,0,1,0c0.1,0,0.1,0,0.1-0.1s0,0-0.1,0h-0.3c-0.2,0-0.3-0.2-0.3-0.5
	s0-1,0-1.8V26l0,0c0.4,0.5,2.2,2.4,2.5,2.7c0.3,0.3,0.6,0.4,1,0.5c0.2,0,0.4,0,0.6,0h0.4c0.1,0,0.2,0,0.2-0.1S114.6,29.1,114.5,29.1
	z"/>
</svg>
