<?xml version="1.0" encoding="utf-8"?>
<!-- Generator: Adobe Illustrator 25.2.1, SVG Export Plug-In . SVG Version: 6.00 Build 0)  -->
<svg version="1.1" id="Layer_1" xmlns:svgjs="http://svgjs.com/svgjs"
	 xmlns="http://www.w3.org/2000/svg" xmlns:xlink="http://www.w3.org/1999/xlink" x="0px" y="0px" viewBox="0 0 512 512"
	 style="enable-background:new 0 0 512 512;" xml:space="preserve">
<style type="text/css">
	.st0{fill:#F1C950;}
	.st1{fill:#E9B545;}
	.st2{fill:#F3E166;}
	.st3{fill:#EB5570;}
	.st4{fill:#BD3C5B;}
	.st5{fill:#FFFFFF;}
	.st6{font-family:'ChalkboardSE-Regular';}
	.st7{font-size:135.3704px;}
</style>
<g>
	<path class="st0" d="M308.8,438.7c0,38.1-30.9,69-69,69c-38.1,0-69-30.9-69-69s30.9-69,69-69C277.9,369.7,308.8,400.6,308.8,438.7z
		"/>
	<path class="st1" d="M308.8,438.7c0,38.1-30.9,69-69,69c-3.2,0-6.3-0.2-9.4-0.6c33.7-4.6,59.6-33.5,59.6-68.4
		c0-34.9-25.9-63.8-59.6-68.4c3.1-0.4,6.2-0.6,9.4-0.6C277.9,369.7,308.8,400.6,308.8,438.7z"/>
</g>
<path class="st2" d="M282.8,72c0,20.9-16.9,37.8-37.8,37.8c-20.9,0-37.8-16.9-37.8-37.8s16.9-37.8,37.8-37.8
	C265.9,34.2,282.8,51.1,282.8,72z"/>
<path class="st0" d="M282.8,72c0,20.9-16.9,37.8-37.8,37.8c-1.7,0-3.5-0.1-5.2-0.4c18.5-2.5,32.7-18.3,32.7-37.5
	c0-19.1-14.2-35-32.7-37.5c1.7-0.2,3.4-0.4,5.2-0.4C265.9,34.2,282.8,51.1,282.8,72z"/>
<g>
	<path class="st2" d="M377.2,215c-0.1,0-4.9-92.3-5-92.3c-78.8,0-67,52.8-67-22c0-20.6-53.2,9.1-44.5-8.3c-4.5-0.4-9-0.7-13.7-0.7
		c-78.9,0-142.9,60.7-142.9,135.6v54c0,38.3-17.7,74.5-48.8,99.4c-10.4,8.4-14.9,21.8-11.2,34.8c4.3,15.2,20.1,24.9,36.7,24.9h332.3
		c17.4,0,33.8-10.7,37.3-26.9c2.7-12.5-2-25-12.2-33.2C408.5,356.7,375.2,309.7,377.2,215z"/>
	<path class="st0" d="M450.4,413.5c-3.5,16.2-19.9,26.9-37.3,26.9h-37.9c16.6,0,32.4-9.7,36.7-24.9c3.7-13-0.9-26.4-11.2-34.8
		c-31-24.9-48.8-61.1-48.8-99.4v-54c0-35-14-67-37-91c9.2-5.3,26.2-13.6,57.2-13.6c0.1,0,4.9,92.3,5,92.3
		c-2,94.7,31.4,141.7,61,165.3C448.4,388.5,453.1,401,450.4,413.5z"/>
</g>
<g>
	<path class="st3" d="M479,116.7c0,63.2-51.3,114.5-114.5,114.5c-63.2,0-114.5-51.3-114.5-114.5S301.3,2.2,364.5,2.2
		C427.7,2.2,479,53.4,479,116.7z"/>
	<path class="st4" d="M479,116.7c0,63.2-51.3,114.5-114.5,114.5c-6.2,0-12.3-0.5-18.3-1.5c54.6-8.7,96.2-56,96.2-113
		c0-57-41.7-104.3-96.2-113c5.9-1,12-1.5,18.3-1.5C427.7,2.2,479,53.4,479,116.7z"/>
</g>
<text transform="matrix(1 0 0 1 323.999 162)" class="st5 st6 st7">1</text>
</svg>
