<?xml version="1.0" encoding="utf-8"?>
<!-- Generator: Adobe Illustrator 25.2.1, SVG Export Plug-In . SVG Version: 6.00 Build 0)  -->
<svg version="1.1" id="Capa_1" xmlns="http://www.w3.org/2000/svg" xmlns:xlink="http://www.w3.org/1999/xlink" x="0px" y="0px"
	 viewBox="0 0 513.3 513.3" style="enable-background:new 0 0 513.3 513.3;" xml:space="preserve">
<style type="text/css">
	.st0{fill:none;stroke:#222222;stroke-width:16;stroke-miterlimit:10;}
	.st1{fill:#222222;}
</style>
<path class="st0" d="M22.1,513.3"/>
<g>
	<path class="st1" d="M165,275.1l82.6,120.3v117.9H23l0,0c-0.3,0-0.6,0-0.9,0c-5.9,0-10.7-4.8-10.7-10.7
		C11.4,399.8,75,311.5,165,275.1z"/>
	<path class="st1" d="M332.3,269.2l-75.6,107.6l-74.2-108c23.4-7.5,48.4-11.5,74.2-11.5C283.1,257.3,308.5,261.5,332.3,269.2z"/>
	<path class="st1" d="M502.2,502.6c0,5.9-4.8,10.7-10.7,10.7H265.6V395.5l84.2-119.8C439,312.4,502,400.3,502.2,502.6z"/>
	<path class="st1" d="M256.7,234.7c64.7,0,117.3-52.7,117.3-117.4S321.3,0,256.7,0C192,0,139.3,52.6,139.3,117.3
		S192,234.7,256.7,234.7z"/>
</g>
</svg>
