<?xml version="1.0" encoding="utf-8"?>
<!-- Generator: Adobe Illustrator 25.2.1, SVG Export Plug-In . SVG Version: 6.00 Build 0)  -->
<svg version="1.1" id="Layer_1" xmlns="http://www.w3.org/2000/svg" xmlns:xlink="http://www.w3.org/1999/xlink" x="0px" y="0px"
	 viewBox="0 0 512 512" style="enable-background:new 0 0 512 512;" xml:space="preserve">
<style type="text/css">
	.st0{fill:#222222;}
</style>
<path class="st0" d="M234.7,424.7c-2.4,0-4.8-1-6.5-2.8c-1.7-1.8-2.5-4.3-2.2-6.8l6.9-61.7l-1-0.7c-10.6-7.7-16.6-19.6-16.6-32.7
	c0-22.4,18.3-40.7,40.7-40.7s40.7,18.3,40.7,40.7c0,13.1-6.1,25-16.6,32.7l-1,0.7l6.9,61.7c0.3,2.5-0.5,5-2.2,6.8
	c-1.7,1.8-4,2.8-6.5,2.8H234.7z M267.7,407.3l-6.5-57.7c-0.4-3.7,1.5-7.2,4.8-8.7c8.2-4,13.3-12,13.3-20.9
	c0-12.8-10.5-23.3-23.3-23.3c-6.2,0-12.1,2.4-16.5,6.8c-4.4,4.4-6.8,10.2-6.8,16.5c0,8.9,5.1,16.9,13.3,20.9
	c3.3,1.6,5.2,5.1,4.8,8.7l-6.5,57.7H267.7z"/>
<path class="st0" d="M234.7,422.7c-1.9,0-3.7-0.8-5-2.2c-1.3-1.4-1.9-3.3-1.7-5.2l7-62.8l-1.9-1.4c-10-7.3-15.8-18.6-15.8-31.1
	c0-21.3,17.3-38.7,38.7-38.7s38.7,17.3,38.7,38.7c0,12.4-5.8,23.8-15.8,31.1l-1.9,1.4l7,62.8c0.2,1.9-0.4,3.8-1.7,5.2
	c-1.3,1.4-3.1,2.2-5,2.2H234.7z M256,294.7c-6.8,0-13.1,2.6-17.9,7.4c-4.8,4.8-7.4,11.1-7.4,17.9c0,9.7,5.5,18.4,14.4,22.7
	c2.5,1.2,4,3.9,3.7,6.7l-6.7,59.9h27.8l-6.7-59.9c-0.3-2.8,1.2-5.5,3.7-6.7c8.9-4.3,14.4-13,14.4-22.7
	C281.3,306,270,294.7,256,294.7z"/>
<path class="st0" d="M104.7,510.1V510c-21.5-1-38.7-18.9-38.7-40.7V202.7c0-4.8,3.9-8.7,8.7-8.7h34v-44.7C108.7,68.1,174.8,2,256,2
	c81.2,0,147.3,66.1,147.3,147.3V194h34c4.8,0,8.7,3.9,8.7,8.7v266.7c0,22.4-18.3,40.7-40.7,40.7H104.7z M83.3,469.3
	c0,12.8,10.5,23.3,23.3,23.3h298.7c12.8,0,23.3-10.5,23.3-23.3v-258H83.3V469.3z M386,194v-44.7c0-71.7-58.3-130-130-130
	c-71.7,0-130,58.3-130,130V194h25.3v-44.7c0-57.7,47-104.6,104.7-104.6c57.7,0,104.7,47,104.7,104.7V194H386z M343.4,194v-44.7
	C343.3,101.2,304.1,62,256,62c-48.1,0-87.3,39.2-87.3,87.3V194H343.4z"/>
<path class="st0" d="M106.7,508C85.3,508,68,490.7,68,469.3V202.7c0-3.7,3-6.7,6.7-6.7h36v-46.7C110.7,69.2,175.9,4,256,4
	s145.3,65.2,145.3,145.3V196h36c3.7,0,6.7,3,6.7,6.7v266.7c0,21.3-17.3,38.7-38.7,38.7H106.7V508z M81.3,469.3
	c0,14,11.4,25.3,25.3,25.3h298.7c14,0,25.3-11.4,25.3-25.3v-260H81.3V469.3z M256,46.7c56.6,0,102.7,46.1,102.7,102.7V196H388v-46.7
	c0-72.8-59.2-132-132-132s-132,59.2-132,132V196h29.3v-46.7C153.3,92.7,199.4,46.7,256,46.7z M256,60c-49.3,0-89.3,40.1-89.3,89.3
	V196h178.7v-46.7C345.3,100.1,305.3,60,256,60z"/>
</svg>
