<?xml version="1.0" encoding="utf-8"?>
<!-- Generator: Adobe Illustrator 25.2.1, SVG Export Plug-In . SVG Version: 6.00 Build 0)  -->
<svg version="1.1" id="Layer_1" xmlns:svgjs="http://svgjs.com/svgjs"
	 xmlns="http://www.w3.org/2000/svg" xmlns:xlink="http://www.w3.org/1999/xlink" x="0px" y="0px" viewBox="0 0 512 512"
	 style="enable-background:new 0 0 512 512;" xml:space="preserve">
<style type="text/css">
	.st0{fill:none;}
</style>
<path class="st0" d="M437,75C337-25,174.9-25,75,75C-25,175-25,337.1,75,437c100,100,262,100,362,0C537,337.1,537,175,437,75z
	 M406.8,406.8c-83.3,83.3-218.4,83.3-301.7,0s-83.3-218.4,0-301.7s218.4-83.3,301.7,0S490.2,323.5,406.8,406.8z"/>
<path d="M119.6,254c0-72.5,58.9-131.4,131.4-131.4c27.2,0,53.2,8.3,75.1,23.6h-16.9c-4.8,0-8.7,3.9-8.7,8.7s3.9,8.7,8.7,8.7h40.9
	c4.8,0,8.7-3.9,8.7-8.7V114c0-4.8-3.9-8.7-8.7-8.7s-8.7,3.9-8.7,8.7v21.7c-25.8-19.8-57.3-30.6-90.4-30.6
	c-39.8,0-77.1,15.5-105.2,43.6s-43.6,65.5-43.6,105.2c0,26.1,6.9,51.9,20,74.4c1.6,2.8,4.5,4.4,7.6,4.4c1.5,0,3-0.4,4.4-1.2
	c4.2-2.4,5.6-7.7,3.2-11.9C125.7,299.8,119.6,277.1,119.6,254L119.6,254z"/>
<path d="M379.9,179.6c-2.4-4.2-7.7-5.6-11.9-3.2c-4.2,2.4-5.6,7.7-3.2,11.9c11.5,19.9,17.6,42.6,17.6,65.7
	c0,72.5-58.9,131.4-131.4,131.4c-27.2,0-53.2-8.3-75.1-23.6h16.9c4.8,0,8.7-3.9,8.7-8.7s-3.9-8.7-8.7-8.7h-40.9
	c-4.8,0-8.7,3.9-8.7,8.7V394c0,4.8,3.9,8.7,8.7,8.7s8.7-3.9,8.7-8.7v-21.7c25.8,19.9,57.3,30.6,90.4,30.6
	c39.8,0,77.1-15.5,105.2-43.6s43.6-65.5,43.6-105.2C399.8,227.9,392.9,202.1,379.9,179.6L379.9,179.6z"/>
</svg>
