<?xml version="1.0" encoding="utf-8"?>
<!-- Generator: Adobe Illustrator 25.2.1, SVG Export Plug-In . SVG Version: 6.00 Build 0)  -->
<svg version="1.1" id="Layer_1" xmlns:svgjs="http://svgjs.com/svgjs"
	 xmlns="http://www.w3.org/2000/svg" xmlns:xlink="http://www.w3.org/1999/xlink" x="0px" y="0px" viewBox="0 0 512 512"
	 style="enable-background:new 0 0 512 512;" xml:space="preserve">
<style type="text/css">
	.st0{fill:#FFFFFF;}
</style>
<path class="st0" d="M256,506c-14.3,0-25.9-11.6-25.9-25.9c0-6.9,2.7-13.4,7.6-18.3L443.6,256L237.7,50.2
	c-10.1-10.1-10.1-26.5,0-36.6c10.1-10.1,26.5-10.1,36.6,0l224.1,224.1c10.1,10.1,10.1,26.5,0,36.6c0,0,0,0,0,0L274.3,498.4
	C269.4,503.3,262.9,506,256,506L256,506z M50.2,498.4l224.1-224.1c10.1-10.1,10.1-26.5,0-36.6c0,0,0,0,0,0L50.2,13.6
	c-10.1-10.1-26.5-10.1-36.6,0s-10.1,26.5,0,36.6L219.4,256L13.6,461.8c-10.1,10.1-10.1,26.5,0,36.6S40.1,508.5,50.2,498.4
	L50.2,498.4L50.2,498.4z"/>
</svg>
