<?xml version="1.0" encoding="utf-8"?>
<!-- Generator: Adobe Illustrator 25.2.1, SVG Export Plug-In . SVG Version: 6.00 Build 0)  -->
<svg version="1.1" id="Capa_1" xmlns="http://www.w3.org/2000/svg" xmlns:xlink="http://www.w3.org/1999/xlink" x="0px" y="0px"
	 viewBox="0 0 512 512" style="enable-background:new 0 0 512 512;" xml:space="preserve">
<style type="text/css">
	.st0{fill:#222222;}
</style>
<path class="st0" d="M92.8,512c-15.2,0-27.5-12.4-27.5-27.5V92.8c0-15.2,12.4-27.5,27.5-27.5h70.4V43.9c0-6.2,5-11.2,11.2-11.2h39
	l1.2-3.4C220.8,11.8,237.5,0,256,0c18.5,0,35.2,11.8,41.4,29.2l1.2,3.4h39c6.2,0,11.2,5,11.2,11.2v21.4h70.4
	c15.2,0,27.5,12.4,27.5,27.5v391.6c0,15.2-12.4,27.5-27.5,27.5H92.8z M87.7,489.6h336.6V87.7h-75.5v21.4c0,6.2-5,11.2-11.2,11.2
	H174.4c-6.2,0-11.2-5-11.2-11.2V87.7H87.7V489.6z M185.6,97.9h140.7V55.1h-37.7c-6.2,0-11.2-5-11.2-11.2c0-11.8-9.6-21.4-21.4-21.4
	c-11.8,0-21.4,9.6-21.4,21.4c0,6.2-5,11.2-11.2,11.2h-37.7V97.9z"/>
<path class="st0" d="M176,283c-2.9,0-5.7-1.1-7.7-3.2l-32-32c-2.1-2.1-3.2-4.8-3.2-7.8c0-2.9,1.1-5.7,3.2-7.8
	c2.1-2.1,4.8-3.2,7.8-3.2c2.9,0,5.7,1.1,7.8,3.2l24.2,24.2l56.2-56.2c2.1-2.1,4.8-3.2,7.8-3.2c3,0,5.7,1.1,7.8,3.2
	c2.1,2.1,3.2,4.8,3.2,7.8c0,2.9-1.1,5.7-3.2,7.8l-64,64C181.7,281.9,178.9,283,176,283z"/>
<path class="st0" d="M176,411c-2.9,0-5.7-1.1-7.8-3.2l-32-32c-4.3-4.3-4.3-11.3,0-15.6c2.1-2.1,4.8-3.2,7.8-3.2
	c2.9,0,5.7,1.1,7.8,3.2l24.2,24.2l56.2-56.2c2.1-2.1,4.8-3.2,7.8-3.2c3,0,5.7,1.1,7.8,3.2c4.3,4.3,4.3,11.3,0,15.6l-64,64
	C181.7,409.9,178.9,411,176,411z"/>
<path class="st0" d="M304,251c-6.1,0-11-4.9-11-11s4.9-11,11-11h64c6.1,0,11,4.9,11,11s-4.9,11-11,11H304z"/>
<path class="st0" d="M304,379c-6.1,0-11-4.9-11-11s4.9-11,11-11h64c6.1,0,11,4.9,11,11s-4.9,11-11,11H304z"/>
</svg>
