<?xml version="1.0" encoding="utf-8"?>
<!-- Generator: Adobe Illustrator 25.2.1, SVG Export Plug-In . SVG Version: 6.00 Build 0)  -->
<svg version="1.1" xmlns="http://www.w3.org/2000/svg" xmlns:xlink="http://www.w3.org/1999/xlink" x="0px" y="0px"
	 viewBox="0 0 329 329" style="enable-background:new 0 0 329 329;" xml:space="preserve">
<style type="text/css">
	.st0{fill:#000222;}
</style>
<g id="Layer_4">
	<g>
		<path d="M159.9,211.8c-4.9,0-9.1-3.6-9.9-8.5c-2.7-17.7,3.7-33.8,18.4-46.4c1.9-1.6,4-3.2,5.9-4.8c5.2-4.1,11-8.7,13.4-13
			c5.3-9.6,3.8-21.3-3.4-27.8c-8.5-7.7-22-9.7-30.4-7.7c-6.7,1.6-8.9,3.5-12.7,6.9l-0.5,0.4c-5,4.4-7,9.4-7.2,18
			c-0.1,5.5-4.7,9.9-10.2,9.8c-5.5-0.1-9.9-4.7-9.8-10.2c0.2-8.9,1.8-21.9,14-32.6l0.5-0.4c4.8-4.2,9.7-8.6,21.3-11.3
			c13.2-3.1,34-0.6,48.4,12.3c14,12.7,17.2,34.6,7.5,52.3c-4.3,7.9-11.9,13.8-18.6,19.1c-1.9,1.5-3.7,2.9-5.3,4.3
			c-9.4,8.1-13.2,17.3-11.6,28.2c0.8,5.5-2.9,10.6-8.4,11.4C160.9,211.7,160.4,211.8,159.9,211.8z"/>
	</g>
</g>
<g id="Layer_3">
	<path class="st0" d="M164.5,27c36.7,0,71.3,14.3,97.2,40.3s40.3,60.5,40.3,97.2s-14.3,71.3-40.3,97.2S201.2,302,164.5,302
		s-71.3-14.3-97.2-40.3S27,201.2,27,164.5s14.3-71.3,40.3-97.2S127.8,27,164.5,27 M164.5,3C75.3,3,3,75.3,3,164.5
		S75.3,326,164.5,326S326,253.7,326,164.5S253.7,3,164.5,3L164.5,3z"/>
	<g>
		<circle cx="160.8" cy="235.8" r="12.1"/>
	</g>
</g>
</svg>
