<?xml version="1.0" encoding="utf-8"?>
<!-- Generator: Adobe Illustrator 25.2.1, SVG Export Plug-In . SVG Version: 6.00 Build 0)  -->
<svg version="1.1" id="Layer_1" xmlns="http://www.w3.org/2000/svg" xmlns:xlink="http://www.w3.org/1999/xlink" x="0px" y="0px"
	 viewBox="0 0 165.3 114.1" style="enable-background:new 0 0 165.3 114.1;" xml:space="preserve">
<style type="text/css">
	.st0{fill:#62D7CE;}
</style>
<g>
	<g>
		<path class="st0" d="M64.7,35.2v38.5h15.1c0,7.6-2.6,23-23.7,24.8c2.5,15.5,2.5,15.5,2.5,15.5s44.9,2.1,44.7-40.3V35.2H64.7z"/>
		<path class="st0" d="M126.8,35.2v38.5h15.1c0,7.6-2.6,23-23.7,24.8c2.5,15.5,2.5,15.5,2.5,15.5s44.9,2.1,44.7-40.3V35.2H126.8z"/>
	</g>
	<g>
		<path class="st0" d="M38,29.8V15.3h-5.7c0-2.9,1-8.7,9-9.4C40.4,0,40.4,0,40.4,0s-17-0.8-16.9,15.3v14.6H38V29.8z"/>
		<path class="st0" d="M14.6,29.8V15.3H8.9c0-2.9,1-8.7,9-9.4c-1-5.9-1-5.9-1-5.9S-0.1-0.8,0,15.3v14.6h14.6V29.8z"/>
	</g>
</g>
</svg>
