<?xml version="1.0" encoding="utf-8"?>
<!-- Generator: Adobe Illustrator 25.2.1, SVG Export Plug-In . SVG Version: 6.00 Build 0)  -->
<svg version="1.1" id="Layer_1" xmlns:svgjs="http://svgjs.com/svgjs"
	 xmlns="http://www.w3.org/2000/svg" xmlns:xlink="http://www.w3.org/1999/xlink" x="0px" y="0px" viewBox="0 0 512 512"
	 style="enable-background:new 0 0 512 512;" xml:space="preserve">
<style type="text/css">
	.st0{fill:none;}
	.st1{fill:#A0A0A0;}
</style>
<path class="st0" d="M437,75C337-25,174.9-25,75,75C-25,175-25,337.1,75,437c100,100,262,100,362,0C537,337.1,537,175,437,75z
	 M406.8,406.8c-83.3,83.3-218.4,83.3-301.7,0s-83.3-218.4,0-301.7s218.4-83.3,301.7,0S490.2,323.5,406.8,406.8z"/>
<path class="st1" d="M210.6,156.4v-13.3c0-2.4,2-4.4,4.4-4.4H297c2.4,0,4.4,2,4.4,4.4v13.3c0,2.4-2,4.4-4.4,4.4H215
	C212.6,160.8,210.6,158.8,210.6,156.4z M281.2,118.2c-1-13-11.9-23.2-25.2-23.2s-24.1,10.2-25.2,23.2H281.2z M363.8,170.6v206.8
	c0,15.2-12.4,27.6-27.6,27.6H175.7c-15.2,0-27.6-12.4-27.6-27.6V170.6c0-15.2,12.4-27.6,27.6-27.6h14.4c0,0,0,0,0,0v13.3
	c0,13.7,11.2,24.9,24.9,24.9H297c13.7,0,24.9-11.2,24.9-24.9v-13.3c0,0,0,0,0,0h14.4C351.5,143.1,363.8,155.4,363.8,170.6z
	 M221.5,291c-4.8-3-11.1-1.5-14.1,3.3l-9.7,15.7l-5-3.9c-4.4-3.5-10.9-2.7-14.4,1.7c-3.5,4.4-2.7,10.9,1.7,14.4l14,11.1
	c1.8,1.4,4.1,2.2,6.3,2.2c0.6,0,1.2-0.1,1.8-0.2c2.9-0.5,5.4-2.2,6.9-4.7l15.7-25.5C227.8,300.3,226.3,294,221.5,291z M221.5,217.2
	c-4.8-3-11.1-1.5-14.1,3.3l-9.7,15.7l-5-3.9c-4.4-3.5-10.9-2.7-14.4,1.7c-3.5,4.4-2.7,10.9,1.7,14.4l14,11.1
	c1.8,1.4,4.1,2.2,6.3,2.2c0.6,0,1.2-0.1,1.8-0.2c2.9-0.5,5.4-2.2,6.9-4.7l15.7-25.5C227.8,226.5,226.3,220.2,221.5,217.2z
	 M327.7,325.3c0-5.7-4.6-10.2-10.2-10.2h-67c-5.7,0-10.2,4.6-10.2,10.2s4.6,10.2,10.2,10.2h67C323.1,335.5,327.7,330.9,327.7,325.3z
	 M327.7,251.5c0-5.7-4.6-10.2-10.2-10.2h-67c-5.7,0-10.2,4.6-10.2,10.2s4.6,10.2,10.2,10.2h67C323.1,261.7,327.7,257.1,327.7,251.5z
	"/>
</svg>
