<?xml version="1.0" encoding="utf-8"?>
<!-- Generator: Adobe Illustrator 25.2.1, SVG Export Plug-In . SVG Version: 6.00 Build 0)  -->
<svg version="1.1" id="Layer_1" xmlns="http://www.w3.org/2000/svg" xmlns:xlink="http://www.w3.org/1999/xlink" x="0px" y="0px"
	 viewBox="0 0 613.3 144" style="enable-background:new 0 0 613.3 144;" xml:space="preserve">
<style type="text/css">
	.st0{enable-background:new    ;}
	.st1{fill:#5F5B5A;}
	.st2{fill:#3EBEB8;}
	.st3{fill:#51C2C1;}
</style>
<g>
	<g class="st0">
		<path class="st1" d="M13.1,75.6c-0.8-0.4-0.8-0.6-0.8-2c0-2.6,0.2-4.7,0.3-5.6c0.1-0.6,0.2-0.8,0.4-0.8c0.3,0,0.4,0.2,0.4,0.6
			c0,0.5,0,1.2,0.2,1.9c0.8,3.9,4.4,5.3,8.1,5.3c5.3,0,7.8-3.6,7.8-7c0-3.6-1.6-5.7-6.3-9.4l-2.5-1.9c-5.8-4.6-7.1-7.8-7.1-11.4
			c0-5.6,4.4-9.4,11.3-9.4c2.1,0,3.7,0.2,5.1,0.5c1,0.2,1.5,0.3,1.9,0.3c0.4,0,0.5,0.1,0.5,0.4c0,0.3-0.2,2-0.2,5.6
			c0,0.8-0.1,1.2-0.4,1.2c-0.3,0-0.4-0.3-0.4-0.7c-0.1-0.6-0.4-2-0.7-2.6c-0.3-0.6-1.8-2.8-6.8-2.8c-3.8,0-6.7,2.3-6.7,6.1
			c0,3,1.4,4.9,6.7,8.8l1.5,1.2c6.5,4.9,8,8.1,8,12.3c0,2.1-0.9,6.1-4.7,8.7c-2.4,1.6-5.3,2.2-8.3,2.2C17.9,77,15.4,76.7,13.1,75.6z
			"/>
		<path class="st1" d="M59.5,61.1c0,5,0,9.2,0.3,11.4c0.2,1.5,0.5,2.7,2.1,2.9c0.8,0.1,2,0.2,2.5,0.2c0.3,0,0.4,0.2,0.4,0.3
			c0,0.3-0.3,0.4-0.9,0.4c-3,0-6.5-0.2-6.7-0.2c-0.3,0-3.7,0.2-5.4,0.2c-0.6,0-0.9-0.1-0.9-0.4c0-0.2,0.1-0.3,0.4-0.3
			c0.5,0,1.1-0.1,1.6-0.2c1.1-0.2,1.4-1.4,1.6-2.9c0.3-2.2,0.3-6.3,0.3-11.4V38.9L46.8,39c-3.4,0.1-4.7,0.4-5.6,1.7
			c-0.6,0.9-0.8,1.3-0.9,1.6c-0.2,0.4-0.3,0.5-0.5,0.5c-0.2,0-0.3-0.2-0.3-0.5c0-0.5,1.1-5,1.2-5.4c0.1-0.3,0.3-1,0.5-1
			c0.4,0,0.9,0.5,2.4,0.6c1.6,0.2,3.7,0.3,4.3,0.3h20.5c1.8,0,3-0.1,3.9-0.3c0.8-0.1,1.3-0.3,1.5-0.3c0.3,0,0.3,0.3,0.3,0.6
			c0,1.6-0.2,5.2-0.2,5.8c0,0.5-0.2,0.7-0.4,0.7c-0.3,0-0.4-0.2-0.4-0.9l-0.1-0.6c-0.2-1.6-1.5-2.8-6.7-2.9l-6.9-0.1V61.1z"/>
		<path class="st1" d="M91.1,38c0.7-1.7,0.9-2,1.2-2c0.3,0,0.5,0.3,1.2,1.9c0.8,2,9.4,23.6,12.8,31.6c2,4.7,3.6,5.5,4.7,5.8
			c0.8,0.3,1.6,0.3,2.2,0.3c0.3,0,0.5,0.1,0.5,0.3c0,0.3-0.5,0.4-1.1,0.4c-0.8,0-4.8,0-8.6-0.1c-1-0.1-1.6-0.1-1.6-0.4
			c0-0.2,0.2-0.3,0.4-0.4c0.3-0.1,0.7-0.6,0.3-1.4L98,61.2c-0.1-0.2-0.2-0.3-0.5-0.3H85.7c-0.3,0-0.4,0.2-0.5,0.4l-3.3,9.3
			c-0.5,1.3-0.8,2.6-0.8,3.5c0,1,1.1,1.5,2.1,1.5h0.5c0.4,0,0.5,0.1,0.5,0.3c0,0.3-0.3,0.4-0.8,0.4c-1.3,0-3.7-0.2-4.3-0.2
			c-0.6,0-3.6,0.2-6.2,0.2c-0.7,0-1-0.1-1-0.4c0-0.2,0.2-0.3,0.5-0.3c0.4,0,1.1-0.1,1.6-0.1c2.5-0.3,3.6-2.3,4.6-4.9L91.1,38z
			 M96.8,58.9c0.3,0,0.3-0.2,0.2-0.4l-5.2-14.1c-0.3-0.8-0.5-0.8-0.8,0l-4.8,14.1c-0.1,0.3,0,0.4,0.2,0.4H96.8z"/>
		<path class="st1" d="M147.5,62.9c0-4.2-0.3-4.8-2.5-5.4c-0.4-0.1-1.4-0.2-1.9-0.2c-0.2,0-0.4-0.1-0.4-0.3c0-0.3,0.3-0.4,0.9-0.4
			c2.5,0,5.9,0.2,6.2,0.2c0.3,0,3.7-0.2,5.4-0.2c0.6,0,0.9,0.1,0.9,0.4c0,0.2-0.2,0.3-0.4,0.3c-0.4,0-0.7,0.1-1.4,0.2
			c-1.5,0.3-1.9,1.2-2,3c-0.1,1.7-0.1,3.2-0.1,5.4v5.9c0,2.4-0.1,2.5-0.7,2.8c-3.5,1.8-8.4,2.4-11.6,2.4c-4.2,0-11.9-0.5-18-5.6
			c-3.3-2.8-6.5-8.4-6.5-14.9c0-8.4,4.3-14.3,9.1-17.2c4.9-2.9,10.3-3.3,14.6-3.3c3.4,0,7.3,0.7,8.4,0.9c1.1,0.3,3.1,0.5,4.4,0.5
			c0.5,0.1,0.7,0.3,0.7,0.5c0,0.7-0.4,2.2-0.4,7.4c0,0.8-0.1,1.1-0.5,1.1c-0.3,0-0.3-0.3-0.4-0.8c-0.1-0.7-0.3-2.2-1.2-3.5
			c-1.4-2-5.8-4.2-12.9-4.2c-3.4,0-7.6,0.3-11.7,3.5c-3.2,2.4-5.4,7.2-5.4,13.3c0,7.4,3.9,12.7,5.8,14.5c4.3,4,9.3,5.6,14.3,5.6
			c2,0,4.8-0.3,6.2-1.1c0.7-0.4,1.1-0.9,1.1-1.8V62.9z"/>
		<path class="st1" d="M173.3,61.1c0,5,0,9.2,0.3,11.4c0.2,1.5,0.5,2.7,2.1,2.9c0.8,0.1,2,0.2,2.5,0.2c0.3,0,0.4,0.2,0.4,0.3
			c0,0.3-0.3,0.4-0.9,0.4c-3,0-6.5-0.2-6.7-0.2c-0.3,0-3.7,0.2-5.4,0.2c-0.6,0-0.9-0.1-0.9-0.4c0-0.2,0.1-0.3,0.4-0.3
			c0.5,0,1.1-0.1,1.6-0.2c1.1-0.2,1.4-1.4,1.6-2.9c0.3-2.2,0.3-6.3,0.3-11.4v-9.2c0-8.2,0-9.6-0.1-11.3c-0.1-1.8-0.7-2.7-1.9-2.9
			c-0.6-0.2-1.3-0.2-1.7-0.2c-0.2,0-0.4-0.1-0.4-0.3c0-0.3,0.3-0.4,0.9-0.4c1.8,0,5.3,0.2,5.5,0.2c0.3,0,3.7-0.2,5.4-0.2
			c0.6,0,0.9,0.1,0.9,0.4c0,0.2-0.2,0.3-0.4,0.3c-0.4,0-0.7,0.1-1.4,0.2c-1.5,0.3-1.9,1.2-2,3c-0.1,1.7-0.1,3.1-0.1,11.3V61.1z"/>
		<path class="st1" d="M194.3,69.2c0.1,4.3,0.7,5.7,2.1,6.1c1,0.3,2.2,0.3,2.7,0.3c0.3,0,0.4,0.1,0.4,0.3c0,0.3-0.3,0.4-1,0.4
			c-3.1,0-5.3-0.2-5.8-0.2s-2.8,0.2-5.3,0.2c-0.5,0-0.9-0.1-0.9-0.4c0-0.2,0.2-0.3,0.4-0.3c0.4,0,1.4-0.1,2.2-0.3
			c1.4-0.4,1.6-1.9,1.6-6.7l0.1-30c0-2,0.2-2.6,0.6-2.6c0.4,0,1.4,1.2,1.9,1.7c0.8,0.9,9,9.3,17.4,18c5.4,5.6,11.4,11.9,13.1,13.7
			l-0.6-26.6c-0.1-3.4-0.4-4.6-2.1-5c-1-0.2-2.2-0.3-2.7-0.3c-0.4,0-0.4-0.2-0.4-0.4c0-0.3,0.4-0.4,1.1-0.4c2.5,0,5.1,0.2,5.7,0.2
			c0.6,0,2.4-0.2,4.7-0.2c0.6,0,1,0.1,1,0.4c0,0.2-0.2,0.4-0.6,0.4c-0.3,0-0.7,0-1.3,0.2c-1.8,0.4-2,1.5-2,4.7l-0.1,30.7
			c0,3.5-0.1,3.7-0.5,3.7c-0.4,0-1.1-0.6-4-3.4c-0.6-0.5-8.5-8.2-14.3-14.2c-6.3-6.5-12.5-13.2-14.3-15L194.3,69.2z"/>
		<path class="st1" d="M269.9,62.9c0-4.2-0.3-4.8-2.5-5.4c-0.4-0.1-1.4-0.2-1.9-0.2c-0.2,0-0.4-0.1-0.4-0.3c0-0.3,0.3-0.4,0.9-0.4
			c2.5,0,5.9,0.2,6.2,0.2c0.3,0,3.7-0.2,5.4-0.2c0.6,0,0.9,0.1,0.9,0.4c0,0.2-0.2,0.3-0.4,0.3c-0.4,0-0.7,0.1-1.4,0.2
			c-1.5,0.3-1.9,1.2-2,3c-0.1,1.7-0.1,3.2-0.1,5.4v5.9c0,2.4-0.1,2.5-0.7,2.8c-3.5,1.8-8.4,2.4-11.6,2.4c-4.2,0-11.9-0.5-18-5.6
			c-3.3-2.8-6.5-8.4-6.5-14.9c0-8.4,4.3-14.3,9.1-17.2c4.9-2.9,10.3-3.3,14.6-3.3c3.4,0,7.3,0.7,8.4,0.9c1.1,0.3,3.1,0.5,4.4,0.5
			c0.5,0.1,0.7,0.3,0.7,0.5c0,0.7-0.4,2.2-0.4,7.4c0,0.8-0.1,1.1-0.5,1.1c-0.3,0-0.3-0.3-0.4-0.8c-0.1-0.7-0.3-2.2-1.2-3.5
			c-1.4-2-5.8-4.2-12.9-4.2c-3.4,0-7.6,0.3-11.7,3.5c-3.2,2.4-5.4,7.2-5.4,13.3c0,7.4,3.9,12.7,5.8,14.5c4.3,4,9.3,5.6,14.3,5.6
			c2,0,4.8-0.3,6.2-1.1c0.7-0.4,1.1-0.9,1.1-1.8V62.9z"/>
	</g>
	<g class="st0">
		<path class="st1" d="M379.8,51.9c0-8.2,0-9.6-0.1-11.3c-0.1-1.8-0.5-2.6-2.4-3c-0.4-0.1-1.4-0.2-1.9-0.2c-0.2,0-0.4-0.1-0.4-0.3
			c0-0.3,0.3-0.4,0.9-0.4c2.5,0,5.9,0.2,6.2,0.2c0.7,0,4.1-0.2,7.4-0.2c5.4,0,15.4-0.5,21.9,6c2.7,2.7,5.3,7.1,5.3,13.3
			c0,6.6-2.8,11.7-5.9,14.8c-2.4,2.4-7.3,6-16.6,6c-2.4,0-5.3-0.2-7.6-0.3c-2.4-0.2-4.3-0.3-4.5-0.3c-0.1,0-1,0-2.2,0.1
			c-1.1,0-2.4,0.1-3.2,0.1c-0.6,0-0.9-0.1-0.9-0.4c0-0.2,0.1-0.3,0.4-0.3c0.5,0,1.1-0.1,1.6-0.2c1.1-0.2,1.4-1.4,1.6-2.9
			c0.3-2.2,0.3-6.3,0.3-11.4V51.9z M384.4,57.5c0,5.6,0.1,10.4,0.1,11.4c0.1,1.3,0.2,3.4,0.6,4c0.7,1,2.8,2.1,9.3,2.1
			c5.1,0,9.8-1.8,13-4.9c2.8-2.7,4.4-7.7,4.4-12.5c0-6.7-3-11-5.3-13.2c-5.1-5.2-11.4-5.9-17.9-5.9c-1.1,0-3.1,0.2-3.6,0.4
			c-0.5,0.2-0.7,0.5-0.7,1c-0.1,1.8-0.1,7.1-0.1,11.2V57.5z"/>
		<path class="st1" d="M429.5,51.9c0-8.2,0-9.6-0.1-11.3c-0.1-1.8-0.5-2.6-2.4-3c-0.4-0.1-1.4-0.2-1.9-0.2c-0.2,0-0.4-0.1-0.4-0.3
			c0-0.3,0.3-0.4,0.9-0.4c1.3,0,2.7,0,3.9,0.1l2.2,0.1c0.4,0,11.3,0,12.5-0.1c1-0.1,1.9-0.2,2.4-0.3c0.3-0.1,0.5-0.3,0.8-0.3
			c0.2,0,0.2,0.2,0.2,0.5c0,0.4-0.3,1-0.4,2.5c-0.1,0.5-0.2,2.8-0.3,3.5c-0.1,0.3-0.2,0.6-0.4,0.6c-0.3,0-0.4-0.3-0.4-0.7
			c0-0.4-0.1-1.3-0.3-1.9c-0.4-0.8-0.9-1.5-3.9-1.8c-0.9-0.1-6.9-0.2-7.5-0.2c-0.2,0-0.3,0.2-0.3,0.5v14.5c0,0.4,0.1,0.5,0.3,0.5
			c0.7,0,7.4,0,8.7-0.1c1.3-0.1,2.1-0.2,2.6-0.7c0.4-0.4,0.6-0.7,0.8-0.7c0.2,0,0.3,0.1,0.3,0.4c0,0.3-0.3,1.2-0.4,2.9
			c-0.1,1-0.2,3-0.2,3.4c0,0.4,0,1-0.4,1c-0.3,0-0.4-0.2-0.4-0.5c0-0.5,0-1-0.2-1.7c-0.2-0.7-0.7-1.6-2.8-1.8
			c-1.5-0.2-6.9-0.3-7.8-0.3c-0.3,0-0.4,0.2-0.4,0.4v4.6c0,1.8-0.1,7.9,0,9c0.2,3.6,1,4.3,6.3,4.3c1.4,0,3.8,0,5.3-0.6
			c1.4-0.6,2.1-1.6,2.5-3.8c0.1-0.6,0.2-0.8,0.5-0.8c0.3,0,0.3,0.4,0.3,0.8c0,0.4-0.4,4-0.7,5.1c-0.4,1.4-0.8,1.4-3,1.4
			c-4.1,0-7.1-0.1-9.2-0.2c-2.1-0.1-3.4-0.2-4.3-0.2c-0.1,0-1,0-2.2,0.1c-1.1,0-2.4,0.1-3.2,0.1c-0.6,0-0.9-0.1-0.9-0.4
			c0-0.2,0.1-0.3,0.4-0.3c0.5,0,1.1-0.1,1.6-0.2c1.1-0.2,1.4-1.4,1.6-2.9c0.3-2.2,0.3-6.3,0.3-11.4V51.9z"/>
		<path class="st1" d="M459.4,75.6c-0.8-0.4-0.8-0.6-0.8-2c0-2.6,0.2-4.7,0.3-5.6c0.1-0.6,0.2-0.8,0.4-0.8c0.3,0,0.4,0.2,0.4,0.6
			c0,0.5,0,1.2,0.2,1.9c0.8,3.9,4.4,5.3,8.1,5.3c5.3,0,7.8-3.6,7.8-7c0-3.6-1.6-5.7-6.3-9.4l-2.5-1.9c-5.8-4.6-7.1-7.8-7.1-11.4
			c0-5.6,4.4-9.4,11.3-9.4c2.1,0,3.7,0.2,5.1,0.5c1,0.2,1.5,0.3,1.9,0.3c0.4,0,0.5,0.1,0.5,0.4c0,0.3-0.2,2-0.2,5.6
			c0,0.8-0.1,1.2-0.4,1.2c-0.3,0-0.4-0.3-0.4-0.7c-0.1-0.6-0.4-2-0.7-2.6c-0.3-0.6-1.8-2.8-6.8-2.8c-3.8,0-6.7,2.3-6.7,6.1
			c0,3,1.4,4.9,6.7,8.8l1.5,1.2c6.5,4.9,8,8.1,8,12.3c0,2.1-0.9,6.1-4.7,8.7c-2.4,1.6-5.3,2.2-8.3,2.2
			C464.2,77,461.6,76.7,459.4,75.6z"/>
		<path class="st1" d="M498.7,61.1c0,5,0,9.2,0.3,11.4c0.2,1.5,0.5,2.7,2.1,2.9c0.8,0.1,2,0.2,2.5,0.2c0.3,0,0.4,0.2,0.4,0.3
			c0,0.3-0.3,0.4-0.9,0.4c-3,0-6.5-0.2-6.7-0.2c-0.3,0-3.7,0.2-5.4,0.2c-0.6,0-0.9-0.1-0.9-0.4c0-0.2,0.1-0.3,0.4-0.3
			c0.5,0,1.1-0.1,1.6-0.2c1.1-0.2,1.4-1.4,1.6-2.9c0.3-2.2,0.3-6.3,0.3-11.4v-9.2c0-8.2,0-9.6-0.1-11.3c-0.1-1.8-0.7-2.7-1.9-2.9
			c-0.6-0.2-1.3-0.2-1.7-0.2c-0.2,0-0.4-0.1-0.4-0.3c0-0.3,0.3-0.4,0.9-0.4c1.8,0,5.3,0.2,5.5,0.2c0.3,0,3.7-0.2,5.4-0.2
			c0.6,0,0.9,0.1,0.9,0.4c0,0.2-0.2,0.3-0.4,0.3c-0.4,0-0.7,0.1-1.4,0.2c-1.5,0.3-1.9,1.2-2,3c-0.1,1.7-0.1,3.1-0.1,11.3V61.1z"/>
		<path class="st1" d="M543.4,62.9c0-4.2-0.3-4.8-2.5-5.4c-0.4-0.1-1.4-0.2-1.9-0.2c-0.2,0-0.4-0.1-0.4-0.3c0-0.3,0.3-0.4,0.9-0.4
			c2.5,0,5.9,0.2,6.2,0.2c0.3,0,3.7-0.2,5.4-0.2c0.6,0,0.9,0.1,0.9,0.4c0,0.2-0.2,0.3-0.4,0.3c-0.4,0-0.7,0.1-1.4,0.2
			c-1.5,0.3-1.9,1.2-2,3c-0.1,1.7-0.1,3.2-0.1,5.4v5.9c0,2.4-0.1,2.5-0.7,2.8c-3.5,1.8-8.4,2.4-11.6,2.4c-4.2,0-11.9-0.5-18-5.6
			c-3.3-2.8-6.5-8.4-6.5-14.9c0-8.4,4.3-14.3,9.1-17.2c4.9-2.9,10.3-3.3,14.6-3.3c3.4,0,7.3,0.7,8.4,0.9c1.1,0.3,3.1,0.5,4.4,0.5
			c0.5,0.1,0.7,0.3,0.7,0.5c0,0.7-0.4,2.2-0.4,7.4c0,0.8-0.1,1.1-0.5,1.1c-0.3,0-0.3-0.3-0.4-0.8c-0.1-0.7-0.3-2.2-1.2-3.5
			c-1.4-2-5.8-4.2-12.9-4.2c-3.4,0-7.6,0.3-11.7,3.5c-3.2,2.4-5.4,7.2-5.4,13.3c0,7.4,3.9,12.7,5.8,14.5c4.3,4,9.3,5.6,14.3,5.6
			c2,0,4.8-0.3,6.2-1.1c0.7-0.4,1.1-0.9,1.1-1.8V62.9z"/>
		<path class="st1" d="M566,69.2c0.1,4.3,0.7,5.7,2.1,6.1c1,0.3,2.2,0.3,2.7,0.3c0.3,0,0.4,0.1,0.4,0.3c0,0.3-0.3,0.4-1,0.4
			c-3.1,0-5.3-0.2-5.8-0.2s-2.8,0.2-5.3,0.2c-0.5,0-0.9-0.1-0.9-0.4c0-0.2,0.2-0.3,0.4-0.3c0.4,0,1.4-0.1,2.2-0.3
			c1.4-0.4,1.6-1.9,1.6-6.7l0.1-30c0-2,0.2-2.6,0.6-2.6c0.4,0,1.4,1.2,1.9,1.7c0.8,0.9,9,9.3,17.4,18c5.4,5.6,11.4,11.9,13.1,13.7
			l-0.6-26.6c-0.1-3.4-0.4-4.6-2.1-5c-1-0.2-2.2-0.3-2.7-0.3c-0.4,0-0.4-0.2-0.4-0.4c0-0.3,0.4-0.4,1.1-0.4c2.5,0,5.1,0.2,5.7,0.2
			c0.6,0,2.4-0.2,4.7-0.2c0.6,0,1,0.1,1,0.4c0,0.2-0.2,0.4-0.6,0.4c-0.3,0-0.7,0-1.3,0.2c-1.8,0.4-2,1.5-2,4.7l-0.1,30.7
			c0,3.5-0.1,3.7-0.5,3.7c-0.4,0-1.1-0.6-4-3.4c-0.6-0.5-8.5-8.2-14.3-14.2c-6.3-6.5-12.5-13.2-14.3-15L566,69.2z"/>
	</g>
	<g>
		<path class="st2" d="M298.4,59.4c0-9.6,6.1-16,12.4-19.7c-3-4.3-4-7.6-4-11.3c0-6.5,6.6-15.1,17.5-15.1c4.1,0,7.6,0.8,9.8,2
			c1,0.6,1.1,1.1,1.1,2c0,2.5-0.3,8.2-0.6,9.4c-0.2,1.2-0.5,1.4-0.8,1.4c-0.4,0-0.5-0.3-0.5-1.6c0-2.1-0.5-4.8-2.5-7
			c-1.8-1.9-4.6-3.6-8.1-3.6c-4.9,0-10.3,3-10.3,10.7c0,6.4,4.4,11.7,12.8,21c2.8,3,12.8,12.4,15.4,14.7c2.3-3.1,4.1-8.6,4.1-13.6
			c0-1.2-0.3-2.8-1.5-4c-1.1-1.1-2.8-1.3-4-1.3c-0.5,0-1-0.2-1-0.6c0-0.4,0.6-0.6,1.3-0.6c2,0,5.2,0.1,9.8,0.6
			c1.2,0.2,1.5,0.8,1.5,1.6c0,6.6-4.5,14.9-8,19.3c5.4,4.6,8.9,6.8,11.2,8.1c2.6,1.6,6.7,3.2,9.7,3.2c0.7,0,1.1,0.1,1.1,0.6
			c0,0.3-0.7,0.6-1.4,0.6h-8c-6,0-8-0.6-16.9-7.7c-1.9,1.9-8.3,8.8-20.3,8.8C304,77.5,298.4,66.5,298.4,59.4z M336.4,67.1
			c-4.6-3.8-12.6-11.5-14.7-13.8c-2.1-2.3-7.3-8.1-9.6-11.5c-4.2,2.8-7.3,7.2-7.3,13.8c0,10.2,7.2,17.6,16.3,17.6
			C328.6,73.2,333.7,70,336.4,67.1z"/>
	</g>
	<g>
		<path class="st3" d="M183.5,102.7c-1.3,0-2.4,0.1-2.8,0.1c-0.4,0-1.9-0.1-3.4-0.1c-0.4,0-0.6,0-0.6,0.2c0,0.1,0,0.2,0.3,0.2
			c0.3,0,1,0,1.6,0.2c1,0.3,1.2,1,1.3,3.1l0.4,16.5c-1-1.1-4.6-5-7.8-8.5c-5-5.4-9.8-10.6-10.3-11.1c-0.3-0.3-0.9-1-1.1-1
			c-0.3,0-0.4,0.4-0.4,1.6l0,18.6c0,3-0.2,3.9-1,4.1c-0.5,0.2-1.1,0.2-1.3,0.2c-0.2,0-0.3,0.1-0.3,0.2c0,0.2,0.2,0.3,0.5,0.3
			c1.5,0,2.8-0.1,3.1-0.1c0.3,0,1.6,0.1,3.4,0.1c0.4,0,0.6-0.1,0.6-0.3c0-0.1-0.1-0.2-0.3-0.2c-0.3,0-1,0-1.6-0.2
			c-0.9-0.3-1.2-1.1-1.3-3.8l-0.4-15.5c1,1.2,4.7,5.3,8.5,9.3c3.4,3.7,8.1,8.5,8.5,8.8c1.7,1.7,2.1,2.1,2.4,2.1
			c0.2,0,0.3-0.2,0.3-2.3l0.1-19c0-1.9,0.1-2.7,1.2-2.9c0.4-0.1,0.6-0.1,0.8-0.1c0.2,0,0.4-0.1,0.4-0.2
			C184.1,102.7,183.9,102.7,183.5,102.7z"/>
		<path class="st3" d="M222.9,122.8c-0.2,0-0.2,0.1-0.3,0.5c-0.2,1.3-0.6,2-1.5,2.3c-0.8,0.4-2.3,0.4-3.1,0.4
			c-3.2,0-3.7-0.4-3.8-2.7c0-0.7,0-4.4,0-5.5V115c0-0.1,0.1-0.2,0.2-0.2c0.6,0,3.8,0.1,4.6,0.2c1.3,0.1,1.6,0.7,1.7,1.1
			c0.1,0.4,0.1,0.7,0.1,1.1c0,0.2,0.1,0.3,0.2,0.3c0.2,0,0.2-0.4,0.2-0.6c0-0.2,0.1-1.4,0.1-2.1c0.1-1.1,0.3-1.6,0.3-1.8
			c0-0.2-0.1-0.3-0.2-0.3c-0.1,0-0.3,0.2-0.5,0.4c-0.3,0.3-0.7,0.4-1.5,0.5c-0.7,0.1-4.7,0.1-5.2,0.1c-0.2,0-0.2-0.1-0.2-0.3v-9
			c0-0.2,0.1-0.3,0.2-0.3c0.4,0,3.9,0,4.4,0.1c1.8,0.2,2.1,0.6,2.3,1.1c0.2,0.4,0.2,0.9,0.2,1.2c0,0.3,0.1,0.4,0.3,0.4
			c0.1,0,0.2-0.2,0.2-0.4c0.1-0.4,0.1-1.8,0.2-2.1c0.1-0.9,0.3-1.3,0.3-1.5c0-0.2,0-0.3-0.1-0.3c-0.2,0-0.3,0.1-0.5,0.2
			c-0.3,0.1-0.8,0.1-1.4,0.2c-0.7,0-7.2,0-7.4,0l-1.3-0.1c-0.7,0-1.6,0-2.3,0c-0.4,0-0.5,0.1-0.5,0.3c0,0.1,0.1,0.2,0.3,0.2
			c0.3,0,0.8,0,1.1,0.1c1.1,0.2,1.3,0.7,1.4,1.8c0.1,1,0.1,1.9,0.1,7v5.7c0,3.1,0,5.7-0.2,7c-0.1,0.9-0.3,1.7-0.9,1.8
			c-0.3,0.1-0.7,0.1-1,0.1c-0.2,0-0.3,0.1-0.3,0.2c0,0.2,0.2,0.3,0.5,0.3c0.5,0,1.2-0.1,1.9-0.1c0.7,0,1.2,0,1.3,0
			c0.5,0,1.3,0,2.5,0.1c1.3,0,3,0.1,5.5,0.1c1.3,0,1.5,0,1.8-0.8c0.2-0.7,0.4-2.9,0.4-3.1C223.1,123.1,223.1,122.8,222.9,122.8z"/>
		<path class="st3" d="M265.9,102.5c-0.1,0-0.4,0.1-0.9,0.2c-0.5,0.1-1.3,0.2-2.3,0.2h-12.2c-0.4,0-1.6-0.1-2.6-0.2
			c-0.9-0.1-1.2-0.4-1.4-0.4c-0.1,0-0.3,0.4-0.3,0.6c-0.1,0.3-0.7,3-0.7,3.4c0,0.2,0.1,0.3,0.2,0.3c0.1,0,0.2-0.1,0.3-0.3
			c0.1-0.2,0.2-0.5,0.6-1c0.5-0.8,1.3-1,3.3-1l4.8-0.1v13.7c0,3.1,0,5.7-0.2,7c-0.1,0.9-0.3,1.7-0.9,1.8c-0.3,0.1-0.7,0.1-1,0.1
			c-0.2,0-0.3,0.1-0.3,0.2c0,0.2,0.2,0.3,0.5,0.3c1,0,3-0.1,3.2-0.1c0.2,0,2.2,0.1,4,0.1c0.4,0,0.5-0.1,0.5-0.3
			c0-0.1-0.1-0.2-0.3-0.2c-0.3,0-1-0.1-1.5-0.1c-1-0.1-1.2-0.8-1.3-1.8c-0.2-1.4-0.2-3.9-0.2-7v-13.7l4.1,0.1c3.1,0.1,3.9,0.8,4,1.8
			l0,0.4c0,0.5,0.1,0.6,0.3,0.6c0.1,0,0.2-0.1,0.2-0.4c0-0.4,0.1-2.6,0.1-3.6C266.1,102.7,266.1,102.5,265.9,102.5z"/>
		<path class="st3" d="M322.2,102.7c-1,0-2.4,0.1-2.6,0.1c-0.3,0-1.7-0.1-3.3-0.1c-0.4,0-0.6,0.1-0.6,0.2c0,0.1,0.1,0.2,0.3,0.2
			c1.5,0,1.8,0.4,1.8,1c0,0.4,0,0.9-0.4,2.1c-1.1,4.2-4.1,13.6-5,16.5h-0.1l-6.5-18.4c-0.4-1.1-0.6-1.5-0.8-1.5
			c-0.2,0-0.3,0.2-0.8,1.5l-6.9,18.5h-0.1c-0.5-1.7-3.9-13.6-4.3-15.7c-0.3-1.4-0.6-2.6-0.6-3c0-0.4,0.2-0.7,0.4-0.8
			c0.4-0.2,1-0.2,1.3-0.2c0.2,0,0.3,0,0.3-0.2c0-0.1-0.1-0.2-0.6-0.2c-1.6,0-3,0.1-3.3,0.1c-0.4,0-2.1-0.1-3.8-0.1
			c-0.3,0-0.5,0.1-0.5,0.2c0,0.2,0.1,0.2,0.3,0.2c0.2,0,1,0,1.5,0.2c0.8,0.3,1.3,0.8,1.8,2.5l5.8,19.2c0.6,2.2,0.8,2.6,1.1,2.6
			c0.4,0,0.6-0.4,1.1-1.7c1.2-3,5.6-14.9,6.8-18h0.1l6.4,18c0.5,1.3,0.6,1.7,1,1.7c0.4,0,0.5-0.4,1.4-2.8c1.3-3.6,4.5-13.9,6-18.1
			c0.6-1.8,1.1-3.1,2.1-3.5c0.4-0.1,1-0.2,1.1-0.2c0.2,0,0.3-0.1,0.3-0.3C322.7,102.8,322.5,102.7,322.2,102.7z"/>
		<path class="st3" d="M356.2,102.2c-9,0-12.8,7.4-12.8,12.7c0,5.8,3.7,12.7,12.6,12.7c7.8,0,12.9-6,12.9-13.3
			C368.9,106.9,363.5,102.2,356.2,102.2z M356.9,126.4c-5.8,0-10.4-4.9-10.4-12.4c0-7.1,4.1-10.7,9.5-10.7c5.1,0,9.9,4.2,9.9,12
			C365.8,124.8,359.8,126.4,356.9,126.4z"/>
		<path class="st3" d="M416.4,126.8c-0.2,0-0.6,0-1.3-0.1c-0.8-0.1-2.2-0.5-4-2.3c-1.9-2-4.1-4.9-6.7-8.3c2.9-2.7,3.9-5.1,3.9-7.5
			c0-2.2-1.4-3.8-2.2-4.4c-1.7-1.2-3.9-1.4-5.9-1.4c-1,0-3.5,0.1-3.8,0.1c-0.2,0-2.2-0.1-3.7-0.1c-0.4,0-0.5,0.1-0.5,0.3
			c0,0.1,0.1,0.2,0.3,0.2c0.3,0,0.8,0,1.1,0.1c1.1,0.2,1.3,0.7,1.4,1.8c0.1,1,0.1,1.9,0.1,7v5.7c0,3.1,0,5.7-0.2,7
			c-0.1,0.9-0.3,1.7-0.9,1.8c-0.3,0.1-0.7,0.1-1,0.1c-0.2,0-0.3,0.1-0.3,0.2c0,0.2,0.2,0.3,0.5,0.3c1,0,3-0.1,3-0.1
			c0.2,0,2.2,0.1,4,0.1c0.4,0,0.5-0.1,0.5-0.3c0-0.1-0.1-0.2-0.3-0.2c-0.3,0-1-0.1-1.5-0.1c-1-0.1-1.2-0.8-1.3-1.8
			c-0.2-1.4-0.2-3.9-0.2-7V117c0-0.2,0.1-0.3,0.2-0.3l4,0.1c0.2,0,0.3,0.1,0.4,0.2c0.6,0.8,2.2,3,3.5,4.8c1.8,2.4,3,4,4.4,4.8
			c0.8,0.5,1.7,0.6,3.5,0.6h2.3c0.6,0,0.8-0.1,0.8-0.3C416.7,126.9,416.6,126.8,416.4,126.8z M401.2,115.8c-1.4,0-2.9-0.2-3.4-0.5
			c-0.2-0.1-0.2-0.2-0.2-0.4v-10.6c0-0.2,0.1-0.3,0.3-0.4c0.3-0.1,1.2-0.2,2.2-0.2c3.5,0,5.6,2.4,5.6,6.5c0,2.5-0.8,4.2-2,5
			C402.9,115.7,402,115.8,401.2,115.8z"/>
		<path class="st3" d="M459.4,126.8c-0.2,0-1.2-0.1-2-0.4c-1.6-0.6-2.1-1.2-4.8-3.7c-1.3-1.2-8.1-8.2-8.9-9.1
			c0.7-0.8,6.3-6.3,7.1-7.1c1.5-1.4,2.2-2.2,3.5-2.8c0.6-0.3,1.3-0.5,1.8-0.5c0.3,0,0.3-0.1,0.3-0.2c0-0.2-0.1-0.2-0.5-0.2
			c-0.8,0-3,0.1-3.1,0.1c-0.8,0-1.8-0.1-2.4-0.1c-0.2,0-0.4,0.1-0.4,0.2c0,0.1,0.1,0.2,0.3,0.3c0.3,0.1,0.4,0.3,0.4,0.7
			c0,0.6-0.8,1.4-1.8,2.3c-1.2,1.3-7,7.2-7.6,7.8h-0.1v-1.9c0-5.1,0-6,0.1-7c0.1-1.1,0.3-1.7,1.2-1.8c0.4-0.1,0.6-0.1,0.8-0.1
			c0.1,0,0.3-0.1,0.3-0.2c0-0.2-0.2-0.3-0.5-0.3c-1,0-2.9,0.1-3.1,0.1c-0.2,0-2.1-0.1-3.6-0.1c-0.4,0-0.5,0.1-0.5,0.3
			c0,0.1,0.1,0.2,0.3,0.2c0.3,0,0.8,0,1.1,0.1c1.1,0.2,1.3,0.7,1.4,1.8c0.1,1,0.1,1.9,0.1,7v5.7c0,3.1,0,5.7-0.2,7
			c-0.1,0.9-0.3,1.7-0.9,1.8c-0.3,0.1-0.7,0.1-1,0.1c-0.2,0-0.3,0.1-0.3,0.2c0,0.2,0.2,0.3,0.5,0.3c1,0,2.9-0.1,3.1-0.1
			c0.3,0,2.1,0.1,3.7,0.1c0.4,0,0.5-0.1,0.5-0.3c0-0.1-0.1-0.2-0.3-0.2c-0.3,0-0.8-0.1-1.3-0.1c-1-0.1-1.2-0.8-1.3-1.8
			c-0.2-1.4-0.2-3.9-0.2-7v-3.2h0.2c1.6,1.9,8.4,9.3,9.9,10.5c1.4,1.1,2.2,1.8,3.9,2c0.7,0.1,1.3,0.1,2.2,0.1h1.7
			c0.6,0,0.7-0.1,0.7-0.3C459.8,126.8,459.6,126.8,459.4,126.8z"/>
	</g>
</g>
</svg>
