<?xml version="1.0" encoding="utf-8"?>
<!-- Generator: Adobe Illustrator 25.2.1, SVG Export Plug-In . SVG Version: 6.00 Build 0)  -->
<svg version="1.1" id="Capa_1" xmlns="http://www.w3.org/2000/svg" xmlns:xlink="http://www.w3.org/1999/xlink" x="0px" y="0px"
	 viewBox="0 0 512 512" style="enable-background:new 0 0 512 512;" xml:space="preserve">
<style type="text/css">
	.st0{fill:#C9DFF7;}
	.st1{fill:#AECEF2;}
	.st2{fill:#0BA3B2;}
	.st3{fill:#007A8D;}
</style>
<g>
	<g>
		<path class="st0" d="M256,512c-66,0-128.2-8.8-175.2-24.8C14,464.5,0,435.5,0,415.1c0-26.6,23.7-45.2,43.7-56.1
			c7.3-4,16.4-1.3,20.4,5.9c4,7.3,1.3,16.4-5.9,20.4C40.2,395.1,30,406,30,415.1c0,11.2,15.9,28.6,60.4,43.7
			c44,15,102.8,23.2,165.6,23.2s121.6-8.2,165.6-23.2c44.5-15.1,60.4-32.5,60.4-43.7c0-9.2-10.2-20-28.1-29.9
			c-7.3-4-9.9-13.1-5.9-20.4c4-7.3,13.1-9.9,20.4-5.9c19.9,10.9,43.7,29.6,43.7,56.1c0,20.4-14,49.4-80.8,72.1
			C384.2,503.2,322,512,256,512z"/>
		<path class="st1" d="M468.3,359c-7.3-4-16.4-1.3-20.4,5.9c-4,7.3-1.3,16.4,5.9,20.4c17.9,9.8,28.1,20.7,28.1,29.9
			c0,11.2-15.9,28.6-60.4,43.7c-44,15-102.8,23.2-165.6,23.2c0,0,0,0,0,0v30c0,0,0,0,0,0c66,0,128.2-8.8,175.2-24.8
			c66.8-22.7,80.8-51.7,80.8-72.1C512,388.5,488.3,369.9,468.3,359z"/>
	</g>
	<g>
		<path class="st0" d="M256,450.5c-42.6,0-82.8-4.7-113.2-13.3c-37.3-10.5-56.1-25.8-56.1-45.3c0-19.5,18.9-34.8,56.1-45.3
			c30.4-8.6,70.7-13.3,113.2-13.3s82.8,4.7,113.2,13.3c37.3,10.5,56.1,25.8,56.1,45.3c0,19.5-18.9,34.8-56.1,45.3
			C338.8,445.7,298.6,450.5,256,450.5z M116.9,391.9c2.1,3,12.1,10.9,39.5,17.9c27.2,6.9,62.6,10.7,99.6,10.7s72.4-3.8,99.6-10.7
			c27.4-7,37.4-14.8,39.5-17.9c-2.1-3-12.1-10.9-39.5-17.9c-27.2-6.9-62.6-10.7-99.6-10.7s-72.4,3.8-99.6,10.7
			C128.9,381,118.9,388.8,116.9,391.9z M395.5,392.5L395.5,392.5L395.5,392.5z"/>
		<path class="st1" d="M369.2,346.6c-30.5-8.6-70.7-13.3-113.2-13.3c0,0,0,0,0,0v30c0,0,0,0,0,0c37,0,72.4,3.8,99.6,10.7
			c27.4,7,37.4,14.8,39.5,17.9c-2.1,3-12.1,10.9-39.5,17.9c-27.2,6.9-62.6,10.7-99.6,10.7c0,0,0,0,0,0v30c0,0,0,0,0,0
			c42.6,0,82.8-4.7,113.2-13.3c37.3-10.5,56.1-25.8,56.1-45.3C425.4,372.3,406.5,357.1,369.2,346.6z"/>
	</g>
</g>
<path class="st2" d="M256,0c-76.9,0-139.4,62.6-139.4,139.4c0,47.9,58.2,153.1,107,233c7,11.4,19.1,18.2,32.4,18.2
	c13.4,0,25.5-6.8,32.4-18.2c48.8-79.9,107-185.1,107-233C395.4,62.6,332.9,0,256,0z M256,185.9c-30.9,0-56-25.1-56-56
	c0-30.9,25.1-56,56-56s56,25.1,56,56C312,160.8,286.9,185.9,256,185.9z"/>
<path class="st3" d="M256,0C256,0,256,0,256,0l0,73.8c0,0,0,0,0,0c30.9,0,56,25.1,56,56c0,30.9-25.1,56-56,56c0,0,0,0,0,0v204.7
	c0,0,0,0,0,0c13.4,0,25.5-6.8,32.4-18.2c48.8-79.9,107-185.1,107-233C395.4,62.6,332.9,0,256,0z"/>
</svg>
