<svg id="Layer_1" data-name="Layer 1" xmlns="http://www.w3.org/2000/svg" viewBox="0 0 508 508"><defs><style>.cls-1{fill:#828282;}</style></defs><path class="cls-1" d="M499.74,68.39H128.09V12.26A10.26,10.26,0,0,0,117.83,2H72.56A10.26,10.26,0,0,0,62.3,12.26V68.39h-50A10.26,10.26,0,0,0,2,78.65v40.78a10.26,10.26,0,0,0,10.26,10.26h50V499.74A10.26,10.26,0,0,0,72.56,510h45.27a10.26,10.26,0,0,0,10.26-10.26v-370H499.74A10.26,10.26,0,0,0,510,119.43V78.65A10.26,10.26,0,0,0,499.74,68.39Z" transform="translate(-2 -2)"/><rect class="cls-1" x="156.54" y="158.37" width="317.96" height="221.72"/></svg>