<?xml version="1.0" encoding="utf-8"?>
<!-- Generator: Adobe Illustrator 25.2.1, SVG Export Plug-In . SVG Version: 6.00 Build 0)  -->
<svg version="1.1" id="Layer_1" xmlns="http://www.w3.org/2000/svg" xmlns:xlink="http://www.w3.org/1999/xlink" x="0px" y="0px"
	 viewBox="0 0 492 492" style="enable-background:new 0 0 492 492;" xml:space="preserve">
<style type="text/css">
	.st0{fill:#AC9967;}
</style>
<path class="st0" d="M477.8,328.7L290.1,140.9l-21.8-21.8c-5.4-5.4-12.3-8.4-19.3-9.1c-1-0.1-2.2-0.1-3.2-0.1c-0.3,0-0.7,0-1,0
	c-7.6,0.3-15.2,3.2-21.1,9.1l-21.8,22L36.1,306.7l-21.8,22C8.1,334.8,5,342.8,5,351c0,7.9,3.1,15.8,9.2,22c6.2,6,14.1,9.1,22.1,9.1
	s16-3.1,22.1-9.1l22-22L246,185.1L411.8,351l21.8,21.8c6.2,6,14.1,9.1,22.1,9.1s16-3.1,22.1-9.1c6-6,9.1-13.9,9.1-21.8l0,0
	C487,342.8,484.1,334.7,477.8,328.7z"/>
</svg>
