<?xml version="1.0" encoding="utf-8"?>
<!-- Generator: Adobe Illustrator 25.2.1, SVG Export Plug-In . SVG Version: 6.00 Build 0)  -->
<svg version="1.1" id="Layer_1" xmlns="http://www.w3.org/2000/svg" xmlns:xlink="http://www.w3.org/1999/xlink" x="0px" y="0px"
	 viewBox="0 0 512 512" style="enable-background:new 0 0 512 512;" xml:space="preserve">
<style type="text/css">
	.st0{fill:#FFFFFF;}
</style>
<g id="Layer_1_1_">
	<path class="st0" d="M398.8,441.8v-12.6h64.3c14.8,0,26.9-12.1,26.9-26.9V120.6c0-14.8-12.1-26.9-26.9-26.9H48.9
		c-14.8,0-26.9,12.1-26.9,26.9v281.7c0,14.8,12.1,26.8,26.9,26.8l349.9,0.1V441.8l-349.9-0.1c-21.7,0-39.4-17.7-39.4-39.4V120.6
		c0-21.7,17.7-39.4,39.4-39.4h414.2c21.7,0,39.4,17.7,39.4,39.4v281.7c0,21.7-17.7,39.4-39.4,39.4h-2v0.1L398.8,441.8L398.8,441.8z"
		/>
	<path class="st0" d="M398.8,408.6V396h24.9V126.9H55.2V396h343.6L398.8,408.6H48.9c-3.5,0-6.3-2.8-6.3-6.3V120.6
		c0-3.5,2.8-6.3,6.3-6.3H430c3.5,0,6.3,2.8,6.3,6.3v281.7c0,3.5-2.8,6.3-6.3,6.3H398.8z"/>
	<rect x="456.8" y="222" class="st0" width="12.6" height="78.8"/>
	<path class="st0" d="M309.4,248.9c-1.6,0-3,0.1-4.5,0.2l-3,0.2l-10.8,2.6l-6.1,3.7c-8.3,5-14.8,12.3-18.7,21l-0.5,1.2l-3.2,11.7
		l-0.1,2.1c-0.1,1.6-0.2,3.1-0.2,4.6c0,26.1,21.2,47.3,47.3,47.3c26.1,0,47.1-21.2,47.1-47.3C356.7,270.1,335.5,248.9,309.4,248.9z
		 M309.5,332c-19.7,0-35.7-16-35.7-35.7s16-35.7,35.7-35.7c19.6,0,35.6,16,35.7,35.7C345.2,316,329.2,332,309.5,332z"/>
	<path class="st0" d="M309.5,308.4c-0.9,0-1.7-0.2-2.5-0.6l-12.5-6.3c-2.8-1.5-4-4.9-2.7-7.8c1-2,3-3.3,5.2-3.3
		c0.9,0,1.8,0.2,2.6,0.6l7.9,4l9.7-14.5c1.1-1.6,2.9-2.6,4.8-2.6c1.1,0,2.3,0.3,3.2,0.9c1.3,0.8,2.2,2.1,2.5,3.7
		c0.3,1.5,0,3-0.8,4.3l-12.5,18.8C313.2,307.4,311.4,308.4,309.5,308.4L309.5,308.4z"/>
</g>
<g id="Layer_2_1_">
	<path class="st0" d="M314.5,206c-0.7-1.4-1.9-2.5-3.5-3c-0.5-0.2-1-0.3-1.8-0.3H209c-3.2,0-5.8,2.6-5.8,5.8s2.6,5.8,5.8,5.8h92.1
		l-8.6,26h-70.9c-3.2,0-5.8,2.6-5.8,5.8s2.6,5.8,5.8,5.8h69.5l10.8-2.6l12.9-38.9C315.3,208.9,315.2,207.4,314.5,206z M265.8,277.8
		h-71.1l-36.2-108.7c-0.8-2.4-3.1-4.1-5.5-4.1h-25.1c-3.2,0-5.8,2.6-5.8,5.8c0,3.3,2.7,6,5.8,6h20.8l36.2,108.7
		c0.3,0.5,0.6,1.1,1,1.7l2.3,3.2h-3.9c-10.1,0-18.4,8.3-18.4,18.4s8.3,18.4,18.4,18.4c10.1,0,18.4-8.3,18.4-18.4
		c0-6.3-3.2-12.1-8.6-15.6l-5.7-3.7h74.2L265.8,277.8z M190.9,308.8c0,3.7-3,6.7-6.7,6.7s-6.7-3-6.7-6.7s3-6.7,6.7-6.7
		S190.9,305.1,190.9,308.8z"/>
</g>
</svg>
