<?xml version="1.0" encoding="utf-8"?>
<!-- Generator: Adobe Illustrator 25.2.1, SVG Export Plug-In . SVG Version: 6.00 Build 0)  -->
<svg version="1.1" id="Layer_1" xmlns="http://www.w3.org/2000/svg" xmlns:xlink="http://www.w3.org/1999/xlink" x="0px" y="0px"
	 viewBox="0 0 512 512" style="enable-background:new 0 0 512 512;" xml:space="preserve">
<style type="text/css">
	.st0{fill:#FFFFFF;}
</style>
<g id="Layer_1_1_">
	<path class="st0" d="M398.8,441.8v-12.6h64.3c14.8,0,26.9-12.1,26.9-26.9V120.6c0-14.8-12.1-26.9-26.9-26.9H48.9
		c-14.8,0-26.9,12.1-26.9,26.9v281.7c0,14.8,12.1,26.8,26.9,26.8h271.4v12.6H48.9c-21.7,0-39.4-17.7-39.4-39.4V120.6
		c0-21.7,17.7-39.4,39.4-39.4h414.2c21.7,0,39.4,17.7,39.4,39.4v281.7c0,21.7-17.7,39.4-39.4,39.4h-2v0.1L398.8,441.8L398.8,441.8z"
		/>
	<path class="st0" d="M398.8,408.6V396h24.9V126.9H55.2V396h265.1v12.6H48.9c-3.5,0-6.3-2.8-6.3-6.3V120.6c0-3.5,2.8-6.3,6.3-6.3
		H430c3.5,0,6.3,2.8,6.3,6.3v281.7c0,3.5-2.8,6.3-6.3,6.3H398.8z"/>
	<rect x="456.8" y="222" class="st0" width="12.6" height="78.8"/>
	<path class="st0" d="M365.5,431.1c0.2-1.4,0.2-2.7,0.2-4v-7.2h12.5v7.2c0,2.2-0.1,4.2-0.4,6.1L365.5,431.1z"/>
	<rect x="365.7" y="387.5" class="st0" width="12.6" height="12.2"/>
	<path class="st0" d="M75.8,251.2c-3.5,0-6.3-2.8-6.3-6.3v-58c0-3.5,2.8-6.3,6.3-6.3h10.3V162c0-3.5,2.8-6.3,6.3-6.3h149
		c3.5,0,6.3,2.8,6.3,6.3v18.6H258c3.5,0,6.3,2.8,6.3,6.3v58c0,3.5-2.8,6.3-6.3,6.3L75.8,251.2L75.8,251.2z M231.2,238.6h20.6v-45.4
		h-20.6V238.6z M115.2,238.6h103.4V218H115.2V238.6z M82.1,238.6h20.6v-45.4H82.1V238.6z M98.6,180.6h10.3c3.5,0,6.3,2.8,6.3,6.3
		v18.6h103.4v-18.6c0-3.5,2.8-6.3,6.3-6.3h10.3v-12.3H98.6V180.6z"/>
	<path class="st0" d="M182.1,342.3h-30.4l-21,21l8.9,8.9l27.3-27.3l27.3,27.3l8.9-8.9L182.1,342.3z"/>
</g>
<g id="Layer_2_1_">
	<path class="st0" d="M224.9,296.6h-116c-3.5,0-6.3,2.8-6.3,6.3V336c0,3.5,2.8,6.3,6.3,6.3h116c3.5,0,6.3-2.8,6.3-6.3v-33.1
		C231.2,299.4,228.4,296.6,224.9,296.6z M218.6,329.7H115.2v-20.6h103.4V329.7z"/>
	<path class="st0" d="M346.3,403.7c-0.1,0-0.2,0-0.3,0c-2.7-0.2-5-1.9-5.7-4.4l-23.9-78c-0.8-2.4,0-5,1.9-6.6
		c1.2-1.1,2.6-1.6,4.1-1.6c0.9,0,1.8,0.2,2.7,0.6l73.9,34.5c2.2,1,3.6,3.2,3.6,5.7v0.7c-0.3,2.6-2.1,4.8-4.7,5.5l-32.9,8.4l-13,31.3
		C351,402.2,348.7,403.7,346.3,403.7L346.3,403.7z M347.1,378.9l7.4-18.1c0.7-1.8,2.4-3.2,4.3-3.7l18.8-4.9L332.4,331L347.1,378.9z"
		/>
</g>
</svg>
