<?xml version="1.0" encoding="utf-8"?>
<!-- Generator: Adobe Illustrator 25.2.1, SVG Export Plug-In . SVG Version: 6.00 Build 0)  -->
<svg version="1.1" id="Layer_1" xmlns="http://www.w3.org/2000/svg" xmlns:xlink="http://www.w3.org/1999/xlink" x="0px" y="0px"
	 viewBox="0 0 512 512" style="enable-background:new 0 0 512 512;" xml:space="preserve">
<style type="text/css">
	.st0{fill:#FFFFFF;}
</style>
<path class="st0" d="M431.2,420.8c-28.1,0-51-22.9-51-51v-1.5H193.3v1.5c0,28.1-22.9,51-51,51s-51-22.9-51-51v-1.5H46
	c-8.8,0-16-7.2-16-16v-19H2.2c-4,0-7.2-3.2-7.2-7.2s3.2-7.2,7.2-7.2H81c4,0,7.2,3.2,7.2,7.2s-3.2,7.2-7.2,7.2H44.5v19
	c0,0.9,0.6,1.5,1.5,1.5h47.8l0.2-0.7c7.1-20.5,26.5-34.3,48.2-34.3s41.1,13.8,48.2,34.3l0.2,0.7h171.7V291c0-4,3.2-7.2,7.2-7.2
	s7.2,3.2,7.2,7.2v62.8h5.7l0.2-0.7c7.1-20.5,26.5-34.3,48.2-34.3s41.1,13.8,48.2,34.3l0.2,0.7h23.2v-38.1h-10.3
	c-13.6,0-24.7-11.1-24.7-24.7v-17.5c0-4,3.2-7.2,7.2-7.2h26.9L501,265c-3.7-11.6-14.3-19.3-26.4-19.3h-97.8V256c0,4-3.2,7.2-7.2,7.2
	s-7.2-3.2-7.2-7.2V107.2c0-0.9-0.7-1.5-1.5-1.5h-315c-0.9,0-1.5,0.6-1.5,1.5V256c0,4-3.2,7.2-7.2,7.2S30,260,30,256V107.3
	c0-8.8,7.2-16,16-16h314.9c8.8,0,16,7.2,16,16v19h62.8c18.5,0,33.5,15,33.5,33.5v8.8c0,3.3-2.4,6.3-5.7,7l-1,0.2l14,55.9l0.7,0.1
	c20.4,3,35.8,21,35.8,41.8v87.5c0,4-3.2,7.2-7.2,7.2h-27.6v1.5C482.2,397.9,459.3,420.8,431.2,420.8z M431,333.3
	c-20.1,0-36.5,16.4-36.5,36.5s16.4,36.5,36.5,36.5s36.5-16.4,36.5-36.5C467.5,349.7,451.1,333.3,431,333.3z M142.2,333.3
	c-20.1,0-36.5,16.4-36.5,36.5s16.4,36.5,36.5,36.5s36.5-16.4,36.5-36.5C178.7,349.7,162.3,333.3,142.2,333.3z M482,291
	c0,5.7,4.6,10.3,10.3,10.3h10.3v-20.6H482V291z M377,231.3h88.6l-13.9-55.6H377V231.3z M377,161.2h81.8v-1.5c0-10.5-8.5-19-19-19
	H377V161.2z"/>
<path class="st0" d="M142.2,385.8c-8.8,0-16-7.2-16-16s7.2-16,16-16s16,7.2,16,16S151,385.8,142.2,385.8z"/>
<path class="st0" d="M431,385.8c-8.8,0-16-7.2-16-16s7.2-16,16-16s16,7.2,16,16S439.8,385.8,431,385.8z"/>
<path class="st0" d="M212.2,333.2c-4,0-7.2-3.2-7.2-7.2s3.2-7.2,7.2-7.2h122.6c4,0,7.2,3.2,7.2,7.2s-3.2,7.2-7.2,7.2H212.2z"/>
<path class="st0" d="M19.7,298.2c-4,0-7.2-3.2-7.2-7.2s3.2-7.2,7.2-7.2h105c4,0,7.2,3.2,7.2,7.2s-3.2,7.2-7.2,7.2H19.7z"/>
<path class="st0" d="M194.9,263.2c-2,0-3.8-0.7-5.1-2.1L146,217.3c-2.8-2.8-2.8-7.4,0-10.2c1.3-1.3,3.1-2.1,5.1-2.1s3.7,0.7,5.1,2.1
	l38.7,38.7l73.7-73.7c1.3-1.3,3.1-2.1,5.1-2.1c1.9,0,3.7,0.7,5.1,2.1c2.8,2.8,2.8,7.3,0.2,10.2l-79,78.8
	C198.6,262.5,196.8,263.2,194.9,263.2z"/>
</svg>
