<svg xmlns="http://www.w3.org/2000/svg" width="145" height="19" viewBox="0 0 145 19"><path d="M10 15l-5.878 3.09 1.123-6.545L.489 6.91l6.572-.955L10 0l2.939 5.955 6.572.955-4.756 4.635 1.123 6.545zm32 0l-5.878 3.09 1.123-6.545-4.756-4.635 6.572-.955L42 0l2.939 5.955 6.572.955-4.756 4.635 1.123 6.545zm62 0l-5.878 3.09 1.123-6.545-4.756-4.635 6.572-.955L104 0l2.939 5.955 6.572.955-4.756 4.635 1.123 6.545zm31 0l-5.878 3.09 1.123-6.545-4.756-4.635 6.572-.955L135 0l2.939 5.955 6.572.955-4.756 4.635 1.123 6.545zm-62 0l-5.878 3.09 1.123-6.545-4.756-4.635 6.572-.955L73 0l2.939 5.955 6.572.955-4.756 4.635 1.123 6.545z" fill="#5BD3CB" fill-rule="evenodd"/></svg>