<svg xmlns="http://www.w3.org/2000/svg" width="84" height="40" viewBox="0 0 84 40">
    <g fill="#5BD3CB" fill-rule="nonzero">
        <path d="M41 1.805C41 .81 40.207 0 39.233 0H12.74C10.126 0 8 2.164 8 4.825V20h33V1.805zM8 22h33v4H8zM43 22h33v4H43zM13.83 40h2.338L17 35h-4zM76 4.825C76 2.165 73.874 0 71.261 0h-26.49C43.793 0 43 .81 43 1.805V20h33V4.825zM2.996 9C1.344 9 0 10.37 0 12.052v17.896C0 31.627 1.338 32.993 2.985 33H3c.053 0 .106-.005.159-.008.05-.003.1-.003.15-.008.042-.005.083-.014.126-.02.057-.009.116-.016.172-.027l.078-.02c.071-.018.142-.035.21-.057l.021-.007A3.059 3.059 0 0 0 6 29.94V12.052C6 10.37 4.652 9 2.996 9zM67.83 40h2.34l.83-5h-4zM81.002 9C79.347 9 78 10.37 78 12.052v17.889c0 1.658 1.308 3.013 2.93 3.055.024 0 .047.004.072.004C82.655 33 84 31.63 84 29.948V12.052C84 10.37 82.655 9 81.002 9zM75.985 30.916a4.163 4.163 0 0 1-.053-.376l-.003-.034a4.303 4.303 0 0 1-.018-.376V28H8.09v2.13c0 .126-.007.25-.018.374l-.003.038c-.012.124-.03.247-.052.369l-.005.023A4.431 4.431 0 0 1 7 33H77a4.432 4.432 0 0 1-1.013-2.074l-.002-.01z"/>
    </g>
</svg>
