<svg xmlns="http://www.w3.org/2000/svg" width="49" height="28" viewBox="0 0 49 28"><path fill="#FFF" fill-opacity=".8" d="M47.988 1.026a3.462 3.462 0 00-4.91-.01L24.5 19.596 5.922 1.015a3.464 3.464 0 00-4.91.01 3.497 3.497 0 00.01 4.931l21.015 21.017.002.002.01.01c.08.08.172.14.257.21.094.078.184.166.284.231.117.078.244.134.368.195.08.04.154.091.234.124.16.065.325.106.491.146.052.012.1.035.152.045a3.46 3.46 0 001.327 0c.06-.012.115-.037.175-.052.157-.04.316-.077.469-.14.072-.029.139-.076.21-.11.132-.064.268-.125.393-.209.08-.053.148-.123.224-.184.106-.084.218-.16.316-.258L47.976 5.954a3.491 3.491 0 00.012-4.928z"/></svg>