<svg xmlns="http://www.w3.org/2000/svg" width="54" height="75" viewBox="0 0 54 75">
    <g fill="#5BD3CB" fill-rule="nonzero">
        <path d="M26.606 56.373c-2.711 0-5.486-1.454-5.514-1.469L20 57.086c.127.068 3.03 1.594 6.17 1.73V62h2.546v-3.423c2.886-.737 4.205-2.991 4.205-5.232 0-2.812-1.824-4.752-5.575-5.93-3.888-1.221-3.888-2.876-3.888-3.582 0-1.895 1.47-3.028 3.934-3.028 2.712 0 5.486 1.455 5.515 1.47L34 40.095c-.116-.063-2.504-1.32-5.283-1.66V35h-2.546v3.437c-3.502.467-5.092 2.938-5.092 5.397 0 2.812 1.824 4.752 5.575 5.931 3.89 1.221 3.89 2.874 3.89 3.58-.003 1.895-1.474 3.028-3.938 3.028z"/>
        <path d="M0 54.46C0 67.803 13.911 75 27 75s27-7.198 27-20.54c0-15.16-15.024-28.888-19.39-32.558 1.035-.875 2.037-1.718 2.963-2.495 6.776-5.684 10.509-8.815 10.692-11.783.063-1.046-.314-2.017-1.124-2.886-2.297-2.463-4.896-1.268-6.985-.308-1.456.67-2.834 1.302-4.163 1.003-1.462-.33-2.322-1.277-3.32-2.375C31.37 1.625 29.893 0 27 0c-2.893 0-4.37 1.625-5.673 3.058-.998 1.097-1.859 2.045-3.32 2.375-1.331.299-2.709-.333-4.165-1.003-2.087-.96-4.686-2.157-6.984.308-.81.869-1.188 1.84-1.124 2.886.182 2.968 3.915 6.099 10.691 11.783.927.778 1.929 1.62 2.964 2.495C15.024 25.57 0 39.3 0 54.46zm17.987-36.906C12.35 12.825 8.274 9.408 8.156 7.476c-.016-.253.025-.604.478-1.091 1.006-1.08 1.95-.79 4.194.242 1.678.771 3.58 1.647 5.715 1.165 2.208-.499 3.468-1.885 4.58-3.108C24.273 3.42 25.183 2.42 27 2.42c1.818 0 2.727 1 3.877 2.264 1.112 1.224 2.373 2.61 4.58 3.108 2.134.483 4.036-.394 5.715-1.164 2.246-1.033 3.188-1.32 4.194-.242.454.486.494.838.478 1.09-.118 1.932-4.193 5.35-9.831 10.08a708.42 708.42 0 0 0-3.742 3.154H21.73a781.611 781.611 0 0 0-3.744-3.155zm3.725 5.574h10.576c2.531 2.066 19.287 16.308 19.287 31.333 0 13.2-15.074 18.12-24.575 18.12S2.425 67.66 2.425 54.46c0-15.025 16.755-29.268 19.287-31.333z"/>
    </g>
</svg>
