<svg xmlns="http://www.w3.org/2000/svg" width="388" height="331" viewBox="0 0 388 331">
    <g fill="none" fill-rule="evenodd">
        <g transform="translate(240 119)">
            <path stroke="#616060" stroke-width="3.7" d="M133 12v67h-13V24H13V12h120z"/>
            <path stroke="#616060" stroke-width="3.7" d="M146 0v67h-13V12H26V0h120z"/>
            <path stroke="#616060" stroke-width="3.7" d="M0 24h120v67H0z"/>
            <path fill="#5BD3CB" fill-rule="nonzero" d="M59.078 64.956c-2.905 0-5.878-1.562-5.908-1.577L52 65.722c.136.073 3.247 1.712 6.61 1.857V71h2.729v-3.677c3.092-.79 4.505-3.212 4.505-5.62 0-3.02-1.954-5.103-5.973-6.368-4.166-1.312-4.166-3.09-4.166-3.848 0-2.035 1.576-3.252 4.215-3.252 2.906 0 5.878 1.563 5.91 1.58L67 47.471c-.125-.067-2.683-1.417-5.66-1.782V42h-2.728v3.691c-3.752.503-5.456 3.157-5.456 5.797 0 3.021 1.954 5.105 5.974 6.37 4.167 1.312 4.167 3.088 4.167 3.847-.003 2.034-1.58 3.251-4.22 3.251z"/>
            <circle cx="60" cy="57" r="24" stroke="#616060" stroke-width="3.7"/>
        </g>
        <g stroke="#64605E" stroke-width="3.7">
            <path d="M139.513 153.006H15.487C8.038 153.006 2 146.967 2 139.518V15.493C2 8.044 8.038 2.006 15.487 2.006h124.026c7.449 0 13.487 6.038 13.487 13.487v124.025c0 7.449-6.038 13.488-13.487 13.488z"/>
            <path d="M50.195 118.006l-3.195-40h15l-3.195 40zM104.805 118.006l3.195-40H93l3.195 40zM110.656 78.006H43.344c-2.951 0-5.344-2.369-5.344-5.29v-18.42c0-2.922 2.393-5.29 5.344-5.29h67.312c2.951 0 5.344 2.368 5.344 5.29v18.42c0 2.921-2.393 5.29-5.344 5.29z"/>
            <path d="M110.656 78.006H43.344c-2.951 0-5.344-2.369-5.344-5.29v-18.42c0-2.922 2.393-5.29 5.344-5.29h67.312c2.951 0 5.344 2.368 5.344 5.29v18.42c0 2.921-2.393 5.29-5.344 5.29z"/>
            <path d="M45 72.006h64v-16H45zM139.513 329.006H15.487C8.038 329.006 2 322.967 2 315.519V191.493c0-7.448 6.038-13.487 13.487-13.487h124.026c7.449 0 13.487 6.039 13.487 13.487V315.52c0 7.448-6.038 13.487-13.487 13.487z"/>
            <path d="M86 290.006h8v-27h-8zM95 290.006h8v-34h-8zM104 290.006h8v-34h-8zM72.275 289.006h-11.55c-2.057 0-3.725-1.69-3.725-3.774V259.78c0-2.085 1.668-3.774 3.725-3.774h11.55c2.057 0 3.725 1.69 3.725 3.774v25.452c0 2.084-1.668 3.774-3.725 3.774z"/>
            <path d="M57 279.006h19v-9H57zM72 224.506a5.5 5.5 0 1 1-11 0 5.5 5.5 0 0 1 11 0zM55 236.506a5.5 5.5 0 1 1-11 0 5.5 5.5 0 0 1 11 0zM67 230.006v26"/>
            <path d="M54 238.006s6.311 1.12 7.51 4.729c1.198 3.608 4.49 12.27 4.49 12.27"/>
        </g>
        <g stroke="#616060" stroke-width="3.7">
            <g stroke-linecap="round">
                <path d="M224.607 165.893L214.5 176M224.607 166.093L214.5 155.986"/>
            </g>
            <path d="M169.5 166h54"/>
        </g>
    </g>
</svg>
