<svg xmlns="http://www.w3.org/2000/svg" width="45" height="45" viewBox="0 0 45 45">
    <g fill="none" fill-rule="evenodd">
        <path d="M0 0h45v45H0z"/>
        <path fill="#5BD3CB" fill-rule="nonzero" d="M16.924 11c-2.456 0-4.464.707-5.842 2.092C9.704 14.477 9 16.497 9 18.962c0 1.79.877 3.574 2.128 5.28 1.25 1.708 2.896 3.338 4.53 4.765a58.671 58.671 0 0 0 6.53 4.903c.19.12.433.12.624 0 0 0 3.26-2.049 6.53-4.903 1.634-1.427 3.28-3.057 4.53-4.764 1.25-1.707 2.128-3.491 2.128-5.28 0-2.466-.704-4.486-2.082-5.871C32.54 11.707 30.532 11 28.076 11c-2.75 0-4.63 1.63-5.576 2.663C21.553 12.63 19.674 11 16.924 11zm.08 1.353c2.613 0 4.44 1.95 5.044 2.699a.577.577 0 0 0 .904 0c.603-.75 2.43-2.7 5.044-2.7 2.204 0 3.843.612 4.945 1.724 1.102 1.112 1.709 2.768 1.709 4.987 0 1.373-.726 2.96-1.88 4.54-1.154 1.581-2.715 3.146-4.285 4.522a52.401 52.401 0 0 1-5.985 4.522 52.401 52.401 0 0 1-5.985-4.522c-1.57-1.376-3.13-2.94-4.285-4.522-1.154-1.58-1.88-3.167-1.88-4.54 0-2.219.607-3.875 1.709-4.987s2.741-1.723 4.945-1.723z"/>
    </g>
</svg>
