<svg xmlns="http://www.w3.org/2000/svg" xmlns:xlink="http://www.w3.org/1999/xlink" width="99" height="81" viewBox="0 0 99 81">
    <defs>
        <path id="a" d="M0 .307H98.14v80.449H0z"/>
    </defs>
    <g fill="none" fill-rule="evenodd">
        <g>
            <mask id="b" fill="#fff">
                <use xlink:href="#a"/>
            </mask>
            <path fill="#5BD3CB" d="M93.777 65.857h-3.816c-1.391-6.308-7.67-10.302-14.023-8.921-4.492.977-8 4.46-8.984 8.92h-3.708v-31.07h13.74l5.451 12.883h11.34v18.188zM78.512 76.033c-4.155.06-7.572-3.236-7.631-7.36-.061-4.126 3.258-7.52 7.413-7.579 4.154-.06 7.572 3.236 7.631 7.361l.001.108c0 4.084-3.302 7.41-7.414 7.47zM54.524 65.857H35.442c-1.39-6.308-7.67-10.302-14.022-8.921-4.492.977-8.001 4.46-8.984 8.92H8.729V40.092a21.69 21.69 0 0 0 13.52 4.655c12.224 0 22.135-9.84 22.135-21.978v-.974h14.501v44.063h-4.361zm-30.53 10.176c-4.155.06-7.572-3.236-7.632-7.36-.06-4.126 3.259-7.52 7.414-7.579 4.155-.06 7.571 3.236 7.632 7.361v.108c0 4.084-3.302 7.41-7.415 7.47zM22.248 5.014c9.876 0 17.882 7.949 17.882 17.754 0 9.806-8.006 17.755-17.882 17.755-9.876 0-17.882-7.949-17.882-17.755 0-9.805 8.006-17.754 17.882-17.754zm75.89 38.324H85.38L79.93 30.455H63.246V17.464H43.73C41.045 5.622 29.202-1.817 17.275.847 7 3.143-.225 12.312.006 22.768a21.336 21.336 0 0 0 4.361 12.884v34.535h7.85c.625 6.427 6.38 11.135 12.854 10.514 5.608-.538 10.048-4.946 10.59-10.514h31.075c.625 6.427 6.38 11.135 12.853 10.514 5.61-.538 10.048-4.946 10.59-10.514h7.96V43.338z" mask="url(#b)"/>
        </g>
        <path fill="#5BD3CB" d="M33.34 21.44h-8.891V11.113h-4.445v14.818H33.34z"/>
    </g>
</svg>
