<svg xmlns="http://www.w3.org/2000/svg" xmlns:xlink="http://www.w3.org/1999/xlink" width="84" height="69" viewBox="0 0 84 69">
    <defs>
        <path id="a" d="M0 .261h83.27v68.531H0z"/>
    </defs>
    <g fill="none" fill-rule="evenodd">
        <g>
            <mask id="b" fill="#fff">
                <use xlink:href="#a"/>
            </mask>
            <path fill="#5BD3CB" d="M79.569 56.1H76.33c-1.18-5.373-6.508-8.776-11.899-7.599a9.977 9.977 0 0 0-7.622 7.6h-3.146V29.63H65.32l4.626 10.976h9.622V56.1zM66.616 64.77c-3.525.05-6.424-2.757-6.475-6.27-.051-3.515 2.765-6.405 6.29-6.456 3.525-.05 6.425 2.757 6.475 6.27l.001.092c0 3.48-2.802 6.313-6.29 6.364zM46.263 56.1h-16.19c-1.181-5.373-6.508-8.776-11.898-7.599a9.978 9.978 0 0 0-7.624 7.6H7.406V34.15a18.357 18.357 0 0 0 11.472 3.966c10.372 0 18.78-8.382 18.78-18.722v-.83h12.305V56.1h-3.7zM20.358 64.77c-3.525.05-6.425-2.757-6.475-6.27-.052-3.515 2.765-6.405 6.29-6.456 3.526-.05 6.424 2.757 6.476 6.27v.092c0 3.48-2.802 6.313-6.291 6.364zm-1.48-60.498c8.38 0 15.173 6.771 15.173 15.124 0 8.353-6.793 15.124-15.173 15.124-8.38 0-15.172-6.77-15.172-15.124 0-8.353 6.792-15.124 15.172-15.124zm64.391 32.647H72.445l-4.626-10.975H53.664V14.877h-16.56C34.825 4.789 24.777-1.548 14.657.72 5.938 2.677-.191 10.488.005 19.395a18.222 18.222 0 0 0 3.7 10.975V59.79h6.661c.53 5.475 5.413 9.485 10.906 8.956 4.759-.458 8.526-4.213 8.986-8.956h26.366c.53 5.475 5.413 9.485 10.906 8.956 4.76-.458 8.526-4.213 8.985-8.956h6.754V36.918z" mask="url(#b)"/>
        </g>
        <path fill="#5BD3CB" d="M28 18.06h-7.333V9H17v13h11z"/>
    </g>
</svg>
