<svg xmlns="http://www.w3.org/2000/svg" width="121" height="77" viewBox="0 0 121 77"><g fill="#5BD3CB" fill-rule="evenodd"><path fill-rule="nonzero" d="M114.02 73.696h-5.907V39.06H121L115.1 22H97.907L92 39.06h12.888v34.636H98.98c-1.609 0-2.145 3.304-2.145 3.304h19.339s-.537-3.304-2.154-3.304zM41 38.805C41 37.81 40.207 37 39.233 37H12.74C10.126 37 8 39.164 8 41.825V57h33V38.805zM8 59h33v4H8zm35 0h33v4H43zM13.83 77h2.338L17 72h-4zM76 41.825C76 39.165 73.874 37 71.261 37h-26.49c-.977 0-1.771.81-1.771 1.805V57h33V41.825zM2.996 46C1.344 46 0 47.37 0 49.052v17.896C0 68.627 1.338 69.993 2.985 70H3c.053 0 .106-.005.159-.008.05-.003.1-.003.15-.008.042-.005.083-.014.126-.02.057-.009.116-.016.172-.027l.078-.02c.071-.018.142-.035.21-.057l.021-.007A3.059 3.059 0 006 66.94V49.052C6 47.37 4.652 46 2.996 46zM67.83 77h2.34l.83-5h-4zm13.172-31C79.347 46 78 47.37 78 49.052v17.889c0 1.658 1.308 3.013 2.93 3.055.024 0 .047.004.072.004C82.655 70 84 68.63 84 66.948V49.052C84 47.37 82.655 46 81.002 46zm-5.017 21.916a4.163 4.163 0 01-.053-.376l-.003-.034a4.303 4.303 0 01-.018-.376V65H8.09v2.13c0 .126-.007.25-.018.374l-.003.038c-.012.124-.03.247-.052.369l-.005.023A4.431 4.431 0 017 70h70a4.432 4.432 0 01-1.013-2.074l-.002-.01z"/><g fill-rule="nonzero"><path d="M59.63 5H25.37a.368.368 0 00-.37.365v19.27c0 .201.166.365.37.365h34.26c.204 0 .37-.164.37-.365V5.365A.368.368 0 0059.63 5zm-.371.73v18.54H25.74V5.73h33.52z"/><path d="M21.37 29h42.26a.37.37 0 00.37-.368V.368A.37.37 0 0063.63 0H21.37a.37.37 0 00-.37.368v28.264a.37.37 0 00.37.368zm.369-.737V.737H63.26v27.526H21.74z"/></g><path d="M27 7h31v16H27z"/></g></svg>