<svg xmlns="http://www.w3.org/2000/svg" width="66" height="67" viewBox="0 0 66 67"><g fill="none" fill-rule="evenodd"><path stroke="#5BD3CB" stroke-width="4" d="M32.066 2.285L2.732 22.068A1.658 1.658 0 002 23.443V63.34c0 .916.746 1.66 1.666 1.66h58.668c.92 0 1.666-.744 1.666-1.66V23.443a1.66 1.66 0 00-.732-1.375L33.934 2.285a1.673 1.673 0 00-1.868 0z"/><path stroke="#5BD3CB" stroke-width="4" d="M14 65h38V33H14z"/><path fill="#5BD3CB" d="M30.294 65H19.706a.706.706 0 01-.706-.706V53.706c0-.39.316-.706.706-.706h10.588c.39 0 .706.316.706.706v10.588c0 .39-.316.706-.706.706m16 0H35.706a.705.705 0 01-.706-.706V53.706c0-.39.316-.706.706-.706h10.588c.39 0 .706.316.706.706v10.588c0 .39-.316.706-.706.706m-8-15H27.706a.706.706 0 01-.706-.706V38.706c0-.39.316-.706.706-.706h10.588c.39 0 .706.316.706.706v10.588c0 .39-.316.706-.706.706"/><path stroke="#5BD3CB" stroke-width="4" d="M29 15.5h8m-8 7h8"/></g></svg>