<svg xmlns="http://www.w3.org/2000/svg" width="86" height="67" viewBox="0 0 86 67"><g fill="#5BD3CB"><path d="M81.461 0H4.54A4.537 4.537 0 000 4.538v49.325A4.537 4.537 0 004.539 58.4h29.503c-.12.239-.24.358-.24.358-.477.598-.596.717-1.194 1.195-.716.597-1.672 1.433-3.583 3.344-.836.836-.956 1.672-.836 2.15.239.955 1.075 1.433 1.194 1.433l.24.119h26.516c.597 0 1.433-.358 1.672-1.075.239-.597.239-1.433-.836-2.627-2.03-2.03-2.986-2.867-3.583-3.344-.598-.478-.836-.717-1.195-1.314 0 0-.12-.12-.239-.358h29.503A4.537 4.537 0 0086 53.743V4.538A4.537 4.537 0 0081.461 0zM50.286 60.193c.597.836.956 1.074 1.553 1.672.597.477 1.433 1.313 3.105 2.866H31.056c1.672-1.672 2.508-2.389 3.105-2.866.597-.478.956-.836 1.553-1.672.12-.12.358-.478.955-1.792h12.662c.597 1.314.836 1.672.955 1.792zm33.325-6.33a2.14 2.14 0 01-2.15 2.15H4.54a2.14 2.14 0 01-2.15-2.15V4.538a2.14 2.14 0 012.15-2.15h76.803a2.14 2.14 0 012.15 2.15v49.325h.12z"/><path d="M79.809 5H6.19C5.476 5 5 5.473 5 6.183v41.634C5 48.527 5.476 49 6.191 49H79.81c.715 0 1.191-.473 1.191-1.183V6.183C81 5.473 80.524 5 79.809 5zm-1.191 41.634H7.382V7.366h71.236v39.268z"/><circle cx="43" cy="52" r="2"/><path d="M55.133 30c.237 0 .593-.118.83-.353L72.58 15.064c.475-.47.594-1.176.119-1.647-.475-.47-1.187-.588-1.662-.118L54.421 27.883c-.475.47-.594 1.176-.119 1.647.238.352.475.47.831.47zm15.822-8.66l-9.517 7.728c-.494.455-.618 1.137-.123 1.591.247.227.618.341.865.341s.618-.114.865-.34l9.517-7.728c.494-.455.618-1.137.123-1.591a1.268 1.268 0 00-1.73 0z"/></g></svg>