<svg xmlns="http://www.w3.org/2000/svg" width="72" height="74" viewBox="0 0 72 74"><path fill="#5BD3CB" d="M72 14.223l-.078-.39-.078-.155-.233-.39-.233-.234-.156-.078-.388-.156L35.689.117c-.389-.156-.778-.156-1.089 0L1.09 12.665l-.467.233-.311.312s-.233.468-.233.546c0 .078-.078.233-.078.39v44.111c0 .701.389 1.247 1.01 1.48l34.523 14.185.39.078.466-.078 34.6-14.184c.622-.234 1.011-.858 1.011-1.481V14.223s-.078 0 0 0c-.078 0 0 0 0 0zM50 9.285L21.695 21 18 19.564 46.305 8 50 9.285zM16.085 22l.678.232L21 23.854 20.661 40 16 38.3l.085-16.3zm21.146 3.385L35.615 26l-.461-.154L26 22.076 54 10l11 3.923-27.77 11.462zM35.19 4L42 6.385 14.14 18 6 14.692 35.191 4zM3 17l9.842 4.023-.077 18.802c0 .619.387 1.238 1.007 1.47l7.518 3.172c.232.078.388.155.62.155.31 0 .62-.077.852-.232.466-.31.698-.774.776-1.316l.387-17.408L34 29.844V70L3 57.234V17zm65 40.234L37 70V29.766L68 17v40.234z"/></svg>