<svg xmlns="http://www.w3.org/2000/svg" width="72" height="72" viewBox="0 0 72 72">
    <g fill="#5BD3CB" fill-rule="nonzero">
        <path d="M51.64 52L61 11.544 58.25 11 49 51.616c.912.024 1.795.157 2.64.384zM5 0L0 5h5z"/>
        <path d="M22 0H7.333v7.5H0V30h22V0zm-4.889 27.5H2.444V11.25h6.112v2.5H4.889V25h9.778v-5h2.444v7.5zm-7.333-5.733l-3.309-3.383 1.728-1.768 1.58 1.617 7.692-7.867 1.728 1.768-9.42 9.633zM6.67 52.204l-.63 2.53a1.364 1.364 0 0 0 1.072 1.675L37.162 62A11.187 11.187 0 0 1 39 57.157L8.515 51.03c-.815-.166-1.643.364-1.846 1.174z"/>
        <path d="M10 47.917L40.888 54a11.18 11.18 0 0 1 5.005-2.455L51 29.194l-8.276-1.63-2.345 8.079-14.831-2.92 2.345-8.08L24.63 24v7.786H13.56L10 47.916z"/>
        <path d="M34 25.802L30.532 25 29 31.2l3.466.8zM70.425 7.24L58.873 5 58 8.759l11.373 2.205c.124.025.254.036.383.036h.286C71.122 11 72 10.147 72 9.102c.001-.902-.662-1.684-1.575-1.862zM54 52.936A11.781 11.781 0 0 1 56.935 55L59 46.606 55.716 46 54 52.936z"/>
        <circle cx="48.5" cy="63.5" r="3.5"/>
        <path d="M58 32.416l3.5.584.5-1.836L59.484 27zM48.5 55c-4.686 0-8.5 3.814-8.5 8.5s3.814 8.5 8.5 8.5 8.5-3.814 8.5-8.5-3.814-8.5-8.5-8.5zm0 14.571a6.078 6.078 0 0 1-6.071-6.071 6.078 6.078 0 0 1 6.071-6.071 6.078 6.078 0 0 1 6.071 6.071 6.078 6.078 0 0 1-6.071 6.071zM56 44.352l3.019.648L61 35.645 57.99 35zM40 26.802L36.532 26 35 32.2l3.468.8z"/>
    </g>
</svg>
