<svg xmlns="http://www.w3.org/2000/svg" width="59" height="81" viewBox="0 0 59 81">
    <g fill="none" fill-rule="nonzero">
        <path fill="#5BD3CB" d="M29.986 61.456c-2.905 0-5.879-1.562-5.908-1.577l-1.17 2.343c.136.073 3.247 1.712 6.61 1.857V67.5h2.728v-3.677c3.092-.79 4.506-3.212 4.506-5.62 0-3.02-1.955-5.103-5.973-6.368-4.166-1.312-4.166-3.09-4.166-3.848 0-2.035 1.575-3.252 4.215-3.252 2.906 0 5.878 1.563 5.909 1.58l1.17-2.343c-.124-.067-2.682-1.417-5.66-1.782V38.5H29.52v3.691c-3.751.503-5.455 3.157-5.455 5.797 0 3.021 1.954 5.105 5.973 6.37 4.167 1.312 4.167 3.088 4.167 3.847-.002 2.034-1.579 3.251-4.218 3.251z"/>
        <path fill="#616060" d="M.908 58.592c0 14.23 14.941 21.908 29 21.908 14.058 0 29-7.678 29-21.908 0-16.171-16.137-30.816-20.826-34.73a1156.63 1156.63 0 0 1 3.182-2.662c7.278-6.062 11.287-9.402 11.484-12.568.068-1.116-.338-2.152-1.207-3.078-2.467-2.627-5.26-1.353-7.503-.329-1.564.715-3.044 1.389-4.472 1.07-1.57-.352-2.494-1.362-3.565-2.533C34.6 2.233 33.014.5 29.908.5c-3.107 0-4.694 1.733-6.094 3.262-1.071 1.17-1.996 2.18-3.565 2.533-1.43.319-2.91-.355-4.474-1.07-2.242-1.024-5.034-2.3-7.502.33-.87.925-1.275 1.961-1.206 3.077.195 3.167 4.205 6.505 11.482 12.568.996.83 2.072 1.728 3.184 2.662C17.044 27.776.908 42.42.908 58.592zm19.32-39.368c-6.057-5.044-10.433-8.69-10.56-10.75-.018-.27.026-.644.513-1.163 1.08-1.151 2.094-.843 4.504.257 1.803.824 3.846 1.758 6.14 1.243 2.37-.531 3.724-2.01 4.918-3.315 1.236-1.349 2.212-2.416 4.165-2.416 1.953 0 2.929 1.066 4.164 2.416 1.194 1.304 2.55 2.783 4.918 3.314 2.293.516 4.336-.42 6.14-1.242 2.411-1.1 3.423-1.408 4.504-.257.488.518.53.894.514 1.163-.128 2.06-4.504 5.705-10.56 10.75a759.628 759.628 0 0 0-4.02 3.366h-11.32a838.114 838.114 0 0 0-4.02-3.366zm4 5.946h11.36c2.718 2.204 20.715 17.395 20.715 33.422 0 14.08-16.19 19.328-26.395 19.328-10.206 0-26.396-5.248-26.396-19.328 0-16.027 17.996-31.22 20.716-33.422z"/>
    </g>
</svg>
