<svg xmlns="http://www.w3.org/2000/svg" width="24" height="24" viewBox="0 0 24 24">
    <g fill="none" fill-rule="evenodd">
        <path fill="#007A8D" d="M10.494 21a10.5 10.5 0 1 1 7.425-3.07A10.467 10.467 0 0 1 10.494 21zm0-18.89a8.4 8.4 0 1 0 .007 16.798 8.4 8.4 0 0 0-.007-16.799z"/>
        <path fill="#5BD3CB" d="M10.494 21a10.5 10.5 0 1 1 7.425-3.07A10.467 10.467 0 0 1 10.494 21zm0-18.89a8.4 8.4 0 1 0 .007 16.798 8.4 8.4 0 0 0-.007-16.799z"/>
        <path fill="#5BD3CB" d="M16 17.6l1.6-1.6 6.4 6.4-1.6 1.6z"/>
    </g>
</svg>
