<svg xmlns="http://www.w3.org/2000/svg" xmlns:xlink="http://www.w3.org/1999/xlink" width="24" height="24" viewBox="0 0 24 24">
    <defs>
        <path id="a" d="M5.996 16c-1.1 0-1.99.9-1.99 2s.89 2 1.99 2 2-.9 2-2-.9-2-2-2zm-6-15c0 .55.45 1 1 1h1l3.6 7.59-1.35 2.44c-.73 1.34.23 2.97 1.75 2.97h11c.55 0 1-.45 1-1s-.45-1-1-1h-11l1.1-2h7.45c.75 0 1.41-.41 1.75-1.03l3.58-6.49a.996.996 0 0 0-.87-1.48h-14.8L3.536.57a.993.993 0 0 0-.9-.57H.996c-.55 0-1 .45-1 1zm16 15c-1.1 0-1.99.9-1.99 2s.89 2 1.99 2 2-.9 2-2-.9-2-2-2z"/>
    </defs>
    <g fill="none" fill-rule="evenodd" transform="translate(2 2)">
        <mask id="b" fill="#fff">
            <use xlink:href="#a"/>
        </mask>
        <g fill="#000" fill-opacity=".54" mask="url(#b)">
            <path d="M-2-2h24v24H-2z"/>
        </g>
    </g>
</svg>
