<svg xmlns="http://www.w3.org/2000/svg" width="127" height="66" viewBox="0 0 127 66">
    <g fill="none" fill-rule="evenodd">
        <path fill="#FFF" d="M62.8 35.96H16.888a6.648 6.648 0 0 1-6.648-6.647V8.047A6.648 6.648 0 0 1 16.888 1.4h39.264A6.648 6.648 0 0 1 62.8 8.047V35.96z"/>
        <path stroke="#64605E" stroke-width="1.998" d="M62.8 35.96H16.888a6.648 6.648 0 0 1-6.648-6.647V8.047A6.648 6.648 0 0 1 16.888 1.4h39.264A6.648 6.648 0 0 1 62.8 8.047V35.96z"/>
        <path fill="#FFF" d="M108.947 35.96H63.52V8.532A7.133 7.133 0 0 1 70.653 1.4h38.294a7.133 7.133 0 0 1 7.133 7.132v20.296a7.133 7.133 0 0 1-7.133 7.132"/>
        <path stroke="#64605E" stroke-width="1.998" d="M108.947 35.96H63.52V8.532A7.133 7.133 0 0 1 70.653 1.4h38.294a7.133 7.133 0 0 1 7.133 7.132v20.296a7.133 7.133 0 0 1-7.133 7.132z"/>
        <path fill="#FFF" d="M121.024 48.2H6.016c-2.439 0-4.416-1.92-4.416-4.291v-3.658c0-2.37 1.977-4.291 4.416-4.291h115.008c2.439 0 4.416 1.921 4.416 4.291v3.658c0 2.37-1.977 4.291-4.416 4.291"/>
        <path stroke="#64605E" stroke-width="1.998" d="M121.024 48.2H6.016c-2.439 0-4.416-1.92-4.416-4.291v-3.658c0-2.37 1.977-4.291 4.416-4.291h115.008c2.439 0 4.416 1.921 4.416 4.291v3.658c0 2.37-1.977 4.291-4.416 4.291z"/>
        <path fill="#FFF" d="M22.646 64.04h-5.372L15.28 48.2h9.36z"/>
        <path stroke="#64605E" stroke-width="1.998" d="M22.646 64.04h-5.372L15.28 48.2h9.36z"/>
        <path fill="#FFF" d="M109.046 64.04h-5.373L101.68 48.2h9.36z"/>
        <path stroke="#64605E" stroke-width="1.998" d="M109.046 64.04h-5.373L101.68 48.2h9.36z"/>
        <path fill="#FFF" d="M96.165 39.35l-13.472-5.352c-1.533-.61-2.288-2.36-1.686-3.911l6.481-16.692a2.972 2.972 0 0 1 3.867-1.705l13.472 5.352c1.533.61 2.288 2.36 1.686 3.911l-6.481 16.692a2.972 2.972 0 0 1-3.867 1.705"/>
        <path stroke="#64605E" stroke-width="1.998" d="M96.165 39.35l-13.472-5.352c-1.533-.61-2.288-2.36-1.686-3.911l6.481-16.692a2.972 2.972 0 0 1 3.867-1.705l13.472 5.352c1.533.61 2.288 2.36 1.686 3.911l-6.481 16.692a2.972 2.972 0 0 1-3.867 1.705z"/>
        <path fill="#FFF" d="M109.845 39.35l-13.472-5.352c-1.533-.61-2.288-2.36-1.686-3.911l6.481-16.692c.603-1.551 2.334-2.314 3.867-1.705l13.472 5.352c1.533.609 2.288 2.36 1.686 3.911l-6.481 16.692c-.603 1.55-2.334 2.315-3.867 1.705"/>
        <path stroke="#64605E" stroke-width="1.998" d="M109.845 39.35l-13.472-5.352c-1.533-.61-2.288-2.36-1.686-3.911l6.481-16.692c.603-1.551 2.334-2.314 3.867-1.705l13.472 5.352c1.533.609 2.288 2.36 1.686 3.911l-6.481 16.692c-.603 1.55-2.334 2.315-3.867 1.705z"/>
        <path fill="#FFF" d="M33.157 35.96H8.923c-1.658 0-3.003-1.331-3.003-2.974v-6.293c0-1.642 1.345-2.973 3.003-2.973h24.234c1.658 0 3.003 1.331 3.003 2.973v6.293c0 1.643-1.345 2.974-3.003 2.974"/>
        <path stroke="#5BD3CB" stroke-width="1.994" d="M33.157 35.96H8.923c-1.658 0-3.003-1.331-3.003-2.974v-6.293c0-1.642 1.345-2.973 3.003-2.973h24.234c1.658 0 3.003 1.331 3.003 2.973v6.293c0 1.643-1.345 2.974-3.003 2.974zM11.16 23.24v12.8M19.8 23.24v12.8M15.308 23.24v12.8"/>
    </g>
</svg>
