<svg xmlns="http://www.w3.org/2000/svg" width="411" height="263" viewBox="0 0 411 263">
    <g fill="none" fill-rule="evenodd">
        <path stroke="#616060" stroke-width="3.7" d="M151 67.036c0 10.77-8.73 19.5-19.5 19.5s-19.5-8.73-19.5-19.5 8.73-19.5 19.5-19.5 19.5 8.73 19.5 19.5zM271 67.036c0 10.77-8.73 19.5-19.5 19.5s-19.5-8.73-19.5-19.5 8.73-19.5 19.5-19.5 19.5 8.73 19.5 19.5z"/>
        <path stroke="#64605E" stroke-width="3.7" d="M198 3.536v82.695c18.466 4.091 29.107 19.607 29.547 36.515.118 4.51-.44 9.209-1.826 12.79H306v-132H198z"/>
        <path stroke="#5BD3CB" stroke-width="3.7" d="M269 260.536c-12-45.567-42.841-78-79-78-36.16 0-67 32.433-79 78"/>
        <path stroke="#616060" stroke-width="3.7" d="M10 261.036h370"/>
        <path stroke="#64605E" stroke-width="3.7" d="M175 89.557v-73.02H90v105h63.494c.402-14.025 9.495-26.086 21.506-31.98zM209 16.536V90.89c10.666 6.267 18.27 20.328 18.27 30.646H294v-105h-85z"/>
        <path stroke="#64605E" stroke-width="3.7" d="M153.377 121.234c0-17.662 14.39-33.59 33.623-35.814V2.536H79v132h76.207c-1.465-4-1.83-8.79-1.83-13.302z"/>
        <path stroke="#5BD3CB" stroke-width="4" d="M227 122.536c0 20.435-16.565 37-37 37-20.434 0-37-16.565-37-37 0-20.434 16.566-37 37-37 20.435 0 37 16.566 37 37z"/>
        <path stroke="#64605E" stroke-width="3.7" d="M81 165.07l-26.303 10.466-8.683-21.654c-2.901-7.236.635-15.445 7.898-18.335 7.264-2.89 15.504.632 18.405 7.868L81 165.07zM70.193 259.536H5.807c-2.103 0-3.807-1.626-3.807-3.633v-6.733c0-2.006 1.704-3.634 3.807-3.634h64.386c2.103 0 3.807 1.628 3.807 3.634v6.733c0 2.007-1.704 3.633-3.807 3.633zM13 183.341a5.999 5.999 0 1 1 6 10.39 5.999 5.999 0 0 1-6-10.39zM19 183.536l28-28M16.5 196.536v48M285 260.536h15v-52h-15zM315 259.536h15v-73h-15zM300 259.536h15v-64h-15zM377.354 260.536h-23.708c-4.223 0-7.646-3.38-7.646-7.548v-50.903c0-4.17 3.423-7.549 7.646-7.549h23.708c4.223 0 7.646 3.38 7.646 7.549v50.903c0 4.169-3.423 7.548-7.646 7.548z"/>
        <path stroke="#64605E" stroke-width="3.7" d="M346 241.536h39v-17h-39zM361.5 142.536v53M388 158.536s-12.623 2.308-15.019 9.737c-2.397 7.429-8.981 25.263-8.981 25.263"/>
        <path stroke="#5BD3CB" stroke-width="3.7" d="M388 156.036c0 5.8 4.701 10.5 10.5 10.5 5.8 0 10.5-4.7 10.5-10.5 0-5.799-4.7-10.5-10.5-10.5-5.799 0-10.5 4.701-10.5 10.5zM351 132.036c0 5.8 4.701 10.5 10.5 10.5s10.5-4.7 10.5-10.5c0-5.799-4.701-10.5-10.5-10.5s-10.5 4.701-10.5 10.5z"/>
    </g>
</svg>
