<svg xmlns="http://www.w3.org/2000/svg" width="347" height="296" viewBox="0 0 347 296">
    <g fill="none" fill-rule="evenodd">
        <path stroke="#64605E" stroke-width="3.7" d="M2 15.802h341v-13H2zM2 151.802h341v-15H2zM2.5 15.802v276M132.5 16.802v276M342.5 16.802v276M43.621 292.802l-3.621-43h17l-3.621 43M92.622 292.802l-3.622-43h17l-3.62 43M109.244 249.802H36.756c-3.178 0-5.756-2.613-5.756-5.838V223.64c0-3.224 2.578-5.838 5.756-5.838h72.488c3.178 0 5.756 2.614 5.756 5.838v20.324c0 3.225-2.578 5.838-5.756 5.838z"/>
        <path stroke="#5BD3CB" stroke-width="3.7" d="M39 242.802h69v-18H39z"/>
        <path stroke="#64605E" stroke-linecap="round" stroke-width="3.7" d="M82.214 136.802H57.786c-4.301 0-7.786-2.831-7.786-6.325V57.802h40v72.675c0 3.494-3.485 6.325-7.786 6.325zM50 66.302h40"/>
        <path stroke="#64605E" stroke-width="3.7" d="M307.067 118.802H174.933c-6.59 0-11.933-5.34-11.933-11.93v-49.14c0-6.59 5.343-11.93 11.933-11.93h132.134c6.59 0 11.933 5.34 11.933 11.93v49.14c0 6.59-5.343 11.93-11.933 11.93z"/>
        <path stroke="#64605E" stroke-width="3.7" d="M175 136.802h10v-18h-10zM298 136.802h10v-18h-10zM237 136.802h10v-18h-10zM176 107.802h61v-50h-61zM246 107.802h61v-50h-61zM176 83.302h61M246 83.302h61"/>
        <path fill="#5BD3CB" d="M207.735 95.184a2.5 2.5 0 1 1-4.47 2.237 2.5 2.5 0 0 1 4.47-2.237M207.735 69.184a2.5 2.5 0 1 1-4.471 2.236 2.5 2.5 0 0 1 4.471-2.236M278.735 95.184a2.5 2.5 0 1 1-4.47 2.237 2.5 2.5 0 0 1 4.47-2.237M278.735 69.184a2.5 2.5 0 1 1-4.471 2.236 2.5 2.5 0 0 1 4.471-2.236"/>
        <path stroke="#5BD3CB" stroke-width="3.7" d="M212 197.302c0 14.635-11.865 26.5-26.5 26.5s-26.5-11.865-26.5-26.5 11.865-26.5 26.5-26.5 26.5 11.865 26.5 26.5z"/>
        <path stroke="#64605E" stroke-width="3.7" d="M252 291.802h55v-95h-55z"/>
        <path stroke="#64605E" stroke-width="3.7" d="M243 291.802h73v-104h-73z"/>
        <path stroke="#64605E" stroke-width="3.7" d="M252 229.802h55v-9h-55zM252 266.802h55v-9h-55zM159 260.802h53v-7h-53zM165.5 260.802v32M204.5 260.802v32"/>
        <path stroke="#616060" stroke-linecap="square" stroke-width="3.7" d="M4.45 292.802l340.1.5"/>
    </g>
</svg>
