<?xml version="1.0" encoding="utf-8"?>
<!-- Generator: Adobe Illustrator 25.2.1, SVG Export Plug-In . SVG Version: 6.00 Build 0)  -->
<svg version="1.1" id="Layer_1" xmlns="http://www.w3.org/2000/svg" xmlns:xlink="http://www.w3.org/1999/xlink" x="0px" y="0px"
	 viewBox="0 0 510 453.5" style="enable-background:new 0 0 510 453.5;" xml:space="preserve">
<style type="text/css">
	.st0{opacity:0.1;fill:none;stroke:#62D7CE;stroke-miterlimit:10;}
	.st1{fill:#FFFFFF;}
</style>
<circle class="st0" cx="255.5" cy="227" r="329.2"/>
<path class="st1" d="M416.9,276.4l1.7-1l34.5-158.3c0.7-1.6,1-3.2,1-4.9c0-5-3-9.7-7.8-11.6c-1.5-0.6-3.2-1-4.9-1h-290l-7.8-40
	c-0.7-3.8-4.3-6.4-8.2-5.9c-0.6-0.3-1.2-0.4-1.8-0.4H48.4c-4.1,0-7.5,3.3-7.5,7.5v29.6c0,4.1,3.3,7.5,7.5,7.5h57.3l48.5,249.2
	c-18,13.7-21.5,39.4-7.8,57.3c13.7,17.9,39.4,21.5,57.3,7.8c17.9-13.7,21.5-39.4,7.8-57.3c-1-1.3-2.1-2.6-3.2-3.8h147.6
	c-15.8,16.2-15.5,42.1,0.7,57.9c16.2,15.8,42.1,15.5,57.9-0.7s15.5-42.1-0.7-57.9c-3.2-3.2-7-5.8-11-7.7l4.9-18.1
	c3.4-6.1,1.3-13.8-4.8-17.2c-1.9-1.1-4.1-1.6-6.3-1.6h-205l-4.5-23l218.8,0.1C410.4,282.9,414.6,280.4,416.9,276.4z M199.6,344.4
	c-0.2-0.2-0.4-0.2-0.6-0.4l-0.2-1.3L199.6,344.4z M341.8,159l-64.1,64.1c-2.4,2.4-5.6,3.6-8.8,3.6c-3.2,0-6.3-1.2-8.8-3.6l-30-30
	c-4.8-4.8-4.8-12.7,0-17.5c4.8-4.8,12.7-4.8,17.5,0l21.3,21.3l55.3-55.3c4.8-4.8,12.7-4.8,17.5,0C346.7,146.4,346.7,154.2,341.8,159
	z"/>
</svg>
