<?xml version="1.0" encoding="utf-8"?>
<!-- Generator: Adobe Illustrator 25.2.1, SVG Export Plug-In . SVG Version: 6.00 Build 0)  -->
<svg version="1.1" id="bold" xmlns="http://www.w3.org/2000/svg" xmlns:xlink="http://www.w3.org/1999/xlink" x="0px" y="0px"
	 viewBox="0 0 512 512" style="enable-background:new 0 0 512 512;" xml:space="preserve">
<style type="text/css">
	.st0{fill:#FFFFFF;}
	.st1{opacity:0.1;fill:none;stroke:#62D7CE;stroke-miterlimit:10;}
</style>
<g>
	<path class="st0" d="M256,78c-8.6,0-15.6-7-15.6-15.6V21.6c0-8.6,7-15.6,15.6-15.6s15.6,7,15.6,15.6v40.8C271.6,71,264.6,78,256,78
		z"/>
	<path class="st0" d="M392.9,134.7c-4,0-8-1.5-11-4.6c-6.1-6.1-6.1-16,0-22.1l28.8-28.8c6.1-6.1,16-6.1,22.1,0s6.1,16,0,22.1
		L404,130.1C400.9,133.2,396.9,134.7,392.9,134.7z"/>
	<path class="st0" d="M490.4,271.6h-40.8c-8.6,0-15.6-7-15.6-15.6s7-15.6,15.6-15.6h40.8c8.6,0,15.6,7,15.6,15.6
		S499,271.6,490.4,271.6z"/>
	<path class="st0" d="M421.7,437.4c-4,0-8-1.5-11-4.6L381.9,404c-6.1-6.1-6.1-16,0-22.1s16-6.1,22.1,0l28.8,28.8
		c6.1,6.1,6.1,16,0,22.1C429.7,435.8,425.7,437.4,421.7,437.4z"/>
	<path class="st0" d="M90.3,437.4c-4,0-8-1.5-11-4.6c-6.1-6.1-6.1-16,0-22.1l28.8-28.8c6.1-6.1,16-6.1,22.1,0s6.1,16,0,22.1
		l-28.8,28.8C98.3,435.8,94.3,437.4,90.3,437.4z"/>
	<path class="st0" d="M62.4,271.6H21.6C13,271.6,6,264.6,6,256s7-15.6,15.6-15.6h40.8c8.6,0,15.6,7,15.6,15.6S71,271.6,62.4,271.6z"
		/>
	<path class="st0" d="M119.1,134.7c-4,0-8-1.5-11-4.6l-28.8-28.8c-6.1-6.1-6.1-16,0-22.1s16-6.1,22.1,0l28.8,28.8
		c6.1,6.1,6.1,16,0,22.1C127.1,133.2,123.1,134.7,119.1,134.7z"/>
	<path class="st0" d="M318.5,443.5v26c0,20-16.5,36.5-36.5,36.5h-52c-17.5,0-36.5-13.3-36.5-42.5v-20H318.5z"/>
	<path class="st0" d="M347.9,142.7c-34.2-27.7-79.2-38.5-123.1-29.2c-55.2,11.5-100,56.5-111.5,111.7c-11.7,56.7,9.6,112.9,55,147.3
		c12.3,9.2,20.8,23.3,23.8,39.8v0.2c0.4-0.2,1-0.2,1.5-0.2h125c0.4,0,0.6,0,1,0.2v-0.2c2.9-15.8,12.3-30.4,26.7-41.7
		c35.2-27.9,55.6-69.6,55.6-114.6C401.8,211.8,382.2,170.6,347.9,142.7z M334.1,266.4c-8.5,0-15.6-7.1-15.6-15.6
		c0-31.7-25.6-57.3-57.3-57.3c-8.5,0-15.6-7.1-15.6-15.6s7.1-15.6,15.6-15.6c48.8,0,88.5,39.8,88.5,88.5
		C349.8,259.3,342.7,266.4,334.1,266.4z"/>
	<path class="st0" d="M192,412.2h1.5c-0.4,0-1,0-1.5,0.2V412.2z"/>
	<path class="st0" d="M319.5,412.2v0.2c-0.4-0.2-0.6-0.2-1-0.2H319.5z"/>
</g>
<circle class="st1" cx="256.5" cy="256" r="329.2"/>
</svg>
