<?xml version="1.0" encoding="utf-8"?>
<!-- Generator: Adobe Illustrator 25.2.1, SVG Export Plug-In . SVG Version: 6.00 Build 0)  -->
<svg version="1.1" id="Capa_1" xmlns="http://www.w3.org/2000/svg" xmlns:xlink="http://www.w3.org/1999/xlink" x="0px" y="0px"
	 viewBox="0 0 440.3 440.3" style="enable-background:new 0 0 440.3 440.3;" xml:space="preserve">
<style type="text/css">
	.st0{opacity:0.1;fill:none;stroke:#62D7CE;stroke-miterlimit:10;}
	.st1{fill:#FFFFFF;}
</style>
<circle class="st0" cx="220.5" cy="220" r="329.2"/>
<g>
	<path class="st1" d="M433.3,189.8c-0.7-0.9-1.4-1.9-2.1-2.7c-8.4-11-15.2-23.5-21.1-34.4c-5.9-10.7-11.4-20.9-17.4-27.9
		c-13.5-15.7-26.2-23.3-38.8-23.3h-62.3c-0.1,0-6,0.1-13.2,0.1h-10.2c-7.3,0-13.6,4.9-15.4,12l-0.1,0.3v137.5v0.3
		c0,0.1,0.2,2.1-1.4,3.7c-1.7,1.9-5,2.9-9.5,2.9H-0.7c-8.5,0-15.5,6.5-15.5,14.6V323c0,8,6.9,14.6,15.5,14.6h53.3
		c2.8,31.9,29.6,57,62.2,57s59.5-25.1,62.2-57h89.2c2.8,31.9,29.6,57,62.2,57s59.5-25.1,62.2-57h40.5c15.4,0,27.9-12.5,27.9-27.9
		v-47.8C459.1,223.2,443.6,203.1,433.3,189.8z M351.8,331.9c0,12.8-10.5,23.3-23.3,23.3s-23.3-10.5-23.3-23.3s10.5-23.3,23.3-23.3
		C341.4,308.6,351.8,319,351.8,331.9z M405.4,210.6c-0.5,0.8-1.9,1.2-4,1H294.3v-87.3h46.3c12.5,0,21.3,5.4,30.5,18.7
		c6.1,8.8,22.3,36.7,23.1,38.1c0.6,1.1,1.2,2.2,1.8,3.4C400.6,193.4,407.7,206.8,405.4,210.6z M114.9,308.6
		c12.8,0,23.3,10.5,23.3,23.3s-10.5,23.3-23.3,23.3s-23.3-10.5-23.3-23.3C91.6,319,102,308.6,114.9,308.6z"/>
	<path class="st1" d="M16.5,236h73.4c7.4,0,13.5-6.1,13.5-13.5v-54c0-7.4-6.1-13.5-13.5-13.5H16.5C9.1,155,3,161.1,3,168.5v54
		C3,230,9.1,236,16.5,236z"/>
	<path class="st1" d="M138.5,236h73.4c7.4,0,13.5-6.1,13.5-13.5v-54c0-7.4-6.1-13.5-13.5-13.5h-73.4c-7.4,0-13.5,6.1-13.5,13.5v54
		C125,230,131,236,138.5,236z"/>
	<path class="st1" d="M16.5,134.6h73.4c7.4,0,13.5-6.1,13.5-13.5v-54c0-7.4-6.1-13.5-13.5-13.5H16.5C9.1,53.6,3,59.7,3,67.1v54
		C3,128.5,9.1,134.6,16.5,134.6z"/>
	<path class="st1" d="M138.5,134.6h73.4c7.4,0,13.5-6.1,13.5-13.5v-54c0-7.4-6.1-13.5-13.5-13.5h-73.4c-7.4,0-13.5,6.1-13.5,13.5v54
		C125,128.5,131,134.6,138.5,134.6z"/>
</g>
</svg>
