<?xml version="1.0" encoding="utf-8"?>
<!-- Generator: Adobe Illustrator 25.2.1, SVG Export Plug-In . SVG Version: 6.00 Build 0)  -->
<svg version="1.1" id="Layer_1" xmlns="http://www.w3.org/2000/svg" xmlns:xlink="http://www.w3.org/1999/xlink" x="0px" y="0px"
	 viewBox="0 0 664.8 658.4" style="enable-background:new 0 0 664.8 658.4;" xml:space="preserve">
<style type="text/css">
	.st0{opacity:0.1;fill:none;stroke:#62D7CE;stroke-miterlimit:10;}
	.st1{fill:#FFFFFF;}
</style>
<circle class="st0" cx="332.4" cy="329.2" r="329.2"/>
<g>
	<g>
		<path class="st1" d="M506.4,267.8h-30.8v-41c0-79.1-64.3-143.2-143.2-143.2S189,147.9,189,226.8v41h-30.8
			c-5.6,0-10.2,4.6-10.2,10.2v255.9c0,22.6,18.3,41,41,41h286.7c22.6,0,41-18.3,41-41V278C516.6,272.4,512.1,267.8,506.4,267.8z
			 M363,481.6c0.3,2.9-0.5,5.7-2.6,8c-1.9,2.2-4.7,3.4-7.7,3.4h-41c-2.9,0-5.6-1.2-7.7-3.4c-1.9-2.2-2.9-5.1-2.6-8l6.5-58.1
			c-10.4-7.7-16.8-19.7-16.8-32.9c0-22.6,18.3-41,41-41c22.6,0,41,18.3,41,41c0,13.2-6.2,25.3-16.8,32.9L363,481.6z M414.2,267.8
			H250.5v-41c0-45.2,36.7-81.8,81.8-81.8s81.8,36.7,81.8,81.8v41H414.2z"/>
	</g>
</g>
</svg>
