<?xml version="1.0" encoding="utf-8"?>
<!-- Generator: Adobe Illustrator 25.2.1, SVG Export Plug-In . SVG Version: 6.00 Build 0)  -->
<svg version="1.1" id="Capa_1" xmlns="http://www.w3.org/2000/svg" xmlns:xlink="http://www.w3.org/1999/xlink" x="0px" y="0px"
	 viewBox="0 0 512 512" style="enable-background:new 0 0 512 512;" xml:space="preserve">
<style type="text/css">
	.st0{fill:#FFFFFF;}
	.st1{opacity:0.1;fill:none;stroke:#62D7CE;stroke-miterlimit:10;}
</style>
<g>
	<path class="st0" d="M256.5,213.6c-44.9,0-81.5,36.6-81.5,81.5s36.6,81.5,81.5,81.5S338,340,338,295.1S301.4,213.6,256.5,213.6
		L256.5,213.6z M243.4,341l-44.1-43.6l18-18.2l26.9,26.6l52.2-47.7l17.2,18.8L243.4,341z"/>
	<path class="st0" d="M349.4,65.9h-52.6l-2.9-8.8C288.6,40.9,273.6,30,256.5,30s-32.1,10.9-37.4,27.1l-2.9,8.8h-52.6v42.5h185.7
		L349.4,65.9L349.4,65.9z"/>
	<path class="st0" d="M374.9,86.6V134H138.1V86.6H89.6V466h333.8V86.6H374.9z M256.5,402.1c-59,0-107-48-107-107s48-107,107-107
		s107,48,107,107S315.5,402.1,256.5,402.1L256.5,402.1z"/>
</g>
<circle class="st1" cx="256.5" cy="256" r="329.2"/>
</svg>
