<?xml version="1.0" encoding="utf-8"?>
<!-- Generator: Adobe Illustrator 25.2.1, SVG Export Plug-In . SVG Version: 6.00 Build 0)  -->
<svg version="1.1" id="Capa_1" xmlns="http://www.w3.org/2000/svg" xmlns:xlink="http://www.w3.org/1999/xlink" x="0px" y="0px"
	 viewBox="0 0 512 512" style="enable-background:new 0 0 512 512;" xml:space="preserve">
<style type="text/css">
	.st0{opacity:0.1;fill:none;stroke:#62D7CE;stroke-miterlimit:10;}
	.st1{fill:#FFFFFF;}
</style>
<circle class="st0" cx="256.5" cy="256" r="329.2"/>
<g>
	<path class="st1" d="M381.4,116.7h-83.6V60.9H158.5v55.7H74.9v69.7h306.6v-69.6C381.5,116.7,381.4,116.7,381.4,116.7z M269.9,116.7
		h-83.6V88.8h83.6V116.7z"/>
	<path class="st1" d="M172.4,214.2h111.5v83.6H172.4V214.2z"/>
	<path class="st1" d="M311.7,214.2h69.7v83.6h-69.7V214.2z"/>
	<path class="st1" d="M424.1,74.9v250.8h-406v55.7h61.4c-15.2,32,8.1,69.7,44.1,69.7s59.3-37.7,44.1-69.7h148.8
		c-15.2,32,8.1,69.7,44.1,69.7s59.3-37.7,44.1-69.7H452c0-3.3,0-250.8,0-278.7h41.8V74.9H424.1z"/>
	<path class="st1" d="M74.9,214.2h69.7v83.6H74.9V214.2z"/>
</g>
</svg>
