<?xml version="1.0" encoding="utf-8"?>
<!-- Generator: Adobe Illustrator 25.2.1, SVG Export Plug-In . SVG Version: 6.00 Build 0)  -->
<svg version="1.1" id="Glyph" xmlns="http://www.w3.org/2000/svg" xmlns:xlink="http://www.w3.org/1999/xlink" x="0px" y="0px"
	 viewBox="0 0 512 512" style="enable-background:new 0 0 512 512;" xml:space="preserve">
<style type="text/css">
	.st0{opacity:0.1;fill:none;stroke:#62D7CE;stroke-miterlimit:10;enable-background:new    ;}
	.st1{fill:#FFFFFF;}
</style>
<circle class="st0" cx="255.5" cy="254" r="329.2"/>
<path class="st1" d="M493.1,239.2L256,65.9L17.1,240.5H101L251,148c2.8-2,7.2-10.4,10-8.4L376,236L493.1,239.2z"/>
<path class="st1" d="M424,236.1L256,113.9L88,236.1V464h176V280c0-4.4,3.6-8,8-8h112c4.4,0,8,3.6,8,8v184h32V236.1z M232,392
	c0,4.4-3.6,8-8,8h-96c-4.4,0-8-3.6-8-8V280c0-4.4,3.6-8,8-8h96c4.4,0,8,3.6,8,8V392z"/>
<path class="st1" d="M184,288h32v40h-32V288z"/>
<path class="st1" d="M335.2,104l48.8,35.6V64h-48v40H335.2z"/>
<path class="st1" d="M328,32h64v16h-64V32z"/>
<path class="st1" d="M136,344h32v40h-32V344z"/>
<path class="st1" d="M184,344h32v40h-32V344z"/>
<path class="st1" d="M136,288h32v40h-32V288z"/>
<circle class="st1" cx="286.8" cy="369.2" r="5.2"/>
</svg>
