<?xml version="1.0" encoding="utf-8"?>
<!-- Generator: Adobe Illustrator 25.2.1, SVG Export Plug-In . SVG Version: 6.00 Build 0)  -->
<svg version="1.1" id="Capa_1" xmlns="http://www.w3.org/2000/svg" xmlns:xlink="http://www.w3.org/1999/xlink" x="0px" y="0px"
	 viewBox="0 0 512 512" style="enable-background:new 0 0 512 512;" xml:space="preserve">
<style type="text/css">
	.st0{fill:#FFFFFF;}
	.st1{opacity:0.1;fill:none;stroke:#62D7CE;stroke-miterlimit:10;}
</style>
<path class="st0" d="M81.2,256c0-96.4,78.4-174.8,174.8-174.8c36.2,0,70.8,11,99.9,31.4h-22.5c-6.4,0-11.6,5.2-11.6,11.6
	c0,6.4,5.2,11.6,11.6,11.6h54.4c6.4,0,11.6-5.2,11.6-11.6V69.8c0-6.4-5.2-11.6-11.6-11.6s-11.6,5.2-11.6,11.6v28.9
	C341.8,72.3,300,58,256,58c-52.9,0-102.6,20.6-140,58s-58,87.1-58,140c0,34.7,9.2,69,26.6,99c2.2,3.7,6,5.8,10.1,5.8
	c2,0,4-0.5,5.8-1.6c5.5-3.2,7.4-10.3,4.2-15.9C89.3,316.9,81.2,286.7,81.2,256L81.2,256z"/>
<path class="st0" d="M427.4,157c-3.2-5.5-10.3-7.4-15.9-4.2c-5.5,3.2-7.4,10.3-4.2,15.9c15.3,26.5,23.4,56.7,23.4,87.4
	c0,96.4-78.4,174.8-174.8,174.8c-36.2,0-70.8-11-99.9-31.4h22.5c6.4,0,11.6-5.2,11.6-11.6s-5.2-11.6-11.6-11.6h-54.4
	c-6.4,0-11.6,5.2-11.6,11.6v54.4c0,6.4,5.2,11.6,11.6,11.6s11.6-5.2,11.6-11.6v-28.9C170.2,439.7,212,454,256,454
	c52.9,0,102.6-20.6,140-58s58-87.1,58-140C454,221.3,444.8,187,427.4,157L427.4,157z"/>
<circle class="st1" cx="256.5" cy="256" r="329.2"/>
</svg>
